SplineFontDB: 3.0
FontName: AbhayaLibre-ExtraBold
FullName: AbhayaLibre
FamilyName: AbhayaLibre
OS2FamilyName: "AbhayaLibre"
OS2StyleName: "regular"
Weight: ExtraBold
Copyright: Copyright (c) 1997-2015 Pushpananda Ekanayake (http://isiwara.lk), Copyright (c) 2015 mooniak (http://mooniak.com)\n
UComments: "2015-2-15: Created with FontForge (http://fontforge.org) The  Free Font Editor"
Version: 1.0
ItalicAngle: 0
UnderlinePosition: -102
UnderlineWidth: 51
Ascent: 819
Descent: 205
InvalidEm: 0
UFOAscent: 819
UFODescent: -205
LayerCount: 2
Layer: 0 0 "Back" 1
Layer: 1 0 "Fore" 0
FSType: 0
OS2Version: 0
OS2_WeightWidthSlopeOnly: 0
OS2_UseTypoMetrics: 0
CreationTime: 1440051463
ModificationTime: 1440764921
PfmFamily: 16
TTFWeight: 400
TTFWidth: 5
LineGap: 94
VLineGap: 0
OS2TypoAscent: 819
OS2TypoAOffset: 0
OS2TypoDescent: -205
OS2TypoDOffset: 0
OS2TypoLinegap: 94
OS2WinAscent: 918
OS2WinAOffset: 0
OS2WinDescent: 205
OS2WinDOffset: 0
HheadAscent: 918
HheadAOffset: 0
HheadDescent: -205
HheadDOffset: 0
OS2CapHeight: 0
OS2XHeight: 0
OS2Vendor: 'PfEd'
OS2UnicodeRanges: 00000002.00000000.00000000.00000000
Lookup: 1 0 0 "Abhaya Libre Latin-Regular-'sups' Superscript lookup 0" { "Abhaya Libre Latin-Regular-'sups' Superscript lookup 0 subtable"  } ['sups' ('DFLT' <'dflt' > ) ]
Lookup: 4 0 0 "Abhaya Libre Latin-Regular-'frac' Diagonal Fractions lookup 1" { "Abhaya Libre Latin-Regular-'frac' Diagonal Fractions lookup 1 subtable"  } ['frac' ('DFLT' <'dflt' > ) ]
Lookup: 6 0 0 "Abhaya Libre Latin-Regular-'ordn' Ordinals lookup 2" { "Abhaya Libre Latin-Regular-'ordn' Ordinals lookup 2 contextual 0"  "Abhaya Libre Latin-Regular-'ordn' Ordinals lookup 2 contextual 1"  } ['ordn' ('DFLT' <'dflt' > ) ]
Lookup: 1 0 0 "Abhaya Libre Latin-Regular-Single Substitution lookup 3" { "Abhaya Libre Latin-Regular-Single Substitution lookup 3 subtable"  } []

StartChar: si_JnyAe
Encoding: 184 -1 1
GlifName: N_ameM_e.560
Width: 839
VWidth: 0
GlyphClass: 2
Flags: HW
LayerCount: 2
Back
Fore
SplineSet
421 169 m 260
 421 274 494 317 613 317 c 258
 730 317 l 257
 720 363 691 390 658 390 c 256
 639 390 625 379 616 361 c 256
 606 339 589 333 569 333 c 256
 544 333 526 350 526 371 c 256
 526 407 567 433 622 433 c 256
 708 433 752 389 769 291 c 257
 707 291 l 258
 619 291 574 257 574 173 c 256
 574 89 626 44 676 44 c 256
 706 44 731 48 771 94 c 257
 797 75 l 257
 782 48 775 5 775 -60 c 256
 775 -128 799 -199 822 -199 c 257
 822 -228 l 257
 819 -229 815 -230 811 -230 c 256
 755 -230 698 -178 698 -105 c 256
 698 -50 719 -10 734 21 c 257
 706 4 667 -54 667 -108 c 256
 667 -158 679 -194 705 -201 c 257
 705 -228 l 257
 701 -229 691 -230 686 -230 c 256
 624 -230 576 -198 576 -132 c 256
 576 -79 615 -41 662 1 c 257
 654 -1 651 -1 624 -1 c 256
 493 -1 421 69 421 169 c 260
674 426 m 257
 553 408 l 257
 547 408 546 409 540 409 c 256
 443 409 371 348 350 241 c 257
 358 245 363 246 370 246 c 256
 418 246 452 202 452 136 c 256
 452 56 395 -2 308 -2 c 256
 197 -2 134 96 134 207 c 256
 134 330 209 432 320 432 c 256
 324 432 329 431 333 431 c 257
 333 406 l 257
 330 406 325 406 322 406 c 256
 236 406 188 327 188 258 c 256
 188 202 227 140 308 140 c 256
 367 140 394 160 394 190 c 256
 394 201 389 220 367 220 c 256
 360 220 351 217 346 213 c 257
 345 207 344 197 344 194 c 257
 314 194 l 257
 328 354 406 438 560 438 c 256
 591 438 641 436 674 426 c 257
326 431 m 257
 305 420 254 414 238 406 c 257
 135 406 59 347 59 218 c 256
 59 137 86 78 135 34 c 257
 135 0 l 257
 69 33 27 120 27 221 c 256
 27 353 100 433 239 433 c 256
 248 433 299 432 326 431 c 257
EndSplineSet
EndChar

StartChar: si_JnyAee
Encoding: 185 -1 2
GlifName: N_ameM_e.561
Width: 839
VWidth: 0
GlyphClass: 2
Flags: HW
LayerCount: 2
Back
Fore
SplineSet
421 169 m 260
 421 274 494 317 613 317 c 258
 730 317 l 257
 720 363 691 390 658 390 c 256
 639 390 625 379 616 361 c 256
 606 339 588 333 568 333 c 256
 543 333 526 350 526 371 c 256
 526 407 567 433 622 433 c 256
 708 433 752 389 769 291 c 257
 707 291 l 258
 619 291 574 257 574 173 c 256
 574 89 625 44 675 44 c 256
 705 44 730 48 770 94 c 257
 797 75 l 257
 797 68 747 31 747 31 c 257
 816 31 l 257
 816 5 l 257
 754 -36 l 257
 814 -36 l 257
 814 -62 l 257
 802 -75 783 -92 783 -136 c 256
 783 -176 805 -200 822 -200 c 257
 822 -228 l 257
 819 -229 815 -230 811 -230 c 256
 755 -230 699 -189 699 -144 c 256
 699 -105 727 -75 758 -61 c 257
 702 -62 l 257
 702 -40 l 257
 725 -26 747 -10 771 4 c 257
 769 4 716 4 716 4 c 257
 699 -10 667 -54 667 -108 c 256
 667 -158 687 -194 705 -201 c 257
 705 -228 l 257
 701 -229 691 -230 686 -230 c 256
 624 -230 576 -198 576 -132 c 256
 576 -79 615 -41 662 1 c 257
 654 -1 651 -1 624 -1 c 256
 493 -1 421 69 421 169 c 260
674 426 m 257
 553 408 l 257
 547 408 546 409 540 409 c 256
 443 409 371 348 350 241 c 257
 358 245 363 246 370 246 c 256
 418 246 452 202 452 136 c 256
 452 56 395 -2 308 -2 c 256
 197 -2 134 96 134 207 c 256
 134 330 209 432 320 432 c 256
 324 432 329 431 333 431 c 257
 333 406 l 257
 330 406 325 406 322 406 c 256
 236 406 188 327 188 258 c 256
 188 202 227 140 308 140 c 256
 367 140 394 160 394 190 c 256
 394 201 389 220 367 220 c 256
 360 220 351 217 346 213 c 257
 345 207 344 197 344 194 c 257
 314 194 l 257
 328 354 406 438 560 438 c 256
 591 438 641 436 674 426 c 257
326 431 m 257
 305 420 254 414 238 406 c 257
 135 406 59 347 59 218 c 256
 59 137 86 78 135 34 c 257
 135 0 l 257
 69 33 27 120 27 221 c 256
 27 353 100 433 239 433 c 256
 248 433 299 432 326 431 c 257
EndSplineSet
EndChar

StartChar: si_NyAe
Encoding: 172 -1 3
GlifName: N_ameM_e.564
Width: 1018
VWidth: 0
GlyphClass: 2
Flags: HW
LayerCount: 2
Back
Fore
SplineSet
603 169 m 260
 603 274 676 317 795 317 c 258
 912 317 l 257
 902 363 851 390 818 390 c 256
 799 390 785 379 776 361 c 256
 766 339 748 333 728 333 c 256
 703 333 686 350 686 371 c 256
 686 407 727 433 782 433 c 256
 868 433 934 389 951 291 c 257
 889 291 l 258
 801 291 756 257 756 173 c 256
 756 89 807 44 857 44 c 256
 887 44 912 48 952 94 c 257
 979 75 l 257
 964 48 957 5 957 -60 c 256
 957 -128 981 -199 1004 -199 c 257
 1004 -228 l 257
 1001 -229 997 -230 993 -230 c 256
 937 -230 880 -178 880 -105 c 256
 880 -50 901 -10 916 21 c 257
 888 4 849 -54 849 -108 c 256
 849 -158 861 -194 887 -201 c 257
 887 -228 l 257
 883 -229 873 -230 868 -230 c 256
 806 -230 758 -198 758 -132 c 256
 758 -79 797 -41 844 1 c 257
 836 -1 833 -1 806 -1 c 256
 675 -1 603 69 603 169 c 260
305 268 m 257
 288 253 272 235 256 212 c 256
 229 172 226 163 216 143 c 257
 228 153 240 160 254 160 c 256
 286 160 297 140 337 140 c 256
 383 140 405 157 405 214 c 256
 405 216 405 214 405 216 c 257
 433 216 l 257
 433 215 433 216 433 215 c 256
 433 154 457 140 502 140 c 256
 543 140 568 169 568 204 c 256
 568 246 527 287 426 287 c 256
 369 287 330 280 305 268 c 257
146 22 m 257
 154 91 199 184 234 232 c 256
 260 268 273 280 296 304 c 257
 305 314 316 331 316 352 c 256
 316 371 307 386 283 386 c 256
 269 386 253 379 249 363 c 256
 243 342 247 342 238 323 c 256
 230 306 212 297 197 297 c 256
 160 297 154 328 154 340 c 256
 154 394 204 433 261 433 c 256
 313 433 345 399 345 358 c 256
 345 352 345 349 344 341 c 257
 380 369 427 396 492 417 c 256
 558 438 633 442 676 442 c 256
 761 442 805 433 827 427 c 257
 820 426 735 411 722 410 c 257
 707 411 686 412 674 412 c 256
 615 412 564 403 536 397 c 256
 449 378 387 337 345 306 c 257
 373 312 403 314 430 314 c 256
 550 314 640 250 640 126 c 256
 640 68 607 -1 522 -1 c 256
 476 -1 442 20 421 63 c 257
 404 22 371 -1 329 -1 c 256
 242 -1 245 73 212 73 c 256
 190 73 177 51 174 11 c 257
 146 22 l 257
27 221 m 256
 27 353 100 434 239 434 c 256
 248 434 271 434 293 428 c 257
 272 417 195 404 178 398 c 257
 106 381 59 319 59 218 c 256
 59 137 86 78 135 34 c 257
 135 0 l 257
 69 33 27 120 27 221 c 256
EndSplineSet
EndChar

StartChar: si_NyAee
Encoding: 173 -1 4
GlifName: N_ameM_e.565
Width: 1018
VWidth: 0
GlyphClass: 2
Flags: HW
LayerCount: 2
Back
Fore
SplineSet
603 169 m 256
 603 274 676 317 795 317 c 258
 912 317 l 257
 902 363 851 390 818 390 c 256
 799 390 785 379 776 361 c 256
 766 339 748 333 728 333 c 256
 703 333 686 350 686 371 c 256
 686 407 727 433 782 433 c 256
 868 433 934 389 951 291 c 257
 889 291 l 258
 801 291 756 257 756 173 c 256
 756 89 807 44 857 44 c 256
 887 44 912 48 952 94 c 257
 979 75 l 257
 979 68 929 31 929 31 c 257
 998 31 l 257
 998 5 l 257
 936 -36 l 257
 996 -36 l 257
 996 -62 l 257
 984 -75 965 -92 965 -136 c 256
 965 -176 987 -200 1004 -200 c 257
 1004 -228 l 257
 1001 -229 997 -230 993 -230 c 256
 937 -230 881 -189 881 -144 c 256
 881 -105 909 -75 940 -61 c 257
 884 -62 l 257
 884 -40 l 257
 907 -26 929 -10 953 4 c 257
 951 4 898 4 898 4 c 257
 881 -10 849 -54 849 -108 c 256
 849 -158 869 -194 887 -201 c 257
 887 -228 l 257
 883 -229 873 -230 868 -230 c 256
 806 -230 758 -198 758 -132 c 256
 758 -79 797 -41 844 1 c 257
 836 -1 833 -1 806 -1 c 256
 675 -1 603 69 603 169 c 256
305 268 m 257
 288 253 272 235 256 212 c 256
 229 172 226 163 216 143 c 257
 228 153 240 160 254 160 c 256
 286 160 297 140 337 140 c 256
 383 140 405 157 405 214 c 256
 405 216 405 214 405 216 c 257
 433 216 l 257
 433 215 433 216 433 215 c 256
 433 154 457 140 502 140 c 256
 543 140 568 169 568 204 c 256
 568 246 527 287 426 287 c 256
 369 287 330 280 305 268 c 257
146 22 m 257
 154 91 199 184 234 232 c 256
 260 268 273 280 296 304 c 257
 305 314 316 331 316 352 c 256
 316 371 307 386 283 386 c 256
 269 386 253 379 249 363 c 256
 243 342 247 342 238 323 c 256
 230 306 212 297 197 297 c 256
 160 297 154 328 154 340 c 256
 154 394 204 433 261 433 c 256
 313 433 345 399 345 358 c 256
 345 352 345 349 344 341 c 257
 380 369 427 396 492 417 c 256
 558 438 633 442 676 442 c 256
 761 442 805 433 827 427 c 257
 820 426 735 411 722 410 c 257
 707 411 686 412 674 412 c 256
 615 412 564 403 536 397 c 256
 449 378 387 337 345 306 c 257
 373 312 403 314 430 314 c 256
 550 314 640 250 640 126 c 256
 640 68 607 -1 522 -1 c 256
 476 -1 442 20 421 63 c 257
 404 22 371 -1 329 -1 c 256
 242 -1 245 73 212 73 c 256
 190 73 177 51 174 11 c 257
 146 22 l 257
27 221 m 260
 27 353 100 434 239 434 c 256
 248 434 271 434 293 428 c 257
 272 417 195 404 178 398 c 257
 106 381 59 319 59 218 c 256
 59 137 86 78 135 34 c 257
 135 0 l 257
 69 33 27 120 27 221 c 260
EndSplineSet
EndChar

StartChar: zwj
Encoding: 83 8205 5
GlifName: zwj
Width: 0
VWidth: 0
GlyphClass: 2
Flags: HW
LayerCount: 2
Back
Fore
SplineSet
55 655 m 257
 180 532 l 257
 124 477 l 257
 40 561 l 257
 40 -10 l 257
 -40 -10 l 257
 -40 561 l 257
 -124 477 l 257
 -180 532 l 257
 -55 655 l 257
 -180 776 l 257
 -124 832 l 257
 0 708 l 257
 124 832 l 257
 180 776 l 257
 55 655 l 257
EndSplineSet
EndChar

StartChar: zwnj
Encoding: 82 8204 6
GlifName: zwnj
Width: 0
VWidth: 0
GlyphClass: 2
Flags: HW
LayerCount: 2
Back
Fore
SplineSet
-40 -11 m 257
 -40 781 l 257
 40 781 l 257
 40 -11 l 257
 -40 -11 l 257
EndSplineSet
EndChar

StartChar: si_B.halant
Encoding: 314 -1 7
GlifName: si_B_.halant
Width: 619
VWidth: 0
GlyphClass: 2
Flags: HW
LayerCount: 2
Back
Fore
SplineSet
101 76 m 256
 101 50 124 27 150 27 c 256
 176 27 199 50 199 76 c 256
 199 102 176 125 150 125 c 256
 124 125 101 102 101 76 c 256
142 538 m 256
 142 528 161 524 161 515 c 256
 161 513 160 510 158 508 c 257
 191 514 231 519 277 519 c 256
 385 519 477 485 525 422 c 257
 494 526 404 574 294 574 c 256
 219 574 142 560 142 538 c 256
33 187 m 256
 33 314 120 396 247 396 c 256
 329 396 403 351 403 272 c 256
 403 149 292 182 292 125 c 256
 292 111 307 104 335 104 c 256
 437 104 498 229 498 329 c 256
 498 440 411 492 269 492 c 256
 233 492 198 488 162 481 c 256
 123 473 83 460 40 440 c 257
 40 473 l 257
 71 485 122 499 122 508 c 256
 122 520 93 524 93 545 c 256
 93 582 159 629 276 629 c 256
 484 629 555 490 567 356 c 256
 570 343 575 300 575 267 c 256
 574 138 517 -2 381 -2 c 256
 313 -2 259 38 259 113 c 256
 259 187 330 170 330 232 c 256
 330 263 281 276 237 276 c 256
 149 276 70 227 70 131 c 256
 70 116 73 99 77 91 c 257
 81 126 109 153 150 153 c 256
 193 153 229 119 229 77 c 256
 229 29 190 -1 150 -1 c 256
 68 -1 33 91 33 187 c 256
EndSplineSet
EndChar

StartChar: si_BI
Encoding: 315 -1 8
GlifName: si_B_I_
Width: 619
VWidth: 0
GlyphClass: 2
Flags: HW
LayerCount: 2
Back
Fore
SplineSet
66 562 m 256
 66 652 197 670 297 670 c 256
 433 670 543 639 543 554 c 256
 543 502 489 480 455 474 c 257
 405 490 l 257
 441 491 468 505 468 527 c 256
 468 564 405 581 297 581 c 256
 221 581 125 573 125 538 c 256
 125 511 173 508 275 504 c 256
 340 501 434 499 489 459 c 256
 538 423 575 356 575 281 c 257
 500 325 l 257
 500 355 496 399 468 426 c 256
 426 468 377 470 276 476 c 256
 187 481 66 476 66 562 c 256
102 76 m 256
 102 50 124 28 150 28 c 256
 176 28 198 50 198 76 c 256
 198 102 176 124 150 124 c 256
 124 124 102 102 102 76 c 256
33 187 m 256
 33 314 124 396 238 396 c 256
 330 396 404 354 404 266 c 256
 404 160 292 176 292 127 c 256
 292 107 317 104 333 104 c 256
 431 104 500 226 500 330 c 257
 518 315 547 324 575 284 c 257
 575 141 518 -2 381 -2 c 256
 302 -2 259 49 259 108 c 256
 259 189 331 172 331 230 c 256
 331 252 309 276 237 276 c 256
 146 276 70 222 70 138 c 256
 70 130 72 104 77 91 c 257
 81 126 109 153 150 153 c 256
 193 153 229 119 229 77 c 256
 229 29 190 -1 150 -1 c 256
 68 -1 33 91 33 187 c 256
EndSplineSet
EndChar

StartChar: si_BIi
Encoding: 316 -1 9
GlifName: si_B_I_i
Width: 619
VWidth: 0
GlyphClass: 2
Flags: HW
LayerCount: 2
Back
Fore
SplineSet
393 539 m 256
 393 509 420 485 452 485 c 256
 484 485 511 509 511 539 c 256
 511 569 484 592 452 592 c 256
 420 592 393 569 393 539 c 256
67 562 m 256
 67 652 198 670 298 670 c 256
 434 670 544 640 544 542 c 256
 544 489 496 458 452 458 c 256
 408 458 360 489 360 542 c 256
 360 566 370 579 374 584 c 257
 366 586 332 588 296 588 c 256
 220 588 122 580 122 540 c 256
 122 511 174 508 276 504 c 256
 341 501 435 499 490 459 c 256
 539 423 575 355 575 274 c 257
 500 324 l 257
 500 351 498 389 470 420 c 256
 426 471 378 470 277 476 c 256
 188 481 67 476 67 562 c 256
102 76 m 256
 102 50 124 28 150 28 c 256
 176 28 198 50 198 76 c 256
 198 102 176 124 150 124 c 256
 124 124 102 102 102 76 c 256
33 187 m 256
 33 314 124 396 238 396 c 256
 330 396 404 354 404 266 c 256
 404 160 292 176 292 127 c 256
 292 107 317 104 333 104 c 256
 431 104 500 226 500 330 c 257
 518 315 547 317 575 277 c 257
 575 141 518 -2 381 -2 c 256
 302 -2 259 49 259 108 c 256
 259 189 331 172 331 230 c 256
 331 252 309 276 237 276 c 256
 146 276 70 222 70 138 c 256
 70 130 72 104 77 91 c 257
 81 126 109 153 150 153 c 256
 193 153 229 119 229 77 c 256
 229 29 190 -1 150 -1 c 256
 68 -1 33 91 33 187 c 256
EndSplineSet
EndChar

StartChar: si_BRI
Encoding: 321 -1 10
GlifName: si_B_R_I_
Width: 619
VWidth: 0
GlyphClass: 2
Flags: HW
LayerCount: 2
Back
Fore
SplineSet
58 -44 m 257
 88 -44 l 257
 125 -87 180 -114 285 -114 c 256
 428 -114 536 -31 536 63 c 256
 536 78 533 90 528 102 c 257
 542 133 l 257
 560 106 568 75 568 38 c 256
 568 -124 444 -219 300 -219 c 256
 175 -219 95 -153 58 -44 c 257
EndSplineSet
Refer: 8 -1 N 1 0 0 1 0 0 2
EndChar

StartChar: si_BRIi
Encoding: 322 -1 11
GlifName: si_B_R_I_i
Width: 619
VWidth: 0
GlyphClass: 2
Flags: HW
LayerCount: 2
Back
Fore
SplineSet
58 -44 m 257
 88 -44 l 257
 125 -87 180 -114 285 -114 c 256
 428 -114 536 -31 536 63 c 256
 536 78 533 90 528 102 c 257
 542 133 l 257
 560 106 568 75 568 38 c 256
 568 -124 444 -219 300 -219 c 256
 175 -219 95 -153 58 -44 c 257
EndSplineSet
Refer: 9 -1 N 1 0 0 1 0 0 2
EndChar

StartChar: si_BRa
Encoding: 320 -1 12
GlifName: si_B_R_a
Width: 619
VWidth: 0
GlyphClass: 2
Flags: HW
LayerCount: 2
Back
Fore
SplineSet
58 -44 m 257
 88 -44 l 257
 125 -87 180 -114 285 -114 c 256
 428 -114 536 -31 536 63 c 256
 536 78 533 90 528 102 c 257
 542 133 l 257
 560 106 568 75 568 38 c 256
 568 -124 444 -219 300 -219 c 256
 175 -219 95 -153 58 -44 c 257
EndSplineSet
Refer: 465 3510 N 1 0 0 1 0 0 2
EndChar

StartChar: si_BU
Encoding: 317 -1 13
GlifName: si_B_U_
Width: 619
VWidth: 0
GlyphClass: 2
Flags: HW
LayerCount: 2
Back
Fore
SplineSet
49 -142 m 256
 49 -90 96 -50 151 -50 c 256
 193 -50 230 -74 245 -110 c 257
 212 -122 l 257
 205 -105 184 -82 151 -82 c 256
 114 -82 85 -109 85 -142 c 256
 85 -171 106 -192 176 -192 c 258
 530 -192 l 257
 530 128 l 257
 566 219 l 257
 566 -235 l 257
 155 -235 l 258
 75 -235 49 -186 49 -142 c 256
EndSplineSet
Refer: 465 3510 N 1 0 0 1 0 0 2
EndChar

StartChar: si_BUu
Encoding: 318 -1 14
GlifName: si_B_U_u
Width: 619
VWidth: 0
GlyphClass: 2
Flags: HW
LayerCount: 2
Back
Fore
SplineSet
49 -138 m 256
 49 -80 98 -40 151 -40 c 256
 193 -40 225 -55 248 -91 c 257
 215 -102 l 257
 204 -85 185 -70 156 -70 c 256
 117 -70 92 -95 92 -120 c 256
 92 -152 121 -167 155 -167 c 256
 231 -167 298 -114 406 -114 c 256
 457 -114 503 -134 530 -166 c 257
 530 152 l 257
 565 212 l 257
 565 -231 l 257
 540 -231 l 257
 525 -195 479 -146 416 -146 c 256
 325 -146 258 -237 160 -237 c 256
 105 -237 49 -206 49 -138 c 256
EndSplineSet
Refer: 465 3510 N 1 0 0 1 0 0 2
EndChar

StartChar: si_Bh.halant
Encoding: 323 -1 16
GlifName: si_B_h.halant
Width: 670
VWidth: 0
GlyphClass: 2
Flags: HW
LayerCount: 2
Back
Fore
SplineSet
466 397 m 257
 466 681 l 257
 520 639 618 634 618 542 c 256
 618 498 583 468 540 468 c 256
 525 468 510 471 495 478 c 257
 495 384 l 257
 466 397 l 257
495 504 m 257
 503 499 514 497 527 497 c 256
 559 497 573 521 573 545 c 256
 573 586 541 607 495 637 c 257
 495 504 l 257
EndSplineSet
Refer: 466 3511 N 1 0 0 1 0 0 2
EndChar

StartChar: si_BhI
Encoding: 324 -1 17
GlifName: si_B_hI_
Width: 670
VWidth: 0
GlyphClass: 2
Flags: HW
LayerCount: 2
Back
Fore
SplineSet
178 537 m 256
 178 628 277 667 379 667 c 256
 484 667 587 618 587 523 c 256
 587 461 548 413 467 407 c 257
 449 431 l 257
 452 431 454 431 457 431 c 256
 515 431 545 466 545 498 c 256
 545 552 466 566 386 566 c 256
 305 566 249 538 249 503 c 256
 249 454 353 431 439 431 c 256
 440 431 440 432 441 432 c 257
 425 408 l 257
 265 411 178 462 178 537 c 256
EndSplineSet
Refer: 466 3511 N 1 0 0 1 0 0 2
EndChar

StartChar: si_BhIi
Encoding: 325 -1 18
GlifName: si_B_hI_i
Width: 670
VWidth: 0
GlyphClass: 2
Flags: HW
LayerCount: 2
Back
Fore
SplineSet
422 520 m 256
 422 487 451 460 488 460 c 256
 525 460 555 487 555 520 c 256
 555 553 525 580 488 580 c 256
 451 580 422 553 422 520 c 256
178 537 m 256
 178 628 277 667 379 667 c 256
 484 667 587 618 587 525 c 256
 587 457 530 431 488 431 c 256
 442 431 389 463 389 520 c 256
 389 539 396 555 403 566 c 257
 397 566 392 566 386 566 c 256
 305 566 249 538 249 503 c 256
 249 454 353 431 439 431 c 256
 440 431 440 432 441 432 c 257
 425 406 l 257
 265 409 178 462 178 537 c 256
EndSplineSet
Refer: 466 3511 N 1 0 0 1 0 0 2
EndChar

StartChar: si_BhRI
Encoding: 330 -1 19
GlifName: si_B_hR_I_
Width: 670
VWidth: 0
GlyphClass: 2
Flags: HW
LayerCount: 2
Back
Fore
SplineSet
76 -44 m 257
 105 -44 l 257
 139 -93 195 -114 308 -114 c 256
 460 -114 572 -31 572 63 c 256
 572 78 569 91 562 102 c 257
 575 133 l 257
 593 106 602 75 602 38 c 256
 602 -124 483 -219 331 -219 c 256
 191 -219 113 -153 76 -44 c 257
EndSplineSet
Refer: 17 -1 N 1 0 0 1 0 0 2
EndChar

StartChar: si_BhRIi
Encoding: 331 -1 20
GlifName: si_B_hR_I_i
Width: 670
VWidth: 0
GlyphClass: 2
Flags: HW
LayerCount: 2
Back
Fore
SplineSet
422 520 m 256
 422 487 451 460 488 460 c 256
 525 460 555 487 555 520 c 256
 555 553 525 580 488 580 c 256
 451 580 422 553 422 520 c 256
178 537 m 256
 178 628 277 667 379 667 c 256
 484 667 587 618 587 525 c 256
 587 457 530 431 488 431 c 256
 442 431 389 463 389 520 c 256
 389 539 396 555 403 566 c 257
 397 566 392 566 386 566 c 256
 305 566 249 538 249 503 c 256
 249 454 353 431 439 431 c 256
 440 431 440 432 441 432 c 257
 425 406 l 257
 265 409 178 462 178 537 c 256
76 -44 m 257
 105 -44 l 257
 139 -93 195 -114 308 -114 c 256
 460 -114 572 -31 572 63 c 256
 572 78 569 91 562 102 c 257
 575 133 l 257
 593 106 602 75 602 38 c 256
 602 -124 483 -219 331 -219 c 256
 191 -219 113 -153 76 -44 c 257
EndSplineSet
Refer: 466 3511 N 1 0 0 1 0 0 2
EndChar

StartChar: si_BhRa
Encoding: 329 -1 21
GlifName: si_B_hR_a
Width: 670
VWidth: 0
GlyphClass: 2
Flags: HW
LayerCount: 2
Back
Fore
SplineSet
76 -44 m 257
 105 -44 l 257
 139 -93 195 -114 308 -114 c 256
 460 -114 572 -31 572 63 c 256
 572 78 569 91 562 102 c 257
 575 133 l 257
 593 106 602 75 602 38 c 256
 602 -124 483 -219 331 -219 c 256
 191 -219 113 -153 76 -44 c 257
EndSplineSet
Refer: 466 3511 N 1 0 0 1 0 0 2
EndChar

StartChar: si_BhU
Encoding: 326 -1 22
GlifName: si_B_hU_
Width: 670
VWidth: 0
GlyphClass: 2
Flags: HW
LayerCount: 2
Back
Fore
SplineSet
6 271 m 257
 6 303 l 257
 212 303 l 257
 171 278 l 257
 140 278 l 258
 69 277 22 274 6 271 c 257
49 364 m 256
 49 394 77 432 134 432 c 256
 213 432 255 360 255 276 c 257
 243 277 232 278 221 278 c 256
 150 278 110 244 110 208 c 256
 110 155 174 139 228 139 c 256
 266 139 334 152 334 190 c 256
 334 208 323 215 312 215 c 256
 298 215 287 207 280 186 c 257
 255 195 l 257
 264 320 345 432 446 432 c 256
 558 432 621 329 621 211 c 256
 621 92 539 -1 452 -1 c 256
 432 -1 420 -4 412 -7 c 257
 400 22 l 257
 414 28 428 30 439 32 c 256
 496 44 513 112 513 166 c 256
 513 230 480 314 390 314 c 256
 315 314 298 264 289 235 c 257
 299 241 308 242 317 242 c 256
 358 242 382 199 382 145 c 256
 382 53 311 -1 217 -1 c 256
 119 -1 49 61 49 155 c 256
 49 246 138 303 213 303 c 256
 216 303 217 303 220 303 c 257
 220 342 196 378 168 378 c 256
 153 378 139 374 130 352 c 256
 122 332 106 323 90 323 c 256
 68 323 49 336 49 364 c 256
339 -72 m 256
 339 -23 365 9 404 24 c 257
 416 -6 l 257
 401 -12 386 -26 386 -48 c 256
 386 -84 429 -105 480 -105 c 256
 541 -105 588 -83 588 -45 c 256
 588 -42 588 -39 588 -36 c 257
 618 -36 l 257
 620 -45 620 -61 620 -70 c 256
 620 -123 577 -192 476 -192 c 256
 408 -192 339 -159 339 -72 c 256
EndSplineSet
EndChar

StartChar: si_BhUu
Encoding: 327 -1 23
GlifName: si_B_hU_u
Width: 670
VWidth: 0
GlyphClass: 2
Flags: HW
LayerCount: 2
Back
Fore
SplineSet
373 -129 m 256
 373 -93 402 -72 437 -67 c 257
 382 -39 l 257
 467 -14 l 257
 370 2 l 257
 430 15 l 257
 554 -6 l 257
 445 -43 l 257
 505 -76 l 257
 477 -83 423 -83 423 -104 c 256
 423 -120 455 -129 497 -129 c 256
 551 -129 595 -113 595 -82 c 256
 595 -77 594 -67 589 -59 c 257
 624 -59 l 257
 628 -71 628 -83 628 -94 c 256
 628 -161 577 -205 495 -205 c 256
 437 -205 373 -187 373 -129 c 256
EndSplineSet
Refer: 466 3511 N 1 0 0 1 0 0 2
EndChar

StartChar: si_Bha.reph
Encoding: 328 -1 24
GlifName: si_B_ha.reph
Width: 670
VWidth: 0
GlyphClass: 2
Flags: HW
LayerCount: 2
Back
Fore
SplineSet
297 511 m 256
 297 491 315 475 337 475 c 256
 359 475 377 491 377 511 c 256
 377 531 359 547 337 547 c 256
 315 547 297 531 297 511 c 256
194 530 m 256
 194 594 252 631 334 631 c 256
 411 631 475 588 475 517 c 256
 475 493 467 471 450 452 c 257
 414 452 l 257
 427 464 443 489 443 516 c 256
 443 571 394 602 333 602 c 256
 280 602 227 580 227 530 c 256
 227 491 270 473 288 471 c 257
 280 477 269 491 269 512 c 256
 269 547 300 572 336 572 c 256
 377 572 405 545 405 510 c 256
 405 471 370 445 312 445 c 256
 253 445 194 474 194 530 c 256
EndSplineSet
Refer: 466 3511 N 1 0 0 1 0 0 2
EndChar

StartChar: si_C.halant
Encoding: 136 -1 25
GlifName: si_C_.halant
Width: 621
VWidth: 0
GlyphClass: 2
Flags: HW
LayerCount: 2
Back
Fore
SplineSet
144 538 m 256
 144 526 163 526 163 515 c 256
 163 513 162 510 160 508 c 257
 193 514 233 519 279 519 c 256
 387 519 469 489 524 425 c 257
 491 536 400 574 284 574 c 256
 212 574 144 558 144 538 c 256
42 440 m 257
 42 473 l 257
 74 485 124 499 124 508 c 256
 124 520 96 520 96 546 c 256
 96 583 163 629 278 629 c 256
 486 629 557 490 569 356 c 257
 576 326 577 290 577 274 c 257
 517 316 l 257
 517 324 517 320 517 324 c 256
 517 405 445 492 276 492 c 256
 200 492 123 478 42 440 c 257
64 165 m 256
 64 196 74 228 97 248 c 256
 113 262 132 273 158 278 c 257
 192 290 233 302 270 302 c 258
 284 302 l 257
 284 304 284 306 284 308 c 256
 284 358 252 389 220 389 c 256
 186 389 174 371 168 355 c 256
 161 336 150 320 121 320 c 256
 101 320 83 333 83 359 c 256
 83 406 133 432 188 432 c 256
 276 432 319 376 319 290 c 256
 319 287 319 277 319 274 c 257
 271 274 l 258
 216 274 184 266 161 254 c 256
 133 239 128 220 128 207 c 256
 128 158 208 140 298 140 c 256
 451 140 517 218 517 320 c 257
 532 300 552 305 577 277 c 257
 577 114 478 0 295 0 c 256
 174 0 64 46 64 165 c 256
13 267 m 257
 13 302 l 257
 282 302 l 257
 315 274 l 257
 148 274 l 258
 77 273 29 270 13 267 c 257
EndSplineSet
EndChar

StartChar: si_CI
Encoding: 137 -1 26
GlifName: si_C_I_
Width: 621
VWidth: 0
GlyphClass: 2
Flags: HW
LayerCount: 2
Back
Fore
SplineSet
73 562 m 256
 73 652 200 670 300 670 c 256
 436 670 546 639 546 554 c 256
 546 502 492 480 458 474 c 257
 408 490 l 257
 444 491 471 505 471 527 c 256
 471 564 408 581 300 581 c 256
 224 581 132 573 132 538 c 256
 132 511 176 508 278 504 c 256
 343 501 437 499 492 459 c 256
 541 423 577 356 577 274 c 257
 517 326 l 257
 517 336 516 384 489 416 c 256
 444 469 380 470 279 476 c 256
 190 481 73 476 73 562 c 256
64 165 m 256
 64 196 74 228 97 248 c 256
 113 262 132 273 158 278 c 257
 192 290 233 302 270 302 c 258
 284 302 l 257
 284 304 284 306 284 308 c 256
 284 358 252 389 220 389 c 256
 186 389 174 371 168 355 c 256
 161 336 150 320 121 320 c 256
 101 320 83 333 83 359 c 256
 83 406 133 432 188 432 c 256
 276 432 319 376 319 290 c 256
 319 287 319 277 319 274 c 257
 271 274 l 258
 216 274 184 266 161 254 c 256
 133 239 128 220 128 207 c 256
 128 158 208 140 298 140 c 256
 451 140 517 218 517 329 c 257
 532 309 552 305 577 277 c 257
 577 114 478 0 295 0 c 256
 174 0 64 46 64 165 c 256
13 267 m 257
 13 302 l 257
 282 302 l 257
 315 274 l 257
 148 274 l 258
 77 273 29 270 13 267 c 257
EndSplineSet
EndChar

StartChar: si_CIi
Encoding: 138 -1 27
GlifName: si_C_I_i
Width: 621
VWidth: 0
GlyphClass: 2
Flags: HW
LayerCount: 2
Back
Fore
SplineSet
394 539 m 256
 394 509 422 485 454 485 c 256
 486 485 513 509 513 539 c 256
 513 569 486 592 454 592 c 256
 422 592 394 569 394 539 c 256
74 562 m 256
 74 652 200 670 300 670 c 256
 436 670 546 640 546 542 c 256
 546 489 498 458 454 458 c 256
 410 458 362 489 362 542 c 256
 362 566 372 579 376 584 c 257
 368 586 334 588 298 588 c 256
 222 588 128 580 128 540 c 256
 128 511 176 508 278 504 c 256
 343 501 437 499 492 459 c 256
 541 423 577 356 577 274 c 257
 517 322 l 257
 517 349 516 384 488 417 c 256
 444 470 379 470 278 476 c 256
 189 481 74 476 74 562 c 256
64 165 m 256
 64 196 74 228 97 248 c 256
 113 262 132 273 158 278 c 257
 192 290 233 302 270 302 c 258
 284 302 l 257
 284 304 284 306 284 308 c 256
 284 358 252 389 220 389 c 256
 186 389 174 371 168 355 c 256
 161 336 150 320 121 320 c 256
 101 320 83 333 83 359 c 256
 83 406 133 432 188 432 c 256
 276 432 319 376 319 290 c 256
 319 287 319 277 319 274 c 257
 271 274 l 258
 216 274 184 266 161 254 c 256
 133 239 128 220 128 207 c 256
 128 158 208 140 298 140 c 256
 451 140 517 218 517 329 c 257
 532 309 552 305 577 277 c 257
 577 114 478 0 295 0 c 256
 174 0 64 46 64 165 c 256
13 267 m 257
 13 302 l 257
 282 302 l 257
 315 274 l 257
 148 274 l 258
 77 273 29 270 13 267 c 257
EndSplineSet
EndChar

StartChar: si_CRI
Encoding: 143 -1 28
GlifName: si_C_R_I_
Width: 597
VWidth: 0
GlyphClass: 2
Flags: HW
LayerCount: 2
Back
Fore
SplineSet
46 -44 m 257
 76 -44 l 257
 113 -87 166 -114 271 -114 c 256
 414 -114 518 -31 518 63 c 256
 518 78 512 100 502 110 c 257
 518 140 l 257
 539 115 550 75 550 38 c 256
 550 -124 430 -219 286 -219 c 256
 160 -219 83 -153 46 -44 c 257
EndSplineSet
Refer: 26 -1 N 1 0 0 1 0 0 2
EndChar

StartChar: si_CRIi
Encoding: 144 -1 29
GlifName: si_C_R_I_i
Width: 597
VWidth: 0
GlyphClass: 2
Flags: HW
LayerCount: 2
Back
Fore
SplineSet
46 -44 m 257
 76 -44 l 257
 113 -87 166 -114 271 -114 c 256
 414 -114 518 -31 518 63 c 256
 518 78 512 100 502 110 c 257
 518 140 l 257
 539 115 550 75 550 38 c 256
 550 -124 430 -219 286 -219 c 256
 160 -219 83 -153 46 -44 c 257
EndSplineSet
Refer: 27 -1 N 1 0 0 1 0 0 2
EndChar

StartChar: si_CRa
Encoding: 142 -1 30
GlifName: si_C_R_a
Width: 597
VWidth: 0
GlyphClass: 2
Flags: HW
LayerCount: 2
Back
Fore
SplineSet
46 -44 m 257
 76 -44 l 257
 113 -87 166 -114 271 -114 c 256
 414 -114 518 -31 518 63 c 256
 518 78 512 100 502 110 c 257
 518 140 l 257
 539 115 550 75 550 38 c 256
 550 -124 430 -219 286 -219 c 256
 160 -219 83 -153 46 -44 c 257
EndSplineSet
Refer: 444 3488 N 1 0 0 1 0 0 2
EndChar

StartChar: si_CU
Encoding: 139 -1 31
GlifName: si_C_U_
Width: 597
VWidth: 0
GlyphClass: 2
Flags: HW
LayerCount: 2
Back
Fore
SplineSet
70 -142 m 256
 70 -90 117 -50 172 -50 c 256
 214 -50 251 -74 266 -110 c 257
 233 -122 l 257
 226 -105 205 -82 172 -82 c 256
 135 -82 106 -109 106 -142 c 256
 106 -171 128 -192 198 -192 c 258
 529 -192 l 257
 529 128 l 257
 564 219 l 257
 564 -235 l 257
 176 -235 l 258
 96 -235 70 -186 70 -142 c 256
EndSplineSet
Refer: 444 3488 N 1 0 0 1 0 0 2
EndChar

StartChar: si_CUu
Encoding: 140 -1 32
GlifName: si_C_U_u
Width: 597
VWidth: 0
GlyphClass: 2
Flags: HW
LayerCount: 2
Back
Fore
SplineSet
70 -138 m 256
 70 -80 119 -40 172 -40 c 256
 214 -40 247 -55 270 -91 c 257
 236 -102 l 257
 225 -85 207 -70 178 -70 c 256
 139 -70 114 -95 114 -120 c 256
 114 -152 142 -167 176 -167 c 256
 252 -167 319 -114 413 -114 c 256
 464 -114 504 -134 531 -166 c 257
 531 152 l 257
 566 212 l 257
 566 -231 l 257
 540 -231 l 257
 525 -195 486 -146 423 -146 c 256
 337 -146 280 -237 182 -237 c 256
 127 -237 70 -206 70 -138 c 256
EndSplineSet
Refer: 444 3488 N 1 0 0 1 0 0 2
EndChar

StartChar: si_Ca.reph
Encoding: 141 -1 33
GlifName: si_C_a.reph
Width: 597
VWidth: 0
GlyphClass: 2
Flags: HW
LayerCount: 2
Back
Fore
SplineSet
274 619 m 256
 274 599 292 583 314 583 c 256
 336 583 355 599 355 619 c 256
 355 639 336 655 314 655 c 256
 292 655 274 639 274 619 c 256
172 638 m 256
 172 702 230 739 312 739 c 256
 389 739 452 696 452 625 c 256
 452 601 445 579 428 560 c 257
 392 560 l 257
 405 572 420 597 420 624 c 256
 420 679 371 710 310 710 c 256
 257 710 204 688 204 638 c 256
 204 599 247 581 265 579 c 257
 257 585 246 599 246 620 c 256
 246 655 278 680 314 680 c 256
 355 680 382 653 382 618 c 256
 382 579 348 553 290 553 c 256
 231 553 172 582 172 638 c 256
EndSplineSet
Refer: 444 3488 N 1 0 0 1 0 0 2
EndChar

StartChar: si_Ch.halant
Encoding: 145 -1 34
GlifName: si_C_h.halant
Width: 598
VWidth: 0
GlyphClass: 2
Flags: HW
LayerCount: 2
Back
Fore
SplineSet
286 336 m 257
 286 756 l 257
 340 714 438 710 438 618 c 256
 438 574 403 544 360 544 c 256
 345 544 329 547 314 554 c 257
 314 400 l 257
 286 336 l 257
315 580 m 257
 323 575 334 573 347 573 c 256
 379 573 392 597 392 621 c 256
 392 662 361 682 315 712 c 257
 315 580 l 257
EndSplineSet
Refer: 445 3489 N 1 0 0 1 0 0 2
EndChar

StartChar: si_ChI
Encoding: 146 -1 35
GlifName: si_C_hI_
Width: 598
VWidth: 0
GlyphClass: 2
Flags: HW
LayerCount: 2
Back
Fore
SplineSet
233 490 m 256
 233 577 303 657 382 657 c 256
 429 657 461 626 461 583 c 256
 461 579 460 576 460 572 c 257
 430 544 l 257
 432 549 435 565 435 576 c 256
 435 600 424 609 406 609 c 256
 349 609 295 546 295 482 c 256
 295 450 309 431 340 431 c 256
 349 431 357 431 374 436 c 257
 370 425 l 257
 357 417 329 408 327 407 c 257
 326 407 324 407 323 407 c 256
 260 407 233 440 233 490 c 256
EndSplineSet
Refer: 445 3489 N 1 0 0 1 0 0 2
EndChar

StartChar: si_ChIi
Encoding: 147 -1 36
GlifName: si_C_hI_i
Width: 598
VWidth: 0
GlyphClass: 2
Flags: HW
LayerCount: 2
Back
Fore
SplineSet
339 579 m 256
 339 552 359 531 386 531 c 256
 413 531 434 552 434 579 c 256
 434 606 413 627 386 627 c 256
 359 627 339 606 339 579 c 256
233 490 m 256
 233 577 304 656 387 656 c 256
 432 656 464 619 464 579 c 256
 464 541 434 502 387 502 c 256
 339 502 315 543 315 558 c 256
 315 558 315 559 315 560 c 257
 304 541 295 516 295 488 c 256
 295 453 317 429 343 429 c 256
 352 429 363 431 372 436 c 257
 370 425 l 257
 357 417 329 408 327 407 c 257
 326 407 324 407 323 407 c 256
 260 407 233 440 233 490 c 256
EndSplineSet
Refer: 445 3489 N 1 0 0 1 0 0 2
EndChar

StartChar: si_ChU
Encoding: 148 -1 37
GlifName: si_C_hU_
Width: 598
VWidth: 0
GlyphClass: 2
Flags: HW
LayerCount: 2
Back
Fore
SplineSet
39 -142 m 256
 39 -90 85 -50 140 -50 c 256
 182 -50 219 -74 234 -110 c 257
 202 -122 l 257
 195 -105 173 -82 140 -82 c 256
 103 -82 74 -109 74 -142 c 256
 74 -171 96 -192 166 -192 c 258
 505 -192 l 257
 505 128 l 257
 540 207 l 257
 540 -235 l 257
 144 -235 l 258
 64 -235 39 -186 39 -142 c 256
EndSplineSet
Refer: 445 3489 N 1 0 0 1 0 0 2
EndChar

StartChar: si_ChUu
Encoding: 149 -1 38
GlifName: si_C_hU_u
Width: 598
VWidth: 0
GlyphClass: 2
Flags: HW
LayerCount: 2
Back
Fore
SplineSet
39 -138 m 256
 39 -80 88 -40 141 -40 c 256
 183 -40 215 -55 238 -91 c 257
 205 -102 l 257
 194 -85 175 -70 146 -70 c 256
 107 -70 82 -95 82 -120 c 256
 82 -152 111 -167 145 -167 c 256
 221 -167 276 -114 384 -114 c 256
 435 -114 479 -134 506 -166 c 257
 506 152 l 257
 541 212 l 257
 541 -231 l 257
 515 -231 l 257
 500 -195 457 -146 394 -146 c 256
 303 -146 248 -237 150 -237 c 256
 95 -237 39 -206 39 -138 c 256
EndSplineSet
Refer: 445 3489 N 1 0 0 1 0 0 2
EndChar

StartChar: si_D.halant
Encoding: 254 -1 39
GlifName: si_D_.halant
Width: 456
VWidth: 0
GlyphClass: 2
Flags: HW
LayerCount: 2
Back
Fore
SplineSet
263 413 m 257
 263 681 l 257
 317 639 414 634 414 542 c 256
 414 498 379 468 336 468 c 256
 321 468 306 471 291 478 c 257
 291 396 l 257
 263 413 l 257
291 504 m 257
 299 499 311 497 324 497 c 256
 356 497 369 521 369 545 c 256
 369 586 337 607 291 637 c 257
 291 504 l 257
EndSplineSet
Refer: 459 3503 N 1 0 0 1 0 0 2
EndChar

StartChar: si_DAa
Encoding: 255 -1 40
GlifName: si_D_A_a
Width: 456
VWidth: 0
GlyphClass: 2
Flags: HW
LayerCount: 2
Back
Fore
SplineSet
31 169 m 256
 31 274 104 317 223 317 c 258
 340 317 l 257
 330 363 301 390 268 390 c 256
 249 390 235 379 226 361 c 256
 216 339 199 333 179 333 c 256
 154 333 136 350 136 371 c 256
 136 407 177 433 232 433 c 256
 318 433 362 389 379 291 c 257
 317 291 l 258
 229 291 184 257 184 173 c 256
 184 89 236 44 286 44 c 256
 316 44 341 48 381 94 c 257
 412 75 l 257
 392 58 376 41 361 33 c 257
 364 34 362 34 366 34 c 256
 414 34 447 -18 447 -87 c 256
 447 -175 410 -212 342 -212 c 256
 293 -212 275 -187 275 -166 c 257
 310 -166 l 257
 310 -173 316 -176 324 -176 c 256
 348 -176 360 -151 360 -90 c 256
 360 -45 347 -17 328 -17 c 256
 310 -17 304 -29 304 -45 c 257
 272 -45 l 257
 272 -29 279 -8 290 2 c 257
 278 1 261 -1 234 -1 c 256
 103 -1 31 69 31 169 c 256
EndSplineSet
EndChar

StartChar: si_DAa.halant
Encoding: 264 -1 41
GlifName: si_D_A_a.halant
Width: 657
VWidth: 0
GlyphClass: 2
Flags: HW
LayerCount: 2
Back
Fore
SplineSet
115 169 m 256
 115 274 188 317 307 317 c 258
 424 317 l 257
 414 363 385 390 352 390 c 256
 333 390 319 379 310 361 c 256
 300 339 283 333 263 333 c 256
 238 333 220 350 220 371 c 256
 220 407 261 433 316 433 c 256
 402 433 446 389 463 291 c 257
 402 291 l 258
 314 291 268 257 268 173 c 256
 268 89 320 44 370 44 c 256
 400 44 425 48 465 94 c 257
 497 75 l 257
 477 58 460 41 445 33 c 257
 448 34 446 34 450 34 c 256
 498 34 531 -18 531 -87 c 256
 531 -175 494 -212 426 -212 c 256
 377 -212 359 -187 359 -166 c 257
 394 -166 l 257
 394 -173 400 -176 408 -176 c 256
 432 -176 444 -151 444 -90 c 256
 444 -45 431 -17 412 -17 c 256
 394 -17 388 -29 388 -45 c 257
 356 -45 l 257
 356 -29 363 -8 374 2 c 257
 362 1 345 -1 318 -1 c 256
 187 -1 115 69 115 169 c 256
502 -67 m 257
 502 681 l 257
 556 639 654 634 654 542 c 256
 654 498 619 468 576 468 c 256
 561 468 545 471 530 478 c 257
 530 -73 l 257
 502 -67 l 257
531 504 m 257
 539 499 550 497 563 497 c 256
 595 497 608 521 608 545 c 256
 608 586 577 607 531 637 c 257
 531 504 l 257
EndSplineSet
EndChar

StartChar: si_DAae
Encoding: 257 -1 42
GlifName: si_D_A_ae
Width: 461
VWidth: 0
GlyphClass: 2
Flags: HW
LayerCount: 2
Back
Fore
SplineSet
31 169 m 256
 31 274 104 317 223 317 c 258
 340 317 l 257
 330 363 301 390 268 390 c 256
 249 390 235 379 226 361 c 256
 216 339 199 333 179 333 c 256
 154 333 136 350 136 371 c 256
 136 407 177 433 232 433 c 256
 318 433 362 389 379 291 c 257
 317 291 l 258
 229 291 184 257 184 173 c 256
 184 89 236 44 286 44 c 256
 316 44 341 48 381 94 c 257
 407 75 l 257
 407 68 357 31 357 31 c 257
 426 31 l 257
 426 5 l 257
 364 -36 l 257
 424 -36 l 257
 424 -62 l 257
 412 -75 394 -92 394 -136 c 256
 394 -176 415 -200 432 -200 c 257
 432 -228 l 257
 429 -229 425 -230 421 -230 c 256
 365 -230 309 -189 309 -144 c 256
 309 -105 337 -75 368 -61 c 257
 312 -62 l 257
 312 -40 l 257
 335 -26 358 -10 382 4 c 257
 380 4 326 4 326 4 c 257
 309 -10 277 -54 277 -108 c 256
 277 -158 297 -194 315 -201 c 257
 315 -228 l 257
 311 -229 301 -230 296 -230 c 256
 234 -230 186 -198 186 -132 c 256
 186 -79 225 -41 272 1 c 257
 264 -1 261 -1 234 -1 c 256
 103 -1 31 69 31 169 c 256
EndSplineSet
EndChar

StartChar: si_DAe
Encoding: 256 -1 43
GlifName: si_D_A_e
Width: 456
VWidth: 0
GlyphClass: 2
Flags: HW
LayerCount: 2
Back
Fore
SplineSet
31 169 m 256
 31 274 104 317 223 317 c 258
 340 317 l 257
 330 363 301 390 268 390 c 256
 249 390 235 379 226 361 c 256
 216 339 199 333 179 333 c 256
 154 333 136 350 136 371 c 256
 136 407 177 433 232 433 c 256
 318 433 362 389 379 291 c 257
 317 291 l 258
 229 291 184 257 184 173 c 256
 184 89 236 44 286 44 c 256
 316 44 341 48 381 94 c 257
 407 75 l 257
 392 48 385 5 385 -60 c 256
 385 -128 409 -199 432 -199 c 257
 432 -228 l 257
 429 -229 425 -230 421 -230 c 256
 365 -230 308 -178 308 -105 c 256
 308 -50 329 -10 344 21 c 257
 316 4 277 -54 277 -108 c 256
 277 -158 289 -194 315 -201 c 257
 315 -228 l 257
 311 -229 301 -230 296 -230 c 256
 234 -230 186 -198 186 -132 c 256
 186 -79 225 -41 272 1 c 257
 264 -1 261 -1 234 -1 c 256
 103 -1 31 69 31 169 c 256
EndSplineSet
EndChar

StartChar: si_DDdh.halant
Encoding: 487 -1 44
GlifName: si_D_D_dh.halant
Width: 729
VWidth: 0
GlyphClass: 2
Flags: HW
LayerCount: 2
Back
Fore
SplineSet
236 536 m 256
 236 527 255 526 255 515 c 256
 255 513 254 510 252 508 c 257
 285 514 325 519 371 519 c 256
 477 519 562 492 620 424 c 257
 585 538 492 574 376 574 c 256
 309 574 236 560 236 536 c 256
125 195 m 256
 125 288 178 364 244 387 c 256
 265 394 288 398 313 398 c 257
 313 371 l 258
 310 371 306 371 303 371 c 256
 224 371 180 312 180 234 c 256
 180 198 207 140 280 140 c 256
 333 140 380 159 380 223 c 258
 380 249 l 257
 411 249 l 257
 411 223 l 258
 411 159 458 141 505 141 c 256
 588 141 618 218 618 296 c 256
 618 413 535 492 374 492 c 256
 298 492 215 480 134 448 c 257
 134 481 l 257
 166 490 216 501 216 508 c 256
 216 520 187 521 187 545 c 256
 187 583 255 629 370 629 c 256
 578 629 652 490 664 356 c 257
 673 331 680 289 680 247 c 256
 680 141 640 0 514 0 c 256
 465 0 425 20 395 59 c 257
 364 20 327 0 282 0 c 256
 180 0 125 96 125 195 c 256
27 212 m 256
 27 344 101 433 220 433 c 256
 246 433 289 427 313 398 c 257
 300 396 276 393 272 393 c 257
 267 399 248 404 224 404 c 256
 97 404 59 297 59 208 c 256
 59 131 86 75 135 34 c 257
 135 0 l 257
 69 33 27 111 27 212 c 256
EndSplineSet
EndChar

StartChar: si_DDhI
Encoding: 488 -1 45
GlifName: si_D_D_hI_
Width: 729
VWidth: 0
GlyphClass: 2
Flags: HW
LayerCount: 2
Back
Fore
SplineSet
27 212 m 256
 27 344 101 433 220 433 c 256
 246 433 289 427 313 398 c 257
 300 396 276 393 272 393 c 257
 267 399 248 404 224 404 c 256
 97 404 59 297 59 208 c 256
 59 131 86 75 135 34 c 257
 135 0 l 257
 69 33 27 111 27 212 c 256
EndSplineSet
Refer: 84 -1 N 1 0 0 1 92 0 2
EndChar

StartChar: si_DDhIi
Encoding: 489 -1 46
GlifName: si_D_D_hI_i
Width: 729
VWidth: 0
GlyphClass: 2
Flags: HW
LayerCount: 2
Back
Fore
SplineSet
27 212 m 256
 27 344 101 433 220 433 c 256
 246 433 289 427 313 398 c 257
 300 396 276 393 272 393 c 257
 267 399 248 404 224 404 c 256
 97 404 59 297 59 208 c 256
 59 131 86 75 135 34 c 257
 135 0 l 257
 69 33 27 111 27 212 c 256
EndSplineSet
Refer: 85 -1 N 1 0 0 1 92 0 2
EndChar

StartChar: si_DDhU
Encoding: 490 -1 47
GlifName: si_D_D_hU_
Width: 729
VWidth: 0
GlyphClass: 2
Flags: HW
LayerCount: 2
Back
Fore
SplineSet
144 -142 m 256
 144 -90 190 -50 245 -50 c 256
 287 -50 324 -74 339 -110 c 257
 306 -122 l 257
 299 -105 278 -82 245 -82 c 256
 208 -82 179 -109 179 -142 c 256
 179 -171 201 -192 271 -192 c 258
 632 -192 l 257
 632 128 l 257
 667 219 l 257
 667 -235 l 257
 249 -235 l 258
 169 -235 144 -186 144 -142 c 256
EndSplineSet
Refer: 49 -1 N 1 0 0 1 0 0 2
EndChar

StartChar: si_DDhUu
Encoding: 491 -1 48
GlifName: si_D_D_hU_u
Width: 729
VWidth: 0
GlyphClass: 2
Flags: HW
LayerCount: 2
Back
Fore
SplineSet
143 -138 m 256
 143 -80 192 -40 245 -40 c 256
 287 -40 319 -55 342 -91 c 257
 309 -102 l 257
 298 -85 279 -70 250 -70 c 256
 211 -70 186 -95 186 -120 c 256
 186 -152 215 -167 249 -167 c 256
 325 -167 400 -114 508 -114 c 256
 559 -114 605 -134 632 -166 c 257
 632 152 l 257
 667 212 l 257
 667 -231 l 257
 642 -231 l 257
 627 -195 581 -146 518 -146 c 256
 427 -146 352 -237 254 -237 c 256
 199 -237 143 -206 143 -138 c 256
EndSplineSet
Refer: 49 -1 N 1 0 0 1 0 0 2
EndChar

StartChar: si_DDha
Encoding: 438 -1 49
GlifName: si_D_D_ha
Width: 729
VWidth: 0
GlyphClass: 2
Flags: HW
LayerCount: 2
Back
Fore
SplineSet
27 212 m 256
 27 344 101 433 220 433 c 256
 246 433 289 427 313 398 c 257
 300 396 276 393 272 393 c 257
 267 399 248 404 224 404 c 256
 97 404 59 297 59 208 c 256
 59 131 86 75 135 34 c 257
 135 0 l 257
 69 33 27 111 27 212 c 256
EndSplineSet
Refer: 460 3504 N 1 0 0 1 93 0 2
EndChar

StartChar: si_DI
Encoding: 258 -1 50
GlifName: si_D_I_
Width: 456
VWidth: 0
GlyphClass: 2
Flags: HW
LayerCount: 2
Back
Fore
SplineSet
35 518 m 256
 35 619 126 671 223 671 c 256
 320 671 411 617 411 518 c 256
 411 443 347 406 295 405 c 257
 278 427 l 257
 334 427 354 459 354 488 c 256
 354 535 295 554 223 554 c 256
 151 554 90 537 90 488 c 256
 90 466 109 426 194 426 c 257
 151 405 l 257
 85 415 35 451 35 518 c 256
EndSplineSet
Refer: 459 3503 N 1 0 0 1 0 0 2
EndChar

StartChar: si_DIi
Encoding: 259 -1 51
GlifName: si_D_I_i
Width: 456
VWidth: 0
GlyphClass: 2
Flags: HW
LayerCount: 2
Back
Fore
SplineSet
249 492 m 256
 249 462 278 439 313 439 c 256
 348 439 376 462 376 492 c 256
 376 522 348 546 313 546 c 256
 278 546 249 522 249 492 c 256
35 518 m 256
 35 619 126 671 223 671 c 256
 320 671 412 620 412 511 c 256
 412 440 363 408 312 408 c 256
 252 408 215 449 215 494 c 256
 215 536 247 556 254 560 c 257
 247 561 239 561 224 561 c 256
 165 561 88 548 88 492 c 256
 88 464 109 427 194 427 c 257
 151 405 l 257
 85 415 35 451 35 518 c 256
EndSplineSet
Refer: 459 3503 N 1 0 0 1 0 0 2
EndChar

StartChar: si_DRI
Encoding: 267 -1 52
GlifName: si_D_R_I_
Width: 456
VWidth: 0
GlyphClass: 2
Flags: HW
LayerCount: 2
Back
Fore
SplineSet
35 518 m 256
 35 619 126 671 223 671 c 256
 320 671 411 617 411 518 c 256
 411 443 347 406 295 405 c 257
 278 427 l 257
 334 427 354 459 354 488 c 256
 354 535 295 554 223 554 c 256
 151 554 90 537 90 488 c 256
 90 466 109 426 194 426 c 257
 151 405 l 257
 85 415 35 451 35 518 c 256
34 -43 m 257
 61 -43 l 257
 88 -84 127 -103 204 -103 c 256
 294 -103 380 -38 380 51 c 256
 380 72 379 66 378 74 c 257
 407 79 l 257
 407 59 407 76 407 39 c 256
 407 -109 320 -204 215 -204 c 256
 110 -204 54 -145 34 -43 c 257
31 169 m 256
 31 274 104 317 223 317 c 258
 340 317 l 257
 330 363 301 390 268 390 c 256
 249 390 235 379 226 361 c 256
 216 339 199 333 179 333 c 256
 154 333 136 350 136 371 c 256
 136 407 177 433 232 433 c 256
 318 433 362 389 379 291 c 257
 317 291 l 258
 229 291 184 257 184 173 c 256
 184 89 236 44 286 44 c 256
 316 44 341 48 381 94 c 257
 407 79 l 257
 366 30 323 -1 234 -1 c 256
 103 -1 31 69 31 169 c 256
EndSplineSet
EndChar

StartChar: si_DRIi
Encoding: 268 -1 53
GlifName: si_D_R_I_i
Width: 456
VWidth: 0
GlyphClass: 2
Flags: HW
LayerCount: 2
Back
Fore
SplineSet
249 492 m 256
 249 462 278 439 313 439 c 256
 348 439 376 462 376 492 c 256
 376 522 348 546 313 546 c 256
 278 546 249 522 249 492 c 256
35 518 m 256
 35 619 126 671 223 671 c 256
 320 671 412 620 412 511 c 256
 412 440 363 408 312 408 c 256
 252 408 215 449 215 494 c 256
 215 536 247 556 254 560 c 257
 247 561 239 561 224 561 c 256
 165 561 88 548 88 492 c 256
 88 464 109 427 194 427 c 257
 151 405 l 257
 85 415 35 451 35 518 c 256
34 -43 m 257
 61 -43 l 257
 88 -84 127 -103 204 -103 c 256
 294 -103 380 -38 380 51 c 256
 380 72 379 66 378 74 c 257
 407 79 l 257
 407 59 407 76 407 39 c 256
 407 -109 320 -204 215 -204 c 256
 110 -204 54 -145 34 -43 c 257
31 169 m 256
 31 274 104 317 223 317 c 258
 340 317 l 257
 330 363 301 390 268 390 c 256
 249 390 235 379 226 361 c 256
 216 339 199 333 179 333 c 256
 154 333 136 350 136 371 c 256
 136 407 177 433 232 433 c 256
 318 433 362 389 379 291 c 257
 317 291 l 258
 229 291 184 257 184 173 c 256
 184 89 236 44 286 44 c 256
 316 44 341 48 381 94 c 257
 407 79 l 257
 366 30 323 -1 234 -1 c 256
 103 -1 31 69 31 169 c 256
EndSplineSet
EndChar

StartChar: si_DRa
Encoding: 266 -1 54
GlifName: si_D_R_a
Width: 456
VWidth: 0
GlyphClass: 2
Flags: HW
LayerCount: 2
Back
Fore
SplineSet
34 -43 m 257
 61 -43 l 257
 88 -84 127 -103 204 -103 c 256
 294 -103 380 -38 380 51 c 256
 380 72 379 66 378 74 c 257
 407 79 l 257
 407 59 407 76 407 39 c 256
 407 -109 320 -204 215 -204 c 256
 110 -204 54 -145 34 -43 c 257
31 169 m 256
 31 274 104 317 223 317 c 258
 340 317 l 257
 330 363 301 390 268 390 c 256
 249 390 235 379 226 361 c 256
 216 339 199 333 179 333 c 256
 154 333 136 350 136 371 c 256
 136 407 177 433 232 433 c 256
 318 433 362 389 379 291 c 257
 317 291 l 258
 229 291 184 257 184 173 c 256
 184 89 236 44 286 44 c 256
 316 44 341 48 381 94 c 257
 407 79 l 257
 366 30 323 -1 234 -1 c 256
 103 -1 31 69 31 169 c 256
EndSplineSet
EndChar

StartChar: si_DU
Encoding: 260 -1 55
GlifName: si_D_U_
Width: 456
VWidth: 0
GlyphClass: 2
Flags: HW
LayerCount: 2
Back
Fore
SplineSet
33 -142 m 256
 33 -90 79 -50 134 -50 c 256
 176 -50 213 -74 228 -110 c 257
 196 -122 l 257
 189 -105 167 -82 134 -82 c 256
 97 -82 68 -109 68 -142 c 256
 68 -171 90 -192 160 -192 c 258
 372 -192 l 257
 372 71 l 257
 407 79 l 257
 407 -235 l 257
 138 -235 l 258
 58 -235 33 -186 33 -142 c 256
31 169 m 256
 31 274 104 317 223 317 c 258
 340 317 l 257
 330 363 301 390 268 390 c 256
 249 390 235 379 226 361 c 256
 216 339 199 333 179 333 c 256
 154 333 136 350 136 371 c 256
 136 407 177 433 232 433 c 256
 318 433 362 389 379 291 c 257
 317 291 l 258
 229 291 184 257 184 173 c 256
 184 89 236 44 286 44 c 256
 316 44 341 48 381 94 c 257
 406 79 l 257
 369 31 323 -1 234 -1 c 256
 103 -1 31 69 31 169 c 256
EndSplineSet
EndChar

StartChar: si_DUu
Encoding: 261 -1 56
GlifName: si_D_U_u
Width: 456
VWidth: 0
GlyphClass: 2
Flags: HW
LayerCount: 2
Back
Fore
SplineSet
33 -138 m 256
 33 -80 82 -40 135 -40 c 256
 177 -40 209 -55 232 -91 c 257
 199 -102 l 257
 188 -85 169 -70 140 -70 c 256
 101 -70 76 -95 76 -120 c 256
 76 -152 105 -167 139 -167 c 256
 206 -167 227 -128 296 -128 c 256
 323 -128 352 -138 372 -157 c 257
 372 69 l 257
 407 79 l 257
 407 -233 l 257
 382 -231 l 257
 367 -195 340 -159 296 -159 c 256
 242 -159 222 -237 135 -237 c 256
 80 -237 33 -206 33 -138 c 256
31 169 m 256
 31 274 104 317 223 317 c 258
 340 317 l 257
 330 363 301 390 268 390 c 256
 249 390 235 379 226 361 c 256
 216 339 199 333 179 333 c 256
 154 333 136 350 136 371 c 256
 136 407 177 433 232 433 c 256
 318 433 362 389 379 291 c 257
 317 291 l 258
 229 291 184 257 184 173 c 256
 184 89 236 44 286 44 c 256
 316 44 341 48 381 94 c 257
 407 79 l 257
 366 30 323 -1 234 -1 c 256
 103 -1 31 69 31 169 c 256
EndSplineSet
EndChar

StartChar: si_DV.halant
Encoding: 492 -1 57
GlifName: si_D_V_.halant
Width: 688
VWidth: 0
GlyphClass: 2
Flags: HW
LayerCount: 2
Back
Fore
SplineSet
124 165 m 256
 124 250 189 304 290 304 c 258
 347 304 l 258
 347 306 347 306 347 308 c 256
 347 358 315 387 282 387 c 256
 248 387 238 371 232 355 c 256
 225 336 213 319 187 319 c 256
 164 319 147 333 147 359 c 256
 147 406 197 432 252 432 c 256
 340 432 383 376 383 290 c 256
 383 287 383 280 383 277 c 258
 302 277 l 258
 228 277 192 250 192 213 c 256
 192 151 287 140 361 140 c 256
 513 140 576 211 575 316 c 256
 574 427 498 492 350 492 c 256
 274 492 211 478 130 440 c 257
 130 473 l 257
 162 485 212 499 212 508 c 256
 212 520 184 520 184 546 c 256
 184 583 250 629 356 629 c 256
 559 629 619 490 631 356 c 256
 637 328 639 305 639 274 c 256
 639 114 541 0 358 0 c 256
 237 0 124 46 124 165 c 256
232 538 m 256
 232 526 251 526 251 515 c 256
 251 513 250 510 248 508 c 257
 280 515 307 519 353 519 c 256
 461 519 532 489 587 425 c 257
 554 536 474 574 358 574 c 256
 286 574 232 558 232 538 c 256
27 221 m 256
 27 353 100 433 239 433 c 256
 248 433 271 433 293 427 c 257
 272 416 195 404 178 398 c 257
 106 381 59 319 59 218 c 256
 59 137 86 78 135 34 c 257
 135 0 l 257
 69 33 27 120 27 221 c 256
EndSplineSet
EndChar

StartChar: si_DVI
Encoding: 493 -1 58
GlifName: si_D_V_I_
Width: 688
VWidth: 0
GlyphClass: 2
Flags: HW
LayerCount: 2
Back
Fore
SplineSet
138 562 m 256
 138 652 264 670 364 670 c 256
 500 670 609 639 609 554 c 256
 609 502 555 480 521 474 c 257
 471 490 l 257
 507 491 534 505 534 527 c 256
 534 564 472 581 364 581 c 256
 288 581 199 573 199 538 c 256
 199 511 240 508 342 504 c 256
 407 501 500 499 555 459 c 256
 604 423 640 358 640 269 c 257
 576 320 l 257
 576 334 575 381 548 416 c 256
 506 471 444 470 343 476 c 256
 254 481 138 476 138 562 c 256
125 165 m 256
 125 250 190 304 291 304 c 258
 348 304 l 257
 348 306 348 306 348 308 c 256
 348 358 316 387 283 387 c 256
 249 387 238 371 232 355 c 256
 225 336 214 319 188 319 c 256
 165 319 148 333 148 359 c 256
 148 406 198 432 253 432 c 256
 341 432 384 376 384 290 c 256
 384 287 384 280 384 277 c 257
 303 277 l 258
 229 277 193 250 193 213 c 256
 193 151 288 140 362 140 c 256
 515 140 576 214 576 326 c 257
 594 310 618 291 640 274 c 257
 640 114 542 0 359 0 c 256
 238 0 125 46 125 165 c 256
27 221 m 256
 27 353 100 433 239 433 c 256
 248 433 271 433 293 427 c 257
 272 416 195 404 178 398 c 257
 106 381 59 319 59 218 c 256
 59 137 86 78 135 34 c 257
 135 0 l 257
 69 33 27 120 27 221 c 256
EndSplineSet
EndChar

StartChar: si_DVIi
Encoding: 494 -1 59
GlifName: si_D_V_I_i
Width: 688
VWidth: 0
GlyphClass: 2
Flags: HW
LayerCount: 2
Back
Fore
SplineSet
458 539 m 256
 458 509 485 485 517 485 c 256
 549 485 576 509 576 539 c 256
 576 569 549 592 517 592 c 256
 485 592 458 569 458 539 c 256
139 562 m 256
 139 652 263 670 363 670 c 256
 499 670 609 640 609 542 c 256
 609 489 561 458 517 458 c 256
 473 458 425 489 425 542 c 256
 425 566 435 579 439 584 c 257
 431 586 397 588 361 588 c 256
 285 588 194 580 194 540 c 256
 194 511 239 508 341 504 c 256
 406 501 500 499 555 459 c 256
 604 423 640 359 640 269 c 257
 576 322 l 257
 576 347 573 385 547 416 c 256
 503 469 443 470 342 476 c 256
 253 481 139 476 139 562 c 256
125 165 m 256
 125 250 190 304 291 304 c 258
 348 304 l 257
 348 306 348 306 348 308 c 256
 348 358 316 387 283 387 c 256
 249 387 238 371 232 355 c 256
 225 336 214 319 188 319 c 256
 165 319 148 333 148 359 c 256
 148 406 198 432 253 432 c 256
 341 432 384 376 384 290 c 256
 384 287 384 280 384 277 c 257
 303 277 l 258
 229 277 193 250 193 213 c 256
 193 151 288 140 362 140 c 256
 515 140 576 214 576 326 c 257
 594 310 618 291 640 274 c 257
 640 114 542 0 359 0 c 256
 238 0 125 46 125 165 c 256
27 221 m 256
 27 353 100 433 239 433 c 256
 248 433 271 433 293 427 c 257
 272 416 195 404 178 398 c 257
 106 381 59 319 59 218 c 256
 59 137 86 78 135 34 c 257
 135 0 l 257
 69 33 27 120 27 221 c 256
EndSplineSet
EndChar

StartChar: si_DVU
Encoding: 495 -1 60
GlifName: si_D_V_U_
Width: 688
VWidth: 0
GlyphClass: 2
Flags: HW
LayerCount: 2
Back
Fore
SplineSet
136 -142 m 256
 136 -90 183 -50 238 -50 c 256
 280 -50 317 -74 332 -110 c 257
 299 -122 l 257
 292 -105 271 -82 238 -82 c 256
 201 -82 172 -109 172 -142 c 256
 172 -171 193 -192 263 -192 c 258
 595 -192 l 257
 595 128 l 257
 630 219 l 257
 630 -235 l 257
 242 -235 l 258
 162 -235 136 -186 136 -142 c 256
125 165 m 256
 125 250 190 304 291 304 c 258
 348 304 l 257
 348 306 348 306 348 308 c 256
 348 358 316 387 283 387 c 256
 249 387 238 371 232 355 c 256
 225 336 214 319 188 319 c 256
 165 319 148 333 148 359 c 256
 148 406 198 432 253 432 c 256
 341 432 384 376 384 290 c 256
 384 287 384 280 384 277 c 257
 303 277 l 258
 229 277 193 250 193 213 c 256
 193 151 288 140 362 140 c 256
 515 140 583 211 583 317 c 256
 583 436 502 551 368 551 c 256
 289 551 228 522 184 470 c 257
 149 470 l 257
 198 540 270 577 368 577 c 256
 528 577 640 443 640 274 c 256
 640 114 542 0 359 0 c 256
 238 0 125 46 125 165 c 256
27 221 m 256
 27 353 100 433 239 433 c 256
 248 433 271 433 293 427 c 257
 272 416 195 404 178 398 c 257
 106 381 59 319 59 218 c 256
 59 137 86 78 135 34 c 257
 135 0 l 257
 69 33 27 120 27 221 c 256
EndSplineSet
EndChar

StartChar: si_DVUu
Encoding: 496 -1 61
GlifName: si_D_V_U_u
Width: 688
VWidth: 0
GlyphClass: 2
Flags: HW
LayerCount: 2
Back
Fore
SplineSet
138 -138 m 256
 138 -80 187 -40 240 -40 c 256
 282 -40 314 -55 337 -91 c 257
 304 -102 l 257
 293 -85 274 -70 245 -70 c 256
 206 -70 181 -95 181 -120 c 256
 181 -152 210 -167 244 -167 c 256
 320 -167 376 -114 476 -114 c 256
 523 -114 568 -134 595 -166 c 257
 595 152 l 257
 630 212 l 257
 630 -231 l 257
 604 -231 l 257
 589 -195 549 -146 486 -146 c 256
 395 -146 347 -237 249 -237 c 256
 194 -237 138 -206 138 -138 c 256
125 165 m 256
 125 250 190 304 291 304 c 258
 348 304 l 257
 348 306 348 306 348 308 c 256
 348 358 316 387 283 387 c 256
 249 387 238 371 232 355 c 256
 225 336 214 319 188 319 c 256
 165 319 148 333 148 359 c 256
 148 406 198 432 253 432 c 256
 341 432 384 376 384 290 c 256
 384 287 384 280 384 277 c 257
 303 277 l 258
 229 277 193 250 193 213 c 256
 193 151 288 140 362 140 c 256
 515 140 583 211 583 317 c 256
 583 436 502 551 368 551 c 256
 289 551 228 522 184 470 c 257
 149 470 l 257
 198 540 270 577 368 577 c 256
 528 577 640 443 640 274 c 256
 640 114 542 0 359 0 c 256
 238 0 125 46 125 165 c 256
27 221 m 256
 27 353 100 433 239 433 c 256
 248 433 271 433 293 427 c 257
 272 416 195 404 178 398 c 257
 106 381 59 319 59 218 c 256
 59 137 86 78 135 34 c 257
 135 0 l 257
 69 33 27 120 27 221 c 256
EndSplineSet
EndChar

StartChar: si_DVa
Encoding: 439 -1 62
GlifName: si_D_V_a
Width: 688
VWidth: 0
GlyphClass: 2
Flags: HW
LayerCount: 2
Back
Fore
SplineSet
125 165 m 256
 125 250 190 304 291 304 c 258
 348 304 l 257
 348 306 348 306 348 308 c 256
 348 358 316 387 283 387 c 256
 249 387 238 371 232 355 c 256
 225 336 214 319 188 319 c 256
 165 319 148 333 148 359 c 256
 148 406 198 432 253 432 c 256
 341 432 384 376 384 290 c 256
 384 287 384 280 384 277 c 257
 303 277 l 258
 229 277 193 250 193 213 c 256
 193 151 288 140 362 140 c 256
 515 140 583 211 583 317 c 256
 583 436 502 551 368 551 c 256
 289 551 228 522 184 470 c 257
 149 470 l 257
 198 540 270 577 368 577 c 256
 528 577 640 443 640 274 c 256
 640 114 542 0 359 0 c 256
 238 0 125 46 125 165 c 256
27 221 m 256
 27 353 100 433 239 433 c 256
 248 433 271 433 293 427 c 257
 272 416 195 404 178 398 c 257
 106 381 59 319 59 218 c 256
 59 137 86 78 135 34 c 257
 135 0 l 257
 69 33 27 120 27 221 c 256
EndSplineSet
EndChar

StartChar: si_DYAa.post
Encoding: 270 -1 63
GlifName: si_D_Y_A_a.post
Width: 787
VWidth: 0
GlyphClass: 2
Flags: HW
LayerCount: 2
Back
Fore
SplineSet
592 -31 m 257
 622 -31 l 257
 622 -7 634 9 649 9 c 256
 670 9 679 -29 679 -74 c 256
 679 -135 672 -166 645 -166 c 256
 632 -166 626 -156 626 -146 c 257
 597 -146 l 257
 597 -167 607 -198 663 -198 c 256
 722 -198 762 -161 762 -73 c 256
 762 -4 728 48 674 48 c 256
 615 48 592 7 592 -31 c 257
340 46 m 257
 349 48 354 50 364 50 c 256
 389 50 424 10 424 -42 c 256
 424 -77 417 -94 412 -106 c 257
 432 -114 447 -116 469 -116 c 256
 506 -116 521 -96 521 -80 c 256
 521 -52 496 -48 478 -44 c 256
 465 -41 440 -29 440 -1 c 256
 440 38 472 54 508 54 c 256
 543 54 571 34 571 -1 c 256
 571 -5 571 -9 570 -13 c 257
 541 -13 l 257
 542 -9 542 -6 542 -2 c 256
 542 12 534 27 508 27 c 256
 493 27 470 22 470 0 c 256
 470 -19 485 -22 508 -22 c 256
 543 -22 593 -46 593 -107 c 256
 593 -166 540 -205 488 -205 c 256
 441 -205 412 -193 383 -156 c 257
 364 -177 338 -197 312 -205 c 257
 294 -180 l 257
 343 -163 394 -117 394 -44 c 256
 394 -10 371 26 350 26 c 256
 341 26 335 24 328 23 c 257
 340 46 l 257
234 -1 m 256
 103 -1 31 69 31 169 c 256
 31 274 104 317 223 317 c 258
 340 317 l 257
 330 363 301 390 268 390 c 256
 249 390 235 379 226 361 c 256
 216 339 199 333 179 333 c 256
 154 333 136 350 136 371 c 256
 136 407 177 433 232 433 c 256
 318 433 362 389 379 291 c 257
 317 291 l 258
 229 291 184 257 184 173 c 256
 184 89 236 44 286 44 c 256
 316 44 341 48 381 94 c 257
 412 75 l 257
 365 29 326 -1 234 -1 c 256
EndSplineSet
EndChar

StartChar: si_DYOo.post
Encoding: 273 -1 64
GlifName: si_D_Y_O_o.post
Width: 895
VWidth: 0
GlyphClass: 2
Flags: HW
LayerCount: 2
Back
Fore
SplineSet
730 -67 m 257
 730 681 l 257
 784 639 881 634 881 542 c 256
 881 498 846 468 803 468 c 256
 788 468 773 471 758 478 c 257
 758 -73 l 257
 730 -67 l 257
758 637 m 257
 758 504 l 257
 766 499 777 497 790 497 c 256
 822 497 836 521 836 545 c 256
 836 586 804 607 758 637 c 257
592 -31 m 257
 592 7 615 48 674 48 c 256
 728 48 762 -4 762 -73 c 256
 762 -161 722 -198 663 -198 c 256
 607 -198 597 -167 597 -146 c 257
 626 -146 l 257
 626 -156 632 -166 645 -166 c 256
 672 -166 679 -135 679 -74 c 256
 679 -29 670 9 649 9 c 256
 634 9 622 -7 622 -31 c 257
 592 -31 l 257
340 46 m 257
 349 48 354 50 364 50 c 256
 389 50 424 10 424 -42 c 256
 424 -77 417 -94 412 -106 c 257
 432 -114 447 -116 469 -116 c 256
 506 -116 521 -96 521 -80 c 256
 521 -52 496 -48 478 -44 c 256
 465 -41 440 -29 440 -1 c 256
 440 38 472 54 508 54 c 256
 543 54 571 34 571 -1 c 256
 571 -5 571 -9 570 -13 c 257
 541 -13 l 257
 542 -9 542 -6 542 -2 c 256
 542 12 534 27 508 27 c 256
 493 27 470 22 470 0 c 256
 470 -19 485 -22 508 -22 c 256
 543 -22 593 -46 593 -107 c 256
 593 -166 540 -205 488 -205 c 256
 441 -205 412 -193 383 -156 c 257
 364 -177 338 -197 312 -205 c 257
 294 -180 l 257
 343 -163 394 -117 394 -44 c 256
 394 -10 371 26 350 26 c 256
 341 26 335 24 328 23 c 257
 340 46 l 257
234 -1 m 256
 103 -1 31 69 31 169 c 256
 31 274 104 317 223 317 c 258
 340 317 l 257
 330 363 301 390 268 390 c 256
 249 390 235 379 226 361 c 256
 216 339 199 333 179 333 c 256
 154 333 136 350 136 371 c 256
 136 407 177 433 232 433 c 256
 318 433 362 389 379 291 c 257
 317 291 l 258
 229 291 184 257 184 173 c 256
 184 89 236 44 286 44 c 256
 316 44 341 48 381 94 c 257
 412 75 l 257
 365 29 326 -1 234 -1 c 256
EndSplineSet
EndChar

StartChar: si_DYUu.post
Encoding: 272 -1 65
GlifName: si_D_Y_U_u.post
Width: 614
VWidth: 0
GlyphClass: 2
Flags: HW
LayerCount: 2
Back
Fore
SplineSet
340 46 m 257
 349 48 354 50 364 50 c 256
 389 50 424 10 424 -42 c 256
 424 -77 417 -94 412 -106 c 257
 432 -114 447 -116 469 -116 c 256
 506 -116 521 -96 521 -80 c 256
 521 -52 496 -48 478 -44 c 256
 465 -41 440 -29 440 -1 c 256
 440 38 472 54 508 54 c 256
 543 54 571 34 571 -1 c 256
 571 -5 571 -9 570 -13 c 257
 541 -13 l 257
 542 -9 542 -6 542 -2 c 256
 542 12 534 27 508 27 c 256
 493 27 470 22 470 0 c 256
 470 -19 485 -22 508 -22 c 256
 543 -22 593 -46 593 -107 c 256
 593 -166 540 -205 488 -205 c 256
 441 -205 412 -193 383 -156 c 257
 364 -177 338 -197 312 -205 c 257
 294 -180 l 257
 343 -163 394 -117 394 -44 c 256
 394 -10 371 26 350 26 c 256
 341 26 335 24 328 23 c 257
 340 46 l 257
234 -1 m 256
 103 -1 31 69 31 169 c 256
 31 274 104 317 223 317 c 258
 340 317 l 257
 330 363 301 390 268 390 c 256
 249 390 235 379 226 361 c 256
 216 339 199 333 179 333 c 256
 154 333 136 350 136 371 c 256
 136 407 177 433 232 433 c 256
 318 433 362 389 379 291 c 257
 317 291 l 258
 229 291 184 257 184 173 c 256
 184 89 236 44 286 44 c 256
 316 44 341 48 381 94 c 257
 412 75 l 257
 365 29 326 -1 234 -1 c 256
586 -139 m 257
 586 -344 l 257
 586 -344 570 -344 562 -343 c 257
 554 -327 533 -314 500 -314 c 256
 453 -314 432 -348 377 -348 c 256
 338 -348 307 -323 307 -282 c 256
 307 -244 334 -220 373 -220 c 256
 404 -220 421 -235 431 -257 c 257
 406 -270 l 257
 399 -255 387 -246 371 -246 c 256
 350 -246 338 -260 338 -272 c 256
 338 -293 361 -300 387 -300 c 256
 437 -300 454 -286 504 -286 c 256
 542 -286 556 -302 556 -302 c 257
 556 -176 l 257
 586 -139 l 257
EndSplineSet
EndChar

StartChar: si_DYa.post
Encoding: 269 -1 66
GlifName: si_D_Y_a.post
Width: 614
VWidth: 0
GlyphClass: 2
Flags: HW
LayerCount: 2
Back
Fore
SplineSet
340 46 m 257
 349 48 354 50 364 50 c 256
 389 50 424 10 424 -42 c 256
 424 -77 417 -94 412 -106 c 257
 432 -114 447 -116 469 -116 c 256
 506 -116 521 -96 521 -80 c 256
 521 -52 496 -48 478 -44 c 256
 465 -41 440 -29 440 -1 c 256
 440 38 472 54 508 54 c 256
 543 54 571 34 571 -1 c 256
 571 -5 571 -9 570 -13 c 257
 541 -13 l 257
 542 -9 542 -6 542 -2 c 256
 542 12 534 27 508 27 c 256
 493 27 470 22 470 0 c 256
 470 -19 485 -22 508 -22 c 256
 543 -22 593 -46 593 -107 c 256
 593 -166 540 -205 488 -205 c 256
 441 -205 412 -193 383 -156 c 257
 364 -177 338 -197 312 -205 c 257
 294 -180 l 257
 343 -163 394 -117 394 -44 c 256
 394 -10 371 26 350 26 c 256
 341 26 335 24 328 23 c 257
 340 46 l 257
234 -1 m 256
 103 -1 31 69 31 169 c 256
 31 274 104 317 223 317 c 258
 340 317 l 257
 330 363 301 390 268 390 c 256
 249 390 235 379 226 361 c 256
 216 339 199 333 179 333 c 256
 154 333 136 350 136 371 c 256
 136 407 177 433 232 433 c 256
 318 433 362 389 379 291 c 257
 317 291 l 258
 229 291 184 257 184 173 c 256
 184 89 236 44 286 44 c 256
 316 44 341 48 381 94 c 257
 412 75 l 257
 365 29 326 -1 234 -1 c 256
EndSplineSet
EndChar

StartChar: si_DYu.post
Encoding: 271 -1 67
GlifName: si_D_Y_u.post
Width: 614
VWidth: 0
GlyphClass: 2
Flags: HW
LayerCount: 2
Back
Fore
SplineSet
340 46 m 257
 349 48 354 50 364 50 c 256
 389 50 424 10 424 -42 c 256
 424 -77 417 -94 412 -106 c 257
 432 -114 447 -116 469 -116 c 256
 506 -116 521 -96 521 -80 c 256
 521 -52 496 -48 478 -44 c 256
 465 -41 440 -29 440 -1 c 256
 440 38 472 54 508 54 c 256
 543 54 571 34 571 -1 c 256
 571 -5 571 -9 570 -13 c 257
 541 -13 l 257
 542 -9 542 -6 542 -2 c 256
 542 12 534 27 508 27 c 256
 493 27 470 22 470 0 c 256
 470 -19 485 -22 508 -22 c 256
 543 -22 593 -46 593 -107 c 256
 593 -166 540 -205 488 -205 c 256
 441 -205 412 -193 383 -156 c 257
 364 -177 338 -197 312 -205 c 257
 294 -180 l 257
 343 -163 394 -117 394 -44 c 256
 394 -10 371 26 350 26 c 256
 341 26 335 24 328 23 c 257
 340 46 l 257
234 -1 m 256
 103 -1 31 69 31 169 c 256
 31 274 104 317 223 317 c 258
 340 317 l 257
 330 363 301 390 268 390 c 256
 249 390 235 379 226 361 c 256
 216 339 199 333 179 333 c 256
 154 333 136 350 136 371 c 256
 136 407 177 433 232 433 c 256
 318 433 362 389 379 291 c 257
 317 291 l 258
 229 291 184 257 184 173 c 256
 184 89 236 44 286 44 c 256
 316 44 341 48 381 94 c 257
 412 75 l 257
 365 29 326 -1 234 -1 c 256
586 -139 m 257
 586 -348 l 257
 389 -348 l 258
 334 -348 307 -318 307 -280 c 256
 307 -245 334 -220 373 -220 c 256
 404 -220 421 -235 431 -257 c 257
 406 -268 l 257
 398 -254 388 -246 372 -246 c 256
 351 -246 339 -260 339 -273 c 256
 339 -294 355 -306 402 -306 c 258
 555 -306 l 257
 555 -176 l 257
 586 -139 l 257
EndSplineSet
EndChar

StartChar: si_Da.reph
Encoding: 265 -1 68
GlifName: si_D_a.reph
Width: 456
VWidth: 0
GlyphClass: 2
Flags: HW
LayerCount: 2
Back
Fore
SplineSet
199 511 m 256
 199 491 218 475 240 475 c 256
 262 475 280 491 280 511 c 256
 280 531 262 547 240 547 c 256
 218 547 199 531 199 511 c 256
96 530 m 256
 96 594 154 631 236 631 c 256
 313 631 378 588 378 517 c 256
 378 493 369 471 352 452 c 257
 317 452 l 257
 330 464 346 489 346 516 c 256
 346 571 297 602 236 602 c 256
 183 602 129 580 129 530 c 256
 129 491 172 473 190 471 c 257
 182 477 172 491 172 512 c 256
 172 547 202 572 238 572 c 256
 279 572 308 545 308 510 c 256
 308 471 272 445 214 445 c 256
 155 445 96 474 96 530 c 256
EndSplineSet
Refer: 459 3503 N 1 0 0 1 0 0 2
EndChar

StartChar: si_Dd.halant
Encoding: 214 -1 69
GlifName: si_D_d.halant
Width: 647
VWidth: 0
GlyphClass: 2
Flags: HW
LayerCount: 2
Back
Fore
SplineSet
152 538 m 256
 152 526 171 526 171 515 c 256
 171 513 170 510 168 508 c 257
 201 514 241 519 287 519 c 256
 395 519 481 489 536 425 c 257
 503 536 408 574 292 574 c 256
 220 574 152 558 152 538 c 256
50 440 m 257
 50 473 l 257
 82 485 132 499 132 508 c 256
 132 520 104 520 104 546 c 256
 104 583 171 629 286 629 c 256
 494 629 568 490 580 356 c 257
 592 331 598 288 598 256 c 257
 539 290 l 257
 539 298 539 294 539 298 c 256
 539 408 453 492 284 492 c 256
 208 492 131 478 50 440 c 257
15 285 m 257
 15 315 l 257
 258 315 l 257
 256 350 231 388 197 388 c 256
 188 388 169 387 154 360 c 256
 144 342 129 335 113 335 c 256
 89 335 73 351 73 373 c 256
 73 413 121 432 163 432 c 256
 242 432 295 384 295 285 c 257
 224 285 l 258
 131 285 109 234 109 210 c 256
 109 164 150 140 203 140 c 256
 267 140 297 161 297 200 c 258
 297 221 l 257
 328 221 l 257
 328 200 l 258
 328 164 353 140 414 140 c 256
 489 140 539 200 539 293 c 257
 558 284 576 267 598 258 c 257
 598 110 547 0 428 -0 c 256
 363 0 335 29 313 59 c 257
 283 22 250 0 199 0 c 256
 98 0 46 81 46 162 c 256
 46 212 71 261 125 285 c 257
 15 285 l 257
EndSplineSet
EndChar

StartChar: si_DdI
Encoding: 215 -1 70
GlifName: si_D_dI_
Width: 647
VWidth: 0
GlyphClass: 2
Flags: HW
LayerCount: 2
Back
Fore
SplineSet
79 562 m 256
 79 652 215 670 315 670 c 256
 451 670 566 639 566 554 c 256
 566 502 512 480 478 474 c 257
 428 490 l 257
 464 491 491 505 491 527 c 256
 491 564 423 581 315 581 c 256
 239 581 138 573 138 538 c 256
 138 511 191 508 293 504 c 256
 358 501 457 499 512 459 c 256
 561 423 598 345 598 256 c 257
 540 294 l 257
 540 336 535 378 508 413 c 256
 466 468 395 470 294 476 c 256
 205 481 79 476 79 562 c 256
15 285 m 257
 15 315 l 257
 258 315 l 257
 256 350 231 388 197 388 c 256
 188 388 169 387 154 360 c 256
 144 342 129 335 113 335 c 256
 89 335 73 351 73 373 c 256
 73 413 121 432 163 432 c 256
 242 432 295 384 295 285 c 257
 224 285 l 258
 131 285 109 234 109 210 c 256
 109 164 150 140 203 140 c 256
 267 140 297 161 297 200 c 258
 297 221 l 257
 328 221 l 257
 328 200 l 258
 328 164 353 140 414 140 c 256
 489 140 541 198 541 298 c 257
 560 289 576 267 598 258 c 257
 598 110 547 0 428 -0 c 256
 363 0 335 29 313 59 c 257
 283 22 250 0 199 0 c 256
 98 0 46 81 46 162 c 256
 46 212 71 261 125 285 c 257
 15 285 l 257
EndSplineSet
EndChar

StartChar: si_DdIi
Encoding: 216 -1 71
GlifName: si_D_dI_i
Width: 647
VWidth: 0
GlyphClass: 2
Flags: HW
LayerCount: 2
Back
Fore
SplineSet
415 539 m 256
 415 509 442 485 474 485 c 256
 506 485 534 509 534 539 c 256
 534 569 506 592 474 592 c 256
 442 592 415 569 415 539 c 256
80 562 m 256
 80 652 216 670 316 670 c 256
 452 670 566 640 566 542 c 256
 566 489 518 458 474 458 c 256
 430 458 382 489 382 542 c 256
 382 566 392 579 396 584 c 257
 388 586 350 588 314 588 c 256
 238 588 134 580 134 540 c 256
 134 511 192 508 294 504 c 256
 359 501 457 499 512 459 c 256
 561 423 598 354 598 256 c 257
 541 295 l 257
 541 348 532 383 504 416 c 256
 460 469 396 470 295 476 c 256
 206 481 80 476 80 562 c 256
15 285 m 257
 15 315 l 257
 258 315 l 257
 256 350 231 388 197 388 c 256
 188 388 169 387 154 360 c 256
 144 342 129 335 113 335 c 256
 89 335 73 351 73 373 c 256
 73 413 121 432 163 432 c 256
 242 432 295 384 295 285 c 257
 224 285 l 258
 131 285 109 234 109 210 c 256
 109 164 150 140 203 140 c 256
 267 140 297 161 297 200 c 258
 297 221 l 257
 328 221 l 257
 328 200 l 258
 328 164 353 140 414 140 c 256
 489 140 541 198 541 298 c 257
 560 289 576 267 598 258 c 257
 598 110 547 0 428 -0 c 256
 363 0 335 29 313 59 c 257
 283 22 250 0 199 0 c 256
 98 0 46 81 46 162 c 256
 46 212 71 261 125 285 c 257
 15 285 l 257
EndSplineSet
EndChar

StartChar: si_DdRI
Encoding: 221 -1 72
GlifName: si_D_dR_I_
Width: 647
VWidth: 0
GlyphClass: 2
Flags: HW
LayerCount: 2
Back
Fore
SplineSet
56 -44 m 257
 85 -44 l 257
 122 -87 190 -114 295 -114 c 256
 438 -114 549 -31 549 63 c 256
 549 78 547 90 542 102 c 257
 555 133 l 257
 573 106 582 75 582 38 c 256
 582 -124 454 -219 310 -219 c 256
 177 -219 93 -153 56 -44 c 257
EndSplineSet
Refer: 70 -1 N 1 0 0 1 0 0 2
EndChar

StartChar: si_DdRIi
Encoding: 222 -1 73
GlifName: si_D_dR_I_i
Width: 647
VWidth: 0
GlyphClass: 2
Flags: HW
LayerCount: 2
Back
Fore
SplineSet
56 -44 m 257
 85 -44 l 257
 122 -87 190 -114 295 -114 c 256
 438 -114 549 -31 549 63 c 256
 549 78 547 90 542 102 c 257
 555 133 l 257
 573 106 582 75 582 38 c 256
 582 -124 454 -219 310 -219 c 256
 177 -219 93 -153 56 -44 c 257
EndSplineSet
Refer: 71 -1 N 1 0 0 1 0 0 2
EndChar

StartChar: si_DdRa
Encoding: 220 -1 74
GlifName: si_D_dR_a
Width: 647
VWidth: 0
GlyphClass: 2
Flags: HW
LayerCount: 2
Back
Fore
SplineSet
56 -44 m 257
 85 -44 l 257
 122 -87 190 -114 295 -114 c 256
 438 -114 549 -31 549 63 c 256
 549 78 547 90 542 102 c 257
 555 133 l 257
 573 106 582 75 582 38 c 256
 582 -124 454 -219 310 -219 c 256
 177 -219 93 -153 56 -44 c 257
EndSplineSet
Refer: 453 3497 N 1 0 0 1 0 0 2
EndChar

StartChar: si_DdU
Encoding: 217 -1 75
GlifName: si_D_dU_
Width: 647
VWidth: 0
GlyphClass: 2
Flags: HW
LayerCount: 2
Back
Fore
SplineSet
52 -142 m 256
 52 -90 98 -50 153 -50 c 256
 195 -50 232 -74 247 -110 c 257
 214 -122 l 257
 207 -105 186 -82 153 -82 c 256
 116 -82 87 -109 87 -142 c 256
 87 -171 108 -192 178 -192 c 258
 550 -192 l 257
 550 128 l 257
 585 219 l 257
 585 -235 l 257
 157 -235 l 258
 77 -235 52 -186 52 -142 c 256
EndSplineSet
Refer: 453 3497 N 1 0 0 1 0 0 2
EndChar

StartChar: si_DdUu
Encoding: 218 -1 76
GlifName: si_D_dU_u
Width: 647
VWidth: 0
GlyphClass: 2
Flags: HW
LayerCount: 2
Back
Fore
SplineSet
51 -138 m 256
 51 -80 100 -40 153 -40 c 256
 195 -40 227 -55 250 -91 c 257
 217 -102 l 257
 206 -85 187 -70 158 -70 c 256
 119 -70 94 -95 94 -120 c 256
 94 -152 123 -167 157 -167 c 256
 233 -167 319 -114 427 -114 c 256
 478 -114 524 -134 551 -166 c 257
 551 152 l 257
 586 212 l 257
 586 -231 l 257
 560 -231 l 257
 545 -195 500 -146 437 -146 c 256
 346 -146 260 -237 162 -237 c 256
 107 -237 51 -206 51 -138 c 256
EndSplineSet
Refer: 453 3497 N 1 0 0 1 0 0 2
EndChar

StartChar: si_Dda.reph
Encoding: 219 -1 77
GlifName: si_D_da.reph
Width: 647
VWidth: 0
GlyphClass: 2
Flags: HW
LayerCount: 2
Back
Fore
SplineSet
278 622 m 256
 278 602 296 586 318 586 c 256
 340 586 358 602 358 622 c 256
 358 642 340 658 318 658 c 256
 296 658 278 642 278 622 c 256
175 641 m 256
 175 705 233 742 315 742 c 256
 392 742 456 699 456 628 c 256
 456 604 448 582 431 563 c 257
 396 563 l 257
 409 575 424 600 424 627 c 256
 424 682 375 714 314 714 c 256
 261 714 208 691 208 641 c 256
 208 602 251 584 269 582 c 257
 261 588 250 602 250 623 c 256
 250 658 281 683 317 683 c 256
 358 683 386 656 386 621 c 256
 386 582 351 556 293 556 c 256
 234 556 175 585 175 641 c 256
EndSplineSet
Refer: 453 3497 N 1 0 0 1 0 0 2
EndChar

StartChar: si_Ddh.halant
Encoding: 223 -1 78
GlifName: si_D_dh.halant
Width: 647
VWidth: 0
GlyphClass: 2
Flags: HW
LayerCount: 2
Back
Fore
SplineSet
477 520 m 257
 483 516 499 513 510 513 c 256
 535 513 555 531 555 562 c 256
 555 615 496 636 477 653 c 257
 477 520 l 257
449 483 m 257
 449 697 l 257
 504 654 600 653 600 557 c 256
 600 517 568 484 519 484 c 256
 499 484 485 490 477 494 c 257
 477 453 l 257
 449 483 l 257
330 480 m 256
 330 428 348 386 400 386 c 256
 425 386 456 397 472 436 c 257
 444 476 388 528 352 556 c 257
 342 541 330 515 330 480 c 256
15 285 m 257
 15 315 l 257
 258 315 l 257
 255 355 228 387 201 387 c 256
 183 387 168 383 154 359 c 256
 143 340 130 335 116 335 c 256
 93 335 73 350 73 374 c 256
 73 414 120 432 162 432 c 256
 246 432 291 383 292 285 c 257
 220 285 l 258
 144 285 108 244 108 205 c 256
 108 171 143 139 209 139 c 256
 252 139 297 158 297 197 c 258
 297 221 l 257
 328 221 l 257
 328 197 l 258
 328 161 370 140 415 140 c 256
 499 140 532 224 532 282 c 256
 532 343 505 384 492 407 c 257
 472 372 441 353 400 353 c 256
 336 353 300 406 300 470 c 256
 300 523 316 560 342 593 c 257
 403 560 476 486 518 428 c 256
 561 368 597 292 597 217 c 256
 597 128 553 0 426 0 c 256
 364 0 335 29 313 59 c 257
 283 22 250 0 199 0 c 256
 98 0 46 81 46 162 c 256
 46 211 71 262 125 285 c 257
 15 285 l 257
EndSplineSet
LCarets2: 1 174
EndChar

StartChar: si_DdhI
Encoding: 224 -1 79
GlifName: si_D_dhI_
Width: 647
VWidth: 0
GlyphClass: 2
Flags: HW
LayerCount: 2
Back
Fore
SplineSet
342 471 m 256
 342 418 379 392 414 392 c 256
 446 392 469 413 483 435 c 257
 434 502 373 544 362 553 c 257
 351 534 342 503 342 471 c 256
15 285 m 257
 15 315 l 257
 257 315 l 257
 254 356 226 388 198 388 c 256
 181 388 168 383 153 359 c 256
 141 340 125 335 110 335 c 256
 90 335 73 350 73 374 c 256
 73 414 120 432 162 432 c 256
 249 432 293 373 294 285 c 257
 220 285 l 258
 145 285 109 245 109 206 c 256
 109 172 143 139 205 139 c 256
 256 139 297 158 297 199 c 258
 297 221 l 257
 328 221 l 257
 328 199 l 258
 328 157 361 141 417 141 c 256
 501 141 535 220 535 276 c 256
 535 337 515 380 502 403 c 257
 482 370 451 353 410 353 c 256
 346 353 310 399 310 476 c 256
 310 516 326 561 352 593 c 257
 403 563 494 489 532 428 c 256
 570 368 597 319 597 217 c 256
 597 128 553 0 426 0 c 256
 364 0 335 29 313 59 c 257
 283 22 250 0 199 0 c 256
 98 0 46 81 46 162 c 256
 46 211 71 262 125 285 c 257
 15 285 l 257
112 574 m 256
 112 666 226 700 334 700 c 256
 436 700 556 664 556 573 c 256
 556 526 519 498 464 498 c 257
 458 503 451 513 447 521 c 257
 460 522 506 526 506 557 c 256
 506 602 411 612 337 612 c 256
 218 612 160 593 160 557 c 256
 160 529 194 516 228 516 c 256
 273 516 307 529 324 537 c 257
 323 531 324 520 320 504 c 257
 295 496 269 488 226 488 c 256
 166 488 112 516 112 574 c 256
EndSplineSet
EndChar

StartChar: si_DdhIi
Encoding: 225 -1 80
GlifName: si_D_dhI_i
Width: 647
VWidth: 0
GlyphClass: 2
Flags: HW
LayerCount: 2
Back
Fore
SplineSet
342 471 m 256
 342 418 379 392 414 392 c 256
 446 392 469 413 483 435 c 257
 434 502 373 544 362 553 c 257
 351 534 342 503 342 471 c 256
15 285 m 257
 15 315 l 257
 257 315 l 257
 254 356 226 388 198 388 c 256
 181 388 168 383 153 359 c 256
 141 340 125 335 110 335 c 256
 90 335 73 350 73 374 c 256
 73 414 120 432 162 432 c 256
 249 432 293 373 294 285 c 257
 220 285 l 258
 145 285 109 245 109 206 c 256
 109 172 143 139 205 139 c 256
 256 139 297 158 297 199 c 258
 297 221 l 257
 328 221 l 257
 328 199 l 258
 328 157 361 141 417 141 c 256
 501 141 535 220 535 276 c 256
 535 337 515 380 502 403 c 257
 482 370 451 353 410 353 c 256
 346 353 310 399 310 476 c 256
 310 516 326 561 352 593 c 257
 403 563 494 489 532 428 c 256
 570 368 597 319 597 217 c 256
 597 128 553 0 426 0 c 256
 364 0 335 29 313 59 c 257
 283 22 250 0 199 0 c 256
 98 0 46 81 46 162 c 256
 46 211 71 262 125 285 c 257
 15 285 l 257
446 554 m 256
 446 527 468 505 495 505 c 256
 522 505 544 527 544 554 c 256
 544 581 522 603 495 603 c 256
 468 603 446 581 446 554 c 256
112 574 m 256
 112 666 226 700 335 700 c 256
 502 700 579 647 579 565 c 256
 579 512 544 474 494 474 c 256
 446 474 414 513 414 553 c 256
 414 567 420 593 439 609 c 257
 423 612 393 616 344 616 c 256
 230 616 165 597 165 558 c 256
 165 530 194 516 228 516 c 256
 273 516 307 528 324 536 c 257
 323 530 324 519 320 503 c 257
 295 495 269 487 226 487 c 256
 166 487 112 516 112 574 c 256
EndSplineSet
EndChar

StartChar: si_DdhU
Encoding: 226 -1 81
GlifName: si_D_dhU_
Width: 647
VWidth: 0
GlyphClass: 2
Flags: HW
LayerCount: 2
Back
Fore
SplineSet
52 -142 m 256
 52 -90 98 -50 153 -50 c 256
 195 -50 232 -74 247 -110 c 257
 214 -122 l 257
 207 -105 186 -82 153 -82 c 256
 116 -82 87 -109 87 -142 c 256
 87 -171 108 -192 178 -192 c 258
 550 -192 l 257
 550 128 l 257
 585 219 l 257
 585 -235 l 257
 157 -235 l 258
 77 -235 52 -186 52 -142 c 256
EndSplineSet
Refer: 454 3498 N 1 0 0 1 0 0 2
EndChar

StartChar: si_DdhUu
Encoding: 227 -1 82
GlifName: si_D_dhU_u
Width: 647
VWidth: 0
GlyphClass: 2
Flags: HW
LayerCount: 2
Back
Fore
SplineSet
51 -138 m 256
 51 -80 100 -40 153 -40 c 256
 195 -40 227 -55 250 -91 c 257
 217 -102 l 257
 206 -85 187 -70 158 -70 c 256
 119 -70 94 -95 94 -120 c 256
 94 -152 123 -167 157 -167 c 256
 233 -167 319 -114 427 -114 c 256
 478 -114 524 -134 551 -166 c 257
 551 152 l 257
 586 212 l 257
 586 -231 l 257
 560 -231 l 257
 545 -195 500 -146 437 -146 c 256
 346 -146 260 -237 162 -237 c 256
 107 -237 51 -206 51 -138 c 256
EndSplineSet
Refer: 454 3498 N 1 0 0 1 0 0 2
EndChar

StartChar: si_Dh.halant
Encoding: 274 -1 83
GlifName: si_D_h.halant
Width: 638
VWidth: 0
GlyphClass: 2
Flags: HW
LayerCount: 2
Back
Fore
SplineSet
144 536 m 256
 144 527 163 526 163 515 c 256
 163 513 162 510 160 508 c 257
 193 514 233 519 279 519 c 256
 385 519 470 492 528 424 c 257
 493 538 400 574 284 574 c 256
 217 574 144 560 144 536 c 256
33 195 m 256
 33 288 86 364 152 387 c 256
 173 394 196 398 221 398 c 257
 221 371 l 258
 218 371 214 371 211 371 c 256
 132 371 88 312 88 234 c 256
 88 198 115 140 188 140 c 256
 241 140 288 159 288 223 c 258
 288 249 l 257
 319 249 l 257
 319 223 l 258
 319 159 366 141 413 141 c 256
 496 141 526 218 526 296 c 256
 526 413 443 492 282 492 c 256
 206 492 123 478 42 440 c 257
 42 473 l 257
 74 485 124 499 124 508 c 256
 124 520 95 521 95 545 c 256
 95 583 163 629 278 629 c 256
 486 629 560 490 572 356 c 257
 581 331 588 289 588 247 c 256
 588 141 548 0 422 0 c 256
 373 0 333 20 303 59 c 257
 272 20 235 0 190 0 c 256
 88 0 33 96 33 195 c 256
EndSplineSet
EndChar

StartChar: si_DhI
Encoding: 275 -1 84
GlifName: si_D_hI_
Width: 638
VWidth: 0
GlyphClass: 2
Flags: HW
LayerCount: 2
Back
Fore
SplineSet
33 195 m 256
 33 288 86 364 152 387 c 256
 173 394 196 398 221 398 c 257
 221 372 l 258
 218 372 214 372 211 372 c 256
 132 372 88 307 88 242 c 256
 88 187 120 140 193 140 c 256
 244 140 288 161 288 225 c 258
 288 249 l 257
 319 249 l 257
 319 225 l 258
 319 161 363 140 412 140 c 256
 506 140 526 244 526 292 c 256
 526 333 520 378 494 413 c 256
 452 468 386 470 285 476 c 256
 196 481 75 476 75 562 c 256
 75 652 206 670 306 670 c 256
 442 670 552 639 552 554 c 256
 552 505 503 482 469 475 c 257
 479 470 489 465 498 459 c 256
 547 424 589 344 589 257 c 257
 588 136 546 0 422 0 c 256
 373 0 333 20 303 59 c 257
 272 20 235 0 190 0 c 256
 88 0 33 96 33 195 c 256
134 538 m 256
 134 511 182 508 284 504 c 256
 324 502 376 500 422 490 c 257
 454 493 477 506 477 527 c 256
 477 564 414 581 306 581 c 256
 230 581 134 573 134 538 c 256
EndSplineSet
EndChar

StartChar: si_DhIi
Encoding: 276 -1 85
GlifName: si_D_hI_i
Width: 638
VWidth: 0
GlyphClass: 2
Flags: HW
LayerCount: 2
Back
Fore
SplineSet
33 195 m 256
 33 288 86 364 152 387 c 256
 173 394 196 398 221 398 c 257
 221 372 l 258
 218 372 214 372 211 372 c 256
 132 372 88 307 88 242 c 256
 88 187 120 140 193 140 c 256
 244 140 288 161 288 225 c 258
 288 249 l 257
 319 249 l 257
 319 225 l 258
 319 161 363 140 412 140 c 256
 507 140 526 249 526 297 c 256
 526 349 517 384 490 416 c 256
 446 469 386 470 285 476 c 256
 196 481 75 476 75 562 c 256
 75 652 206 670 306 670 c 256
 442 670 552 640 552 542 c 256
 552 502 524 474 492 463 c 257
 494 462 496 460 498 459 c 256
 545 425 589 350 589 256 c 257
 589 136 546 0 422 0 c 256
 373 0 333 20 303 59 c 257
 272 20 235 0 190 0 c 256
 88 0 33 96 33 195 c 256
401 539 m 256
 401 509 428 485 460 485 c 256
 492 485 519 509 519 539 c 256
 519 569 492 592 460 592 c 256
 428 592 401 569 401 539 c 256
381 497 m 257
 373 509 368 525 368 542 c 256
 368 566 378 579 382 584 c 257
 374 586 340 588 304 588 c 256
 228 588 130 580 130 540 c 256
 130 511 182 508 284 504 c 256
 313 503 347 501 381 497 c 257
EndSplineSet
EndChar

StartChar: si_DhRI
Encoding: 281 -1 86
GlifName: si_D_hR_I_
Width: 638
VWidth: 0
GlyphClass: 2
Flags: HW
LayerCount: 2
Back
Fore
SplineSet
56 -44 m 257
 85 -44 l 257
 122 -87 190 -114 295 -114 c 256
 438 -114 549 -31 549 63 c 256
 549 78 547 90 542 102 c 257
 555 133 l 257
 573 106 582 75 582 38 c 256
 582 -124 454 -219 310 -219 c 256
 177 -219 93 -153 56 -44 c 257
EndSplineSet
Refer: 84 -1 N 1 0 0 1 0 0 2
EndChar

StartChar: si_DhRIi
Encoding: 282 -1 87
GlifName: si_D_hR_I_i
Width: 638
VWidth: 0
GlyphClass: 2
Flags: HW
LayerCount: 2
Back
Fore
SplineSet
56 -44 m 257
 85 -44 l 257
 122 -87 190 -114 295 -114 c 256
 438 -114 549 -31 549 63 c 256
 549 78 547 90 542 102 c 257
 555 133 l 257
 573 106 582 75 582 38 c 256
 582 -124 454 -219 310 -219 c 256
 177 -219 93 -153 56 -44 c 257
EndSplineSet
Refer: 85 -1 N 1 0 0 1 0 0 2
EndChar

StartChar: si_DhRa
Encoding: 280 -1 88
GlifName: si_D_hR_a
Width: 638
VWidth: 0
GlyphClass: 2
Flags: HW
LayerCount: 2
Back
Fore
SplineSet
56 -44 m 257
 85 -44 l 257
 122 -87 190 -114 295 -114 c 256
 438 -114 549 -31 549 63 c 256
 549 78 547 90 542 102 c 257
 555 133 l 257
 573 106 582 75 582 38 c 256
 582 -124 454 -219 310 -219 c 256
 177 -219 93 -153 56 -44 c 257
EndSplineSet
Refer: 460 3504 N 1 0 0 1 0 0 2
EndChar

StartChar: si_DhU
Encoding: 277 -1 89
GlifName: si_D_hU_
Width: 638
VWidth: 0
GlyphClass: 2
Flags: HW
LayerCount: 2
Back
Fore
SplineSet
52 -142 m 256
 52 -90 98 -50 153 -50 c 256
 195 -50 232 -74 247 -110 c 257
 214 -122 l 257
 207 -105 186 -82 153 -82 c 256
 116 -82 87 -109 87 -142 c 256
 87 -171 108 -192 178 -192 c 258
 540 -192 l 257
 540 128 l 257
 575 219 l 257
 575 -235 l 257
 157 -235 l 258
 77 -235 52 -186 52 -142 c 256
EndSplineSet
Refer: 460 3504 N 1 0 0 1 0 0 2
EndChar

StartChar: si_DhUu
Encoding: 278 -1 90
GlifName: si_D_hU_u
Width: 638
VWidth: 0
GlyphClass: 2
Flags: HW
LayerCount: 2
Back
Fore
SplineSet
51 -138 m 256
 51 -80 100 -40 153 -40 c 256
 195 -40 227 -55 250 -91 c 257
 217 -102 l 257
 206 -85 187 -70 158 -70 c 256
 119 -70 94 -95 94 -120 c 256
 94 -152 123 -167 157 -167 c 256
 233 -167 308 -114 416 -114 c 256
 467 -114 513 -134 540 -166 c 257
 540 152 l 257
 575 212 l 257
 575 -231 l 257
 550 -231 l 257
 535 -195 489 -146 426 -146 c 256
 335 -146 260 -237 162 -237 c 256
 107 -237 51 -206 51 -138 c 256
EndSplineSet
Refer: 460 3504 N 1 0 0 1 0 0 2
EndChar

StartChar: si_Dha.reph
Encoding: 279 -1 91
GlifName: si_D_ha.reph
Width: 638
VWidth: 0
GlyphClass: 2
Flags: HW
LayerCount: 2
Back
Fore
SplineSet
274 622 m 256
 274 642 292 658 314 658 c 256
 336 658 355 642 355 622 c 256
 355 602 336 586 314 586 c 256
 292 586 274 602 274 622 c 256
172 641 m 256
 172 585 231 556 290 556 c 256
 348 556 382 582 382 621 c 256
 382 656 355 683 314 683 c 256
 278 683 246 658 246 623 c 256
 246 602 257 588 265 582 c 257
 247 584 204 602 204 641 c 256
 204 691 257 714 310 714 c 256
 371 714 420 682 420 627 c 256
 420 600 405 575 392 563 c 257
 428 563 l 257
 445 582 452 604 452 628 c 256
 452 699 389 742 312 742 c 256
 230 742 172 705 172 641 c 256
EndSplineSet
Refer: 460 3504 N 1 0 0 1 0 0 2
EndChar

StartChar: si_DvocR
Encoding: 262 -1 92
GlifName: si_D_vocR_
Width: 703
VWidth: 0
GlyphClass: 2
Flags: HW
LayerCount: 2
Back
Fore
SplineSet
423 249 m 256
 423 329 458 393 538 393 c 256
 625 393 660 314 660 203 c 256
 660 144 644 52 644 23 c 256
 644 16 643 9 644 3 c 257
 570 3 l 257
 567 12 562 17 555 17 c 256
 543 17 535 -1 506 -1 c 256
 447 -1 423 66 423 106 c 256
 423 153 445 188 489 207 c 256
 511 216 536 220 543 220 c 257
 543 310 535 340 506 340 c 256
 472 340 449 308 449 246 c 256
 449 244 449 244 449 242 c 257
 423 242 l 257
 423 245 423 246 423 249 c 256
454 107 m 256
 454 76 468 30 508 30 c 256
 528 30 534 35 542 39 c 256
 545 40 547 42 551 42 c 257
 543 47 542 76 542 114 c 256
 542 145 543 165 543 183 c 256
 543 186 543 190 543 192 c 257
 539 192 521 188 513 186 c 256
 477 175 454 151 454 107 c 256
EndSplineSet
Refer: 459 3503 N 1 0 0 1 0 0 2
EndChar

StartChar: si_DvocRr
Encoding: 263 -1 93
GlifName: si_D_vocR_r
Width: 962
VWidth: 0
GlyphClass: 2
Flags: HW
LayerCount: 2
Back
Fore
SplineSet
678 249 m 256
 678 329 713 393 793 393 c 256
 880 393 916 314 916 203 c 256
 916 144 899 52 899 23 c 256
 899 16 899 9 900 3 c 257
 826 3 l 257
 823 12 817 17 810 17 c 256
 798 17 790 -1 761 -1 c 256
 702 -1 678 66 678 106 c 256
 678 153 700 188 744 207 c 256
 766 216 792 220 799 220 c 257
 799 310 791 340 762 340 c 256
 728 340 705 308 705 246 c 256
 705 244 705 244 705 242 c 257
 678 242 l 257
 678 245 678 246 678 249 c 256
710 107 m 256
 710 76 723 30 763 30 c 256
 783 30 789 35 797 39 c 256
 800 40 803 42 807 42 c 257
 799 47 798 76 798 114 c 256
 798 145 799 165 799 183 c 256
 799 186 799 190 799 192 c 257
 795 192 776 188 768 186 c 256
 732 175 710 151 710 107 c 256
423 249 m 256
 423 329 458 393 538 393 c 256
 625 393 660 314 660 203 c 256
 660 144 644 52 644 23 c 256
 644 16 643 9 644 3 c 257
 570 3 l 257
 567 12 562 17 555 17 c 256
 543 17 535 -1 506 -1 c 256
 447 -1 423 66 423 106 c 256
 423 153 445 188 489 207 c 256
 511 216 536 220 543 220 c 257
 543 310 535 340 506 340 c 256
 472 340 449 308 449 246 c 256
 449 244 449 244 449 242 c 257
 423 242 l 257
 423 245 423 246 423 249 c 256
454 107 m 256
 454 76 468 30 508 30 c 256
 527 30 533 35 541 39 c 256
 544 40 547 42 551 42 c 257
 543 47 542 76 542 114 c 256
 542 145 543 165 543 183 c 256
 543 186 543 190 543 192 c 257
 539 192 521 188 513 186 c 256
 477 175 454 151 454 107 c 256
EndSplineSet
Refer: 459 3503 N 1 0 0 1 0 0 2
EndChar

StartChar: si_F.halant
Encoding: 420 -1 94
GlifName: si_F_.halant
Width: 607
VWidth: 0
GlyphClass: 2
Flags: HW
LayerCount: 2
Back
Fore
SplineSet
404 423 m 257
 404 681 l 257
 458 639 555 634 555 542 c 256
 555 498 520 468 477 468 c 256
 462 468 447 471 432 478 c 257
 432 410 l 257
 404 423 l 257
432 504 m 257
 440 499 451 497 464 497 c 256
 496 497 510 521 510 545 c 256
 510 586 478 607 432 637 c 257
 432 504 l 257
EndSplineSet
Refer: 478 3526 N 1 0 0 1 0 0 2
EndChar

StartChar: si_FI
Encoding: 421 -1 95
GlifName: si_F_I_
Width: 607
VWidth: 0
GlyphClass: 2
Flags: HW
LayerCount: 2
Back
Fore
SplineSet
64 518 m 256
 64 626 177 671 296 671 c 256
 415 671 528 626 528 518 c 256
 528 443 462 408 385 405 c 257
 408 428 l 257
 446 437 463 447 463 479 c 256
 463 521 382 536 296 536 c 256
 207 536 124 522 124 479 c 256
 124 450 148 433 187 427 c 257
 207 405 l 257
 130 408 64 443 64 518 c 256
EndSplineSet
Refer: 478 3526 N 1 0 0 1 0 0 2
EndChar

StartChar: si_FIi
Encoding: 422 -1 96
GlifName: si_F_I_i
Width: 607
VWidth: 0
GlyphClass: 2
Flags: HW
LayerCount: 2
Back
Fore
SplineSet
387 514 m 256
 387 484 416 459 451 459 c 256
 486 459 516 484 516 514 c 256
 516 544 486 569 451 569 c 256
 416 569 387 544 387 514 c 256
48 512 m 256
 48 624 172 671 299 671 c 256
 416 671 552 627 552 524 c 256
 552 469 507 429 451 429 c 256
 393 429 353 470 353 515 c 256
 353 525 356 549 369 562 c 257
 360 563 320 565 287 565 c 256
 193 565 95 543 95 482 c 256
 95 460 110 437 153 426 c 257
 138 406 l 257
 86 413 48 456 48 512 c 256
EndSplineSet
Refer: 478 3526 N 1 0 0 1 0 0 2
EndChar

StartChar: si_FRI
Encoding: 427 -1 97
GlifName: si_F_R_I_
Width: 607
VWidth: 0
GlyphClass: 2
Flags: HW
LayerCount: 2
Back
Fore
SplineSet
64 518 m 256
 64 626 177 671 296 671 c 256
 415 671 528 626 528 518 c 256
 528 443 462 408 385 405 c 257
 408 428 l 257
 446 437 463 447 463 479 c 256
 463 521 382 536 296 536 c 256
 207 536 124 522 124 479 c 256
 124 450 148 433 187 427 c 257
 207 405 l 257
 130 408 64 443 64 518 c 256
60 -44 m 257
 89 -44 l 257
 126 -87 173 -114 278 -114 c 256
 421 -114 517 -31 517 63 c 256
 517 78 512 100 502 110 c 257
 518 140 l 257
 539 115 550 75 550 38 c 256
 550 -124 437 -219 293 -219 c 256
 173 -219 97 -153 60 -44 c 257
EndSplineSet
Refer: 478 3526 N 1 0 0 1 0 0 2
EndChar

StartChar: si_FRIi
Encoding: 428 -1 98
GlifName: si_F_R_I_i
Width: 607
VWidth: 0
GlyphClass: 2
Flags: HW
LayerCount: 2
Back
Fore
SplineSet
387 514 m 256
 387 484 416 459 451 459 c 256
 486 459 516 484 516 514 c 256
 516 544 486 569 451 569 c 256
 416 569 387 544 387 514 c 256
48 512 m 256
 48 624 172 671 299 671 c 256
 416 671 552 627 552 524 c 256
 552 469 507 429 451 429 c 256
 393 429 353 470 353 515 c 256
 353 525 356 549 369 562 c 257
 360 563 320 565 287 565 c 256
 193 565 95 543 95 482 c 256
 95 460 110 437 153 426 c 257
 138 406 l 257
 86 413 48 456 48 512 c 256
60 -44 m 257
 89 -44 l 257
 126 -87 173 -114 278 -114 c 256
 421 -114 517 -31 517 63 c 256
 517 78 512 100 502 110 c 257
 518 140 l 257
 539 115 550 75 550 38 c 256
 550 -124 437 -219 293 -219 c 256
 173 -219 97 -153 60 -44 c 257
EndSplineSet
Refer: 478 3526 N 1 0 0 1 0 0 2
EndChar

StartChar: si_FRa
Encoding: 426 -1 99
GlifName: si_F_R_a
Width: 607
VWidth: 0
GlyphClass: 2
Flags: HW
LayerCount: 2
Back
Fore
SplineSet
60 -44 m 257
 89 -44 l 257
 126 -87 173 -114 278 -114 c 256
 421 -114 517 -31 517 63 c 256
 517 78 512 100 502 110 c 257
 518 140 l 257
 539 115 550 75 550 38 c 256
 550 -124 437 -219 293 -219 c 256
 173 -219 97 -153 60 -44 c 257
EndSplineSet
Refer: 478 3526 N 1 0 0 1 0 0 2
EndChar

StartChar: si_FU
Encoding: 423 -1 100
GlifName: si_F_U_
Width: 607
VWidth: 0
GlyphClass: 2
Flags: HW
LayerCount: 2
Back
Fore
SplineSet
54 -142 m 256
 54 -90 100 -50 155 -50 c 256
 197 -50 234 -74 249 -110 c 257
 216 -122 l 257
 209 -105 188 -82 155 -82 c 256
 118 -82 89 -109 89 -142 c 256
 89 -171 110 -192 180 -192 c 258
 511 -192 l 257
 511 128 l 257
 546 219 l 257
 546 -235 l 257
 159 -235 l 258
 79 -235 54 -186 54 -142 c 256
EndSplineSet
Refer: 478 3526 N 1 0 0 1 0 0 2
EndChar

StartChar: si_FUu
Encoding: 424 -1 101
GlifName: si_F_U_u
Width: 607
VWidth: 0
GlyphClass: 2
Flags: HW
LayerCount: 2
Back
Fore
SplineSet
53 -138 m 256
 53 -80 102 -40 155 -40 c 256
 197 -40 217 -55 240 -91 c 257
 219 -102 l 257
 208 -85 189 -70 160 -70 c 256
 121 -70 96 -95 96 -120 c 256
 96 -152 125 -167 159 -167 c 256
 235 -167 293 -114 392 -114 c 256
 436 -114 484 -134 511 -166 c 257
 511 152 l 257
 546 212 l 257
 546 -231 l 257
 520 -231 l 257
 505 -195 464 -146 401 -146 c 256
 310 -146 262 -237 164 -237 c 256
 109 -237 53 -206 53 -138 c 256
EndSplineSet
Refer: 478 3526 N 1 0 0 1 0 0 2
EndChar

StartChar: si_Fa.reph
Encoding: 425 -1 102
GlifName: si_F_a.reph
Width: 607
VWidth: 0
GlyphClass: 2
Flags: HW
LayerCount: 2
Back
Fore
SplineSet
259 511 m 256
 259 491 278 475 300 475 c 256
 322 475 340 491 340 511 c 256
 340 531 322 547 300 547 c 256
 278 547 259 531 259 511 c 256
156 530 m 256
 156 594 214 631 296 631 c 256
 373 631 438 588 438 517 c 256
 438 493 429 471 412 452 c 257
 377 452 l 257
 390 464 406 489 406 516 c 256
 406 571 357 602 296 602 c 256
 243 602 189 580 189 530 c 256
 189 491 232 473 250 471 c 257
 242 477 232 491 232 512 c 256
 232 547 262 572 298 572 c 256
 339 572 368 545 368 510 c 256
 368 471 332 445 274 445 c 256
 215 445 156 474 156 530 c 256
EndSplineSet
Refer: 478 3526 N 1 0 0 1 0 0 2
EndChar

StartChar: si_G.halant
Encoding: 109 -1 103
GlifName: si_G_.halant
Width: 636
VWidth: 0
GlyphClass: 2
Flags: HW
LayerCount: 2
Back
Fore
SplineSet
434 348 m 257
 434 681 l 257
 488 639 586 634 586 542 c 256
 586 498 551 468 508 468 c 256
 493 468 478 471 463 478 c 257
 463 331 l 257
 434 348 l 257
463 504 m 257
 471 499 482 497 495 497 c 256
 527 497 541 521 541 545 c 256
 541 586 509 607 463 637 c 257
 463 504 l 257
EndSplineSet
Refer: 440 3484 N 1 0 0 1 0 0 2
EndChar

StartChar: si_GDha
Encoding: 437 -1 104
GlifName: si_G_D_ha
Width: 942
VWidth: 0
GlyphClass: 2
Flags: HW
LayerCount: 2
Back
Fore
SplineSet
34 207 m 256
 34 330 109 432 220 432 c 256
 224 432 229 431 233 431 c 257
 233 405 l 257
 230 405 225 405 222 405 c 256
 138 405 88 329 88 258 c 256
 88 186 142 140 211 140 c 256
 270 140 294 164 294 191 c 256
 294 216 276 220 269 220 c 256
 258 220 251 217 246 214 c 257
 245 208 244 197 244 194 c 257
 215 194 l 257
 225 319 288 432 410 432 c 256
 467 432 492 421 528 398 c 257
 515 391 489 395 477 392 c 257
 456 400 431 402 414 402 c 256
 309 402 267 316 251 242 c 257
 255 245 265 246 270 246 c 256
 320 246 352 202 352 136 c 256
 352 56 295 -2 208 -2 c 256
 97 -2 34 96 34 207 c 256
EndSplineSet
Refer: 460 3504 N 1 0 0 1 306 0 2
EndChar

StartChar: si_GI
Encoding: 110 -1 105
GlifName: si_G_I_
Width: 636
VWidth: 0
GlyphClass: 2
Flags: HW
LayerCount: 2
Back
Fore
SplineSet
150 537 m 256
 150 628 249 667 351 667 c 256
 456 667 559 618 559 523 c 256
 559 461 520 415 439 409 c 257
 421 431 l 257
 424 431 426 431 429 431 c 256
 487 431 517 466 517 498 c 256
 517 552 438 566 358 566 c 256
 277 566 221 538 221 503 c 256
 221 454 325 431 411 431 c 256
 412 431 412 432 413 432 c 257
 397 407 l 257
 237 410 150 462 150 537 c 256
34 207 m 256
 34 330 113 432 203 432 c 256
 207 432 208 431 212 431 c 257
 212 406 l 257
 209 406 208 406 205 406 c 256
 135 406 88 335 88 258 c 256
 88 186 142 140 211 140 c 256
 270 140 294 164 294 191 c 256
 294 216 276 220 269 220 c 256
 258 220 251 217 246 214 c 257
 245 208 244 197 244 194 c 257
 216 194 l 257
 225 321 288 432 410 432 c 256
 522 432 586 332 586 217 c 256
 586 95 500 -1 369 -1 c 256
 359 -1 349 0 338 1 c 257
 338 29 l 257
 346 28 354 27 362 27 c 256
 466 27 498 110 498 175 c 256
 498 255 461 320 363 320 c 256
 292 320 257 277 250 241 c 257
 256 244 263 246 270 246 c 256
 320 246 352 202 352 136 c 256
 352 56 295 -2 208 -2 c 256
 97 -2 34 96 34 207 c 256
EndSplineSet
EndChar

StartChar: si_GIi
Encoding: 111 -1 106
GlifName: si_G_I_i
Width: 636
VWidth: 0
GlyphClass: 2
Flags: HW
LayerCount: 2
Back
Fore
SplineSet
34 207 m 256
 34 330 113 432 203 432 c 256
 207 432 208 431 212 431 c 257
 212 406 l 258
 209 406 208 406 205 406 c 256
 135 406 88 335 88 258 c 256
 88 186 142 140 211 140 c 256
 270 140 294 164 294 191 c 256
 294 216 276 220 269 220 c 256
 258 220 251 217 246 214 c 257
 245 208 244 197 244 194 c 258
 216 194 l 257
 223 289 259 374 328 411 c 257
 212 426 150 474 150 537 c 256
 150 628 249 667 351 667 c 256
 456 667 559 618 559 525 c 256
 559 457 502 431 460 431 c 256
 414 431 361 463 361 520 c 256
 361 539 368 555 375 566 c 257
 369 566 364 566 358 566 c 256
 277 566 221 538 221 503 c 256
 221 454 324 432 410 432 c 256
 522 431 586 332 586 217 c 256
 586 95 500 -1 369 -1 c 256
 359 -1 349 0 338 1 c 257
 338 29 l 257
 346 28 354 27 362 27 c 256
 466 27 498 110 498 175 c 256
 498 255 461 320 363 320 c 256
 292 320 257 277 250 241 c 257
 256 244 263 246 270 246 c 256
 320 246 352 202 352 136 c 256
 352 56 295 -2 208 -2 c 256
 97 -2 34 96 34 207 c 256
394 520 m 256
 394 487 423 460 460 460 c 256
 497 460 526 487 526 520 c 256
 526 553 497 580 460 580 c 256
 423 580 394 553 394 520 c 256
EndSplineSet
EndChar

StartChar: si_GR.halant
Encoding: 116 -1 107
GlifName: si_G_R_.halant
Width: 636
VWidth: 0
GlyphClass: 2
Flags: HW
LayerCount: 2
Back
Fore
SplineSet
56 -44 m 257
 85 -44 l 257
 119 -93 176 -114 289 -114 c 256
 441 -114 552 -31 552 63 c 256
 552 78 549 91 542 102 c 257
 555 133 l 257
 573 106 582 75 582 38 c 256
 582 -124 463 -219 311 -219 c 256
 171 -219 93 -153 56 -44 c 257
EndSplineSet
Refer: 103 -1 N 1 0 0 1 0 0 2
EndChar

StartChar: si_GRI
Encoding: 117 -1 108
GlifName: si_G_R_I_
Width: 636
VWidth: 0
GlyphClass: 2
Flags: HW
LayerCount: 2
Back
Fore
SplineSet
56 -44 m 257
 85 -44 l 257
 119 -93 176 -114 289 -114 c 256
 441 -114 552 -31 552 63 c 256
 552 78 549 91 542 102 c 257
 555 133 l 257
 573 106 582 75 582 38 c 256
 582 -124 463 -219 311 -219 c 256
 171 -219 93 -153 56 -44 c 257
EndSplineSet
Refer: 105 -1 N 1 0 0 1 0 0 2
EndChar

StartChar: si_GRIi
Encoding: 118 -1 109
GlifName: si_G_R_I_i
Width: 636
VWidth: 0
GlyphClass: 2
Flags: HW
LayerCount: 2
Back
Fore
SplineSet
56 -44 m 257
 85 -44 l 257
 119 -93 176 -114 289 -114 c 256
 441 -114 552 -31 552 63 c 256
 552 78 549 91 542 102 c 257
 555 133 l 257
 573 106 582 75 582 38 c 256
 582 -124 463 -219 311 -219 c 256
 171 -219 93 -153 56 -44 c 257
EndSplineSet
Refer: 106 -1 N 1 0 0 1 0 0 2
EndChar

StartChar: si_GRa
Encoding: 115 -1 110
GlifName: si_G_R_a
Width: 636
VWidth: 0
GlyphClass: 2
Flags: HW
LayerCount: 2
Back
Fore
SplineSet
56 -44 m 257
 85 -44 l 257
 119 -93 176 -114 289 -114 c 256
 441 -114 552 -31 552 63 c 256
 552 78 549 91 542 102 c 257
 555 133 l 257
 573 106 582 75 582 38 c 256
 582 -124 463 -219 311 -219 c 256
 171 -219 93 -153 56 -44 c 257
EndSplineSet
Refer: 440 3484 N 1 0 0 1 0 0 2
EndChar

StartChar: si_GU
Encoding: 112 -1 111
GlifName: si_G_U_
Width: 636
VWidth: 0
GlyphClass: 2
Flags: HW
LayerCount: 2
Back
Fore
SplineSet
306 -80 m 256
 306 -25 332 7 372 23 c 257
 381 -6 l 257
 366 -12 351 -26 351 -48 c 256
 351 -84 395 -105 446 -105 c 256
 507 -105 554 -83 554 -45 c 256
 554 -42 553 -39 553 -36 c 257
 583 -36 l 257
 585 -45 586 -61 586 -70 c 256
 586 -123 542 -192 441 -192 c 256
 373 -192 306 -149 306 -80 c 256
34 207 m 256
 34 330 109 432 220 432 c 256
 224 432 229 431 233 431 c 257
 233 405 l 257
 230 405 225 405 222 405 c 256
 138 405 88 329 88 258 c 256
 88 186 142 140 211 140 c 256
 270 140 294 164 294 191 c 256
 294 216 276 220 269 220 c 256
 258 220 251 217 246 214 c 257
 245 208 244 197 244 194 c 257
 216 194 l 257
 225 321 288 432 410 432 c 256
 522 432 586 332 586 217 c 256
 586 95 508 -1 417 -1 c 256
 397 -1 385 -4 377 -7 c 257
 368 22 l 257
 374 25 392 29 405 29 c 256
 466 29 498 110 498 175 c 256
 498 255 461 320 363 320 c 256
 292 320 257 277 250 241 c 257
 256 244 263 246 270 246 c 256
 320 246 352 202 352 136 c 256
 352 56 295 -2 208 -2 c 256
 97 -2 34 96 34 207 c 256
EndSplineSet
EndChar

StartChar: si_GUu
Encoding: 113 -1 112
GlifName: si_G_U_u
Width: 636
VWidth: 0
GlyphClass: 2
Flags: HW
LayerCount: 2
Back
Fore
SplineSet
336 -129 m 256
 336 -93 363 -72 400 -67 c 257
 345 -39 l 257
 430 -14 l 257
 338 1 l 257
 393 14 l 257
 515 -6 l 257
 408 -43 l 257
 468 -76 l 257
 440 -83 386 -83 386 -104 c 256
 386 -120 418 -129 460 -129 c 256
 514 -129 558 -113 558 -82 c 256
 558 -77 557 -67 552 -59 c 257
 587 -59 l 257
 591 -71 591 -83 591 -94 c 256
 591 -161 540 -205 458 -205 c 256
 400 -205 336 -187 336 -129 c 256
EndSplineSet
Refer: 440 3484 N 1 0 0 1 0 0 2
EndChar

StartChar: si_Gh.halant
Encoding: 119 -1 114
GlifName: si_G_h.halant
Width: 677
VWidth: 0
GlyphClass: 2
Flags: HW
LayerCount: 2
Back
Fore
SplineSet
476 406 m 257
 476 681 l 257
 530 639 628 634 628 542 c 256
 628 498 593 468 550 468 c 256
 535 468 520 471 505 478 c 257
 505 389 l 257
 476 406 l 257
505 504 m 257
 513 499 524 497 537 497 c 256
 569 497 583 521 583 545 c 256
 583 586 551 607 505 637 c 257
 505 504 l 257
EndSplineSet
Refer: 441 3485 N 1 0 0 1 0 0 2
EndChar

StartChar: si_GhI
Encoding: 120 -1 115
GlifName: si_G_hI_
Width: 677
VWidth: 0
GlyphClass: 2
Flags: HW
LayerCount: 2
Back
Fore
SplineSet
102 517 m 256
 102 625 215 670 334 670 c 256
 453 670 566 625 566 517 c 256
 566 442 501 407 424 404 c 257
 452 430 l 257
 476 433 515 450 515 488 c 256
 515 540 423 559 334 559 c 256
 245 559 154 541 154 488 c 256
 154 454 190 434 216 429 c 257
 246 404 l 257
 169 407 102 442 102 517 c 256
EndSplineSet
Refer: 441 3485 N 1 0 0 1 0 0 2
EndChar

StartChar: si_GhIi
Encoding: 121 -1 116
GlifName: si_G_hI_i
Width: 677
VWidth: 0
GlyphClass: 2
Flags: HW
LayerCount: 2
Back
Fore
SplineSet
424 492 m 256
 424 462 453 437 488 437 c 256
 523 437 553 462 553 492 c 256
 553 522 523 547 488 547 c 256
 453 547 424 522 424 492 c 256
86 517 m 256
 86 624 209 671 336 671 c 256
 453 671 590 629 590 502 c 256
 590 447 544 407 488 407 c 256
 430 407 390 448 390 493 c 256
 390 528 409 551 426 560 c 257
 415 562 368 566 338 566 c 256
 244 566 134 543 134 482 c 256
 134 459 147 438 184 427 c 257
 176 406 l 257
 123 411 86 456 86 517 c 256
EndSplineSet
Refer: 441 3485 N 1 0 0 1 0 0 2
EndChar

StartChar: si_GhRI
Encoding: 125 -1 117
GlifName: si_G_hR_I_
Width: 677
VWidth: 0
GlyphClass: 2
Flags: HW
LayerCount: 2
Back
Fore
SplineSet
63 -44 m 257
 93 -44 l 257
 129 -87 198 -116 311 -116 c 256
 463 -116 597 -31 597 63 c 256
 597 78 595 91 588 102 c 257
 600 133 l 257
 618 106 628 75 628 38 c 256
 628 -124 485 -219 333 -219 c 256
 193 -219 100 -153 63 -44 c 257
EndSplineSet
Refer: 115 -1 N 1 0 0 1 0 0 2
EndChar

StartChar: si_GhRIi
Encoding: 126 -1 118
GlifName: si_G_hR_I_i
Width: 677
VWidth: 0
GlyphClass: 2
Flags: HW
LayerCount: 2
Back
Fore
SplineSet
63 -44 m 257
 93 -44 l 257
 129 -87 198 -116 311 -116 c 256
 463 -116 597 -31 597 63 c 256
 597 78 595 91 588 102 c 257
 600 133 l 257
 618 106 628 75 628 38 c 256
 628 -124 485 -219 333 -219 c 256
 193 -219 100 -153 63 -44 c 257
EndSplineSet
Refer: 116 -1 N 1 0 0 1 0 0 2
EndChar

StartChar: si_GhRa
Encoding: 127 -1 119
GlifName: si_G_hR_a
Width: 677
VWidth: 0
GlyphClass: 2
Flags: HW
LayerCount: 2
Back
Fore
SplineSet
63 -44 m 257
 93 -44 l 257
 129 -87 198 -116 311 -116 c 256
 463 -116 597 -31 597 63 c 256
 597 78 595 91 588 102 c 257
 600 133 l 257
 618 106 628 75 628 38 c 256
 628 -124 485 -219 333 -219 c 256
 193 -219 100 -153 63 -44 c 257
EndSplineSet
Refer: 441 3485 N 1 0 0 1 0 0 2
EndChar

StartChar: si_GhU
Encoding: 122 -1 120
GlifName: si_G_hU_
Width: 677
VWidth: 0
GlyphClass: 2
Flags: HW
LayerCount: 2
Back
Fore
SplineSet
66 -142 m 256
 66 -90 113 -50 168 -50 c 256
 210 -50 247 -74 262 -110 c 257
 229 -122 l 257
 222 -105 201 -82 168 -82 c 256
 131 -82 102 -109 102 -142 c 256
 102 -171 124 -192 194 -192 c 258
 581 -192 l 257
 581 128 l 257
 616 219 l 257
 616 -235 l 257
 172 -235 l 258
 92 -235 66 -186 66 -142 c 256
EndSplineSet
Refer: 441 3485 N 1 0 0 1 0 0 2
EndChar

StartChar: si_GhUu
Encoding: 123 -1 121
GlifName: si_G_hU_u
Width: 677
VWidth: 0
GlyphClass: 2
Flags: HW
LayerCount: 2
Back
Fore
SplineSet
68 -138 m 256
 68 -80 117 -40 170 -40 c 256
 212 -40 243 -55 266 -91 c 257
 234 -102 l 257
 223 -85 203 -70 174 -70 c 256
 135 -70 110 -95 110 -120 c 256
 110 -152 145 -167 179 -167 c 256
 294 -167 350 -114 458 -114 c 256
 509 -114 555 -134 582 -166 c 257
 582 152 l 257
 617 212 l 257
 617 -231 l 257
 591 -231 l 257
 576 -195 531 -146 468 -146 c 256
 377 -146 306 -237 184 -237 c 256
 129 -237 68 -206 68 -138 c 256
EndSplineSet
Refer: 441 3485 N 1 0 0 1 0 0 2
EndChar

StartChar: si_Gha.reph
Encoding: 124 -1 122
GlifName: si_G_ha.reph
Width: 677
VWidth: 0
GlyphClass: 2
Flags: HW
LayerCount: 2
Back
Fore
SplineSet
297 511 m 256
 297 491 315 475 337 475 c 256
 359 475 377 491 377 511 c 256
 377 531 359 547 337 547 c 256
 315 547 297 531 297 511 c 256
194 530 m 256
 194 594 252 631 334 631 c 256
 411 631 475 588 475 517 c 256
 475 493 467 471 450 452 c 257
 414 452 l 257
 427 464 443 489 443 516 c 256
 443 571 394 602 333 602 c 256
 280 602 227 580 227 530 c 256
 227 491 270 473 288 471 c 257
 280 477 269 491 269 512 c 256
 269 547 300 572 336 572 c 256
 377 572 405 545 405 510 c 256
 405 471 370 445 312 445 c 256
 253 445 194 474 194 530 c 256
EndSplineSet
Refer: 441 3485 N 1 0 0 1 0 0 2
EndChar

StartChar: si_H.halant
Encoding: 407 -1 123
GlifName: si_H_.halant
Width: 653
VWidth: 0
GlyphClass: 2
Flags: HW
LayerCount: 2
Back
Fore
SplineSet
452 413 m 257
 452 681 l 257
 506 639 603 634 603 542 c 256
 603 498 568 468 525 468 c 256
 510 468 495 471 480 478 c 257
 480 407 l 257
 452 413 l 257
480 504 m 257
 488 499 499 497 512 497 c 256
 544 497 558 521 558 545 c 256
 558 586 526 607 480 637 c 257
 480 504 l 257
EndSplineSet
Refer: 476 3524 N 1 0 0 1 0 0 2
EndChar

StartChar: si_HI
Encoding: 408 -1 124
GlifName: si_H_I_
Width: 653
VWidth: 0
GlyphClass: 2
Flags: HW
LayerCount: 2
Back
Fore
SplineSet
150 537 m 256
 150 628 249 667 351 667 c 256
 456 667 559 618 559 523 c 256
 559 461 520 413 439 407 c 257
 417 431 l 257
 420 431 426 431 429 431 c 256
 487 431 517 466 517 498 c 256
 517 552 438 566 358 566 c 256
 277 566 221 538 221 503 c 256
 221 454 325 431 411 431 c 256
 412 431 412 432 413 432 c 257
 397 408 l 257
 237 411 150 462 150 537 c 256
EndSplineSet
Refer: 476 3524 N 1 0 0 1 0 0 2
EndChar

StartChar: si_HIi
Encoding: 409 -1 125
GlifName: si_H_I_i
Width: 653
VWidth: 0
GlyphClass: 2
Flags: HW
LayerCount: 2
Back
Fore
SplineSet
394 520 m 256
 394 487 423 460 460 460 c 256
 497 460 526 487 526 520 c 256
 526 553 497 580 460 580 c 256
 423 580 394 553 394 520 c 256
150 537 m 256
 150 628 249 667 351 667 c 256
 456 667 559 618 559 525 c 256
 559 457 502 431 460 431 c 256
 414 431 361 463 361 520 c 256
 361 539 368 555 375 566 c 257
 369 566 364 566 358 566 c 256
 277 566 221 538 221 503 c 256
 221 454 325 431 411 431 c 256
 412 431 412 432 413 432 c 257
 397 410 l 257
 237 413 150 462 150 537 c 256
EndSplineSet
Refer: 476 3524 N 1 0 0 1 0 0 2
EndChar

StartChar: si_HRIi
Encoding: 414 -1 126
GlifName: si_H_R_I_i
Width: 653
VWidth: 0
GlyphClass: 2
Flags: HW
LayerCount: 2
Back
Fore
SplineSet
394 520 m 256
 394 487 423 460 460 460 c 256
 497 460 526 487 526 520 c 256
 526 553 497 580 460 580 c 256
 423 580 394 553 394 520 c 256
150 537 m 256
 150 628 249 667 351 667 c 256
 456 667 559 618 559 525 c 256
 559 457 502 431 460 431 c 256
 414 431 361 463 361 520 c 256
 361 539 368 555 375 566 c 257
 369 566 364 566 358 566 c 256
 277 566 221 538 221 503 c 256
 221 454 325 431 411 431 c 256
 412 431 412 432 413 432 c 257
 397 410 l 257
 237 413 150 462 150 537 c 256
61 -44 m 257
 91 -44 l 257
 125 -93 185 -114 298 -114 c 256
 450 -114 572 -31 572 63 c 256
 572 78 569 91 562 102 c 257
 576 133 l 257
 594 106 602 75 602 38 c 256
 602 -124 472 -219 320 -219 c 256
 180 -219 98 -153 61 -44 c 257
EndSplineSet
Refer: 476 3524 N 1 0 0 1 0 0 2
EndChar

StartChar: si_HRa
Encoding: 413 -1 127
GlifName: si_H_R_a
Width: 653
VWidth: 0
GlyphClass: 2
Flags: HW
LayerCount: 2
Back
Fore
SplineSet
61 -44 m 257
 91 -44 l 257
 125 -93 185 -114 298 -114 c 256
 450 -114 572 -31 572 63 c 256
 572 78 569 91 562 102 c 257
 576 133 l 257
 594 106 602 75 602 38 c 256
 602 -124 472 -219 320 -219 c 256
 180 -219 98 -153 61 -44 c 257
EndSplineSet
Refer: 476 3524 N 1 0 0 1 0 0 2
EndChar

StartChar: si_HU
Encoding: 410 -1 128
GlifName: si_H_U_
Width: 653
VWidth: 0
GlyphClass: 2
Flags: HW
LayerCount: 2
Back
Fore
SplineSet
45 -142 m 256
 45 -90 92 -50 147 -50 c 256
 189 -50 226 -74 241 -110 c 257
 208 -122 l 257
 201 -105 180 -82 147 -82 c 256
 110 -82 81 -109 81 -142 c 256
 81 -171 102 -192 172 -192 c 258
 563 -192 l 257
 563 128 l 257
 598 219 l 257
 598 -235 l 257
 151 -235 l 258
 71 -235 45 -186 45 -142 c 256
EndSplineSet
Refer: 476 3524 N 1 0 0 1 0 0 2
EndChar

StartChar: si_HUu
Encoding: 411 -1 129
GlifName: si_H_U_u
Width: 653
VWidth: 0
GlyphClass: 2
Flags: HW
LayerCount: 2
Back
Fore
SplineSet
45 -138 m 256
 45 -80 94 -40 147 -40 c 256
 189 -40 221 -55 244 -91 c 257
 211 -102 l 257
 200 -85 181 -70 152 -70 c 256
 113 -70 88 -95 88 -120 c 256
 88 -152 117 -167 151 -167 c 256
 227 -167 331 -114 439 -114 c 256
 490 -114 536 -134 563 -166 c 257
 563 152 l 257
 598 212 l 257
 598 -231 l 257
 572 -231 l 257
 557 -195 512 -146 449 -146 c 256
 358 -146 254 -237 156 -237 c 256
 101 -237 45 -206 45 -138 c 256
EndSplineSet
Refer: 476 3524 N 1 0 0 1 0 0 2
EndChar

StartChar: si_Ha.reph
Encoding: 412 -1 130
GlifName: si_H_a.reph
Width: 653
VWidth: 0
GlyphClass: 2
Flags: HW
LayerCount: 2
Back
Fore
SplineSet
271 511 m 256
 271 491 289 475 311 475 c 256
 333 475 351 491 351 511 c 256
 351 531 333 547 311 547 c 256
 289 547 271 531 271 511 c 256
168 530 m 256
 168 594 226 631 308 631 c 256
 385 631 449 588 449 517 c 256
 449 493 441 471 424 452 c 257
 388 452 l 257
 401 464 417 489 417 516 c 256
 417 571 368 602 307 602 c 256
 254 602 201 580 201 530 c 256
 201 491 244 473 262 471 c 257
 254 477 243 491 243 512 c 256
 243 547 274 572 310 572 c 256
 351 572 379 545 379 510 c 256
 379 471 344 445 286 445 c 256
 227 445 168 474 168 530 c 256
EndSplineSet
Refer: 476 3524 N 1 0 0 1 0 0 2
EndChar

StartChar: si_J.halant
Encoding: 150 -1 131
GlifName: si_J_.halant
Width: 598
VWidth: 0
GlyphClass: 2
Flags: HW
LayerCount: 2
Back
Fore
SplineSet
294 336 m 257
 294 756 l 257
 348 714 446 710 446 618 c 256
 446 574 411 544 368 544 c 256
 353 544 337 547 322 554 c 257
 322 400 l 257
 294 336 l 257
323 580 m 257
 331 575 342 573 355 573 c 256
 387 573 400 597 400 621 c 256
 400 662 369 682 323 712 c 257
 323 580 l 257
EndSplineSet
Refer: 446 3490 N 1 0 0 1 0 0 2
EndChar

StartChar: si_JI
Encoding: 151 -1 132
GlifName: si_J_I_
Width: 598
VWidth: 0
GlyphClass: 2
Flags: HW
LayerCount: 2
Back
Fore
SplineSet
233 490 m 256
 233 577 303 657 382 657 c 256
 429 657 461 626 461 583 c 256
 461 579 460 576 460 572 c 257
 430 544 l 257
 432 549 435 565 435 576 c 256
 435 600 424 609 406 609 c 256
 349 609 295 546 295 482 c 256
 295 450 309 431 340 431 c 256
 349 431 357 431 374 436 c 257
 370 425 l 257
 357 417 329 408 327 407 c 257
 326 407 324 407 323 407 c 256
 260 407 233 440 233 490 c 256
EndSplineSet
Refer: 446 3490 N 1 0 0 1 0 0 2
EndChar

StartChar: si_JIi
Encoding: 152 -1 133
GlifName: si_J_I_i
Width: 598
VWidth: 0
GlyphClass: 2
Flags: HW
LayerCount: 2
Back
Fore
SplineSet
339 579 m 256
 339 552 359 531 386 531 c 256
 413 531 434 552 434 579 c 256
 434 606 413 627 386 627 c 256
 359 627 339 606 339 579 c 256
233 490 m 256
 233 577 304 656 387 656 c 256
 432 656 464 619 464 579 c 256
 464 541 434 502 387 502 c 256
 339 502 315 543 315 558 c 256
 315 558 315 559 315 560 c 257
 304 541 295 516 295 488 c 256
 295 453 317 429 343 429 c 256
 352 429 363 431 372 436 c 257
 370 425 l 257
 357 417 329 408 327 407 c 257
 326 407 324 407 323 407 c 256
 260 407 233 440 233 490 c 256
EndSplineSet
Refer: 446 3490 N 1 0 0 1 0 0 2
EndChar

StartChar: si_JRI
Encoding: 157 -1 134
GlifName: si_J_R_I_
Width: 598
VWidth: 0
GlyphClass: 2
Flags: HW
LayerCount: 2
Back
Fore
SplineSet
40 -44 m 257
 70 -44 l 257
 107 -87 171 -114 276 -114 c 256
 419 -114 518 -31 518 63 c 256
 518 78 516 90 511 102 c 257
 524 133 l 257
 542 106 551 75 551 38 c 256
 551 -124 433 -219 289 -219 c 256
 156 -219 77 -153 40 -44 c 257
233 490 m 256
 233 577 303 657 382 657 c 256
 429 657 461 626 461 583 c 256
 461 579 460 576 460 572 c 257
 430 544 l 257
 432 549 435 565 435 576 c 256
 435 600 424 609 406 609 c 256
 349 609 295 546 295 482 c 256
 295 450 309 431 340 431 c 256
 349 431 357 431 374 436 c 257
 370 425 l 257
 327 407 l 257
 326 407 324 407 323 407 c 256
 260 407 233 440 233 490 c 256
EndSplineSet
Refer: 446 3490 N 1 0 0 1 0 0 2
EndChar

StartChar: si_JRIi
Encoding: 158 -1 135
GlifName: si_J_R_I_i
Width: 598
VWidth: 0
GlyphClass: 2
Flags: HW
LayerCount: 2
Back
Fore
SplineSet
40 -44 m 257
 70 -44 l 257
 107 -87 171 -114 276 -114 c 256
 419 -114 518 -31 518 63 c 256
 518 78 516 90 511 102 c 257
 524 133 l 257
 542 106 551 75 551 38 c 256
 551 -124 433 -219 289 -219 c 256
 156 -219 77 -153 40 -44 c 257
339 579 m 256
 339 552 359 531 386 531 c 256
 413 531 434 552 434 579 c 256
 434 606 413 627 386 627 c 256
 359 627 339 606 339 579 c 256
233 490 m 256
 233 577 304 656 387 656 c 256
 432 656 464 619 464 579 c 256
 464 541 434 502 387 502 c 256
 339 502 315 543 315 558 c 256
 315 558 315 559 315 560 c 257
 304 541 295 516 295 488 c 256
 295 453 317 429 343 429 c 256
 352 429 363 431 372 436 c 257
 370 425 l 257
 327 407 l 257
 326 407 324 407 323 407 c 256
 260 407 233 440 233 490 c 256
EndSplineSet
Refer: 446 3490 N 1 0 0 1 0 0 2
EndChar

StartChar: si_JRa
Encoding: 156 -1 136
GlifName: si_J_R_a
Width: 598
VWidth: 0
GlyphClass: 2
Flags: HW
LayerCount: 2
Back
Fore
SplineSet
40 -44 m 257
 70 -44 l 257
 107 -87 171 -114 276 -114 c 256
 419 -114 518 -31 518 63 c 256
 518 78 516 90 511 102 c 257
 524 133 l 257
 542 106 551 75 551 38 c 256
 551 -124 433 -219 289 -219 c 256
 156 -219 77 -153 40 -44 c 257
EndSplineSet
Refer: 446 3490 N 1 0 0 1 0 0 2
EndChar

StartChar: si_JU
Encoding: 153 -1 137
GlifName: si_J_U_
Width: 598
VWidth: 0
GlyphClass: 2
Flags: HW
LayerCount: 2
Back
Fore
SplineSet
39 -142 m 256
 39 -90 85 -50 140 -50 c 256
 182 -50 219 -74 234 -110 c 257
 202 -122 l 257
 195 -105 173 -82 140 -82 c 256
 103 -82 74 -109 74 -142 c 256
 74 -171 96 -192 166 -192 c 258
 505 -192 l 257
 505 128 l 257
 540 219 l 257
 540 -235 l 257
 144 -235 l 258
 64 -235 39 -186 39 -142 c 256
EndSplineSet
Refer: 446 3490 N 1 0 0 1 0 0 2
EndChar

StartChar: si_JUu
Encoding: 154 -1 138
GlifName: si_J_U_u
Width: 598
VWidth: 0
GlyphClass: 2
Flags: HW
LayerCount: 2
Back
Fore
SplineSet
39 -138 m 256
 39 -80 88 -40 141 -40 c 256
 183 -40 215 -55 238 -91 c 257
 205 -102 l 257
 194 -85 175 -70 146 -70 c 256
 107 -70 82 -95 82 -120 c 256
 82 -152 111 -167 145 -167 c 256
 221 -167 276 -114 384 -114 c 256
 435 -114 479 -134 506 -166 c 257
 506 152 l 257
 541 212 l 257
 541 -231 l 257
 515 -231 l 257
 500 -195 457 -146 394 -146 c 256
 303 -146 248 -237 150 -237 c 256
 95 -237 39 -206 39 -138 c 256
EndSplineSet
Refer: 446 3490 N 1 0 0 1 0 0 2
EndChar

StartChar: si_Ja.reph
Encoding: 155 -1 139
GlifName: si_J_a.reph
Width: 598
VWidth: 0
GlyphClass: 2
Flags: HW
LayerCount: 2
Back
Fore
SplineSet
203 511 m 256
 203 491 221 475 243 475 c 256
 265 475 283 491 283 511 c 256
 283 531 265 547 243 547 c 256
 221 547 203 531 203 511 c 256
100 530 m 256
 100 594 158 631 240 631 c 256
 317 631 381 588 381 517 c 256
 381 493 373 471 356 452 c 257
 320 452 l 257
 333 464 349 489 349 516 c 256
 349 571 300 602 239 602 c 256
 186 602 133 580 133 530 c 256
 133 491 176 473 194 471 c 257
 186 477 175 491 175 512 c 256
 175 547 206 572 242 572 c 256
 283 572 311 545 311 510 c 256
 311 471 276 445 218 445 c 256
 159 445 100 474 100 530 c 256
EndSplineSet
Refer: 446 3490 N 1 0 0 1 0 0 2
EndChar

StartChar: si_Jh.halant
Encoding: 159 -1 140
GlifName: si_J_h.halant
Width: 1087
VWidth: 0
GlyphClass: 2
Flags: HW
LayerCount: 2
Back
Fore
SplineSet
91 143 m 257
 103 153 115 160 129 160 c 256
 161 160 172 140 212 140 c 256
 258 140 280 157 280 214 c 256
 280 216 280 214 280 216 c 257
 308 216 l 257
 308 215 308 216 308 215 c 256
 308 154 332 140 377 140 c 256
 418 140 443 169 443 204 c 256
 443 246 402 287 301 287 c 256
 244 287 205 280 180 268 c 257
 163 253 147 235 131 212 c 256
 104 172 101 163 91 143 c 257
21 22 m 257
 29 91 74 184 109 232 c 256
 135 268 148 280 171 304 c 257
 180 314 192 331 192 352 c 256
 192 371 182 386 158 386 c 256
 144 386 128 379 124 363 c 256
 118 342 122 342 113 323 c 256
 105 306 87 297 72 297 c 256
 35 297 29 328 29 340 c 256
 29 394 79 433 136 433 c 256
 188 433 220 399 220 358 c 256
 220 352 220 349 219 341 c 257
 278 396 377 432 464 432 c 256
 569 432 649 404 671 398 c 257
 664 397 616 385 603 384 c 257
 563 395 516 402 471 402 c 256
 332 402 252 335 216 304 c 257
 246 312 278 314 305 314 c 256
 425 314 515 250 515 126 c 256
 515 68 482 -1 397 -1 c 256
 351 -1 317 20 296 63 c 257
 279 22 246 -1 204 -1 c 256
 117 -1 120 73 87 73 c 256
 65 73 52 51 49 11 c 257
 21 22 l 257
594 536 m 256
 594 527 613 526 613 515 c 256
 613 513 612 510 610 508 c 257
 643 514 683 519 729 519 c 256
 835 519 920 492 978 424 c 257
 943 538 850 574 734 574 c 256
 667 574 594 560 594 536 c 256
483 195 m 256
 483 288 536 364 602 387 c 256
 623 394 646 398 671 398 c 257
 671 371 l 258
 668 371 664 371 661 371 c 256
 582 371 538 312 538 234 c 256
 538 198 565 140 638 140 c 256
 691 140 738 159 738 223 c 258
 738 249 l 257
 769 249 l 257
 769 223 l 258
 769 159 816 141 863 141 c 256
 946 141 976 218 976 296 c 256
 976 413 893 492 732 492 c 256
 656 492 572 475 492 449 c 257
 492 483 l 257
 524 489 574 502 574 508 c 256
 574 520 545 521 545 545 c 256
 545 583 613 629 728 629 c 256
 936 629 1010 490 1022 356 c 257
 1031 331 1038 289 1038 247 c 256
 1038 141 998 0 872 0 c 256
 823 0 783 20 753 59 c 257
 722 20 685 0 640 0 c 256
 538 0 483 96 483 195 c 256
EndSplineSet
EndChar

StartChar: si_JhI
Encoding: 160 -1 141
GlifName: si_J_hI_
Width: 1087
VWidth: 0
GlyphClass: 2
Flags: HW
LayerCount: 2
Back
Fore
SplineSet
91 143 m 257
 103 153 115 160 129 160 c 256
 161 160 172 140 212 140 c 256
 258 140 280 157 280 214 c 256
 280 216 280 214 280 216 c 257
 308 216 l 257
 308 215 308 216 308 215 c 256
 308 154 332 140 377 140 c 256
 418 140 443 169 443 204 c 256
 443 246 402 287 301 287 c 256
 244 287 205 280 180 268 c 257
 163 253 147 235 131 212 c 256
 104 172 101 163 91 143 c 257
21 22 m 257
 29 91 74 184 109 232 c 256
 135 268 148 280 171 304 c 257
 180 314 192 331 192 352 c 256
 192 371 182 386 158 386 c 256
 144 386 128 379 124 363 c 256
 118 342 122 342 113 323 c 256
 105 306 87 297 72 297 c 256
 35 297 29 328 29 340 c 256
 29 394 79 433 136 433 c 256
 188 433 220 399 220 358 c 256
 220 352 220 349 219 341 c 257
 278 396 377 432 464 432 c 256
 569 432 649 404 671 398 c 257
 664 397 616 385 603 384 c 257
 563 395 516 402 471 402 c 256
 332 402 252 335 216 304 c 257
 246 312 278 314 305 314 c 256
 425 314 515 250 515 126 c 256
 515 68 482 -1 397 -1 c 256
 351 -1 317 20 296 63 c 257
 279 22 246 -1 204 -1 c 256
 117 -1 120 73 87 73 c 256
 65 73 52 51 49 11 c 257
 21 22 l 257
EndSplineSet
Refer: 84 -1 N 1 0 0 1 450 0 2
EndChar

StartChar: si_JhIi
Encoding: 161 -1 142
GlifName: si_J_hI_i
Width: 1087
VWidth: 0
GlyphClass: 2
Flags: HW
LayerCount: 2
Back
Fore
SplineSet
91 143 m 257
 103 153 115 160 129 160 c 256
 161 160 172 140 212 140 c 256
 258 140 280 157 280 214 c 256
 280 216 280 214 280 216 c 257
 308 216 l 257
 308 215 308 216 308 215 c 256
 308 154 332 140 377 140 c 256
 418 140 443 169 443 204 c 256
 443 246 402 287 301 287 c 256
 244 287 205 280 180 268 c 257
 163 253 147 235 131 212 c 256
 104 172 101 163 91 143 c 257
21 22 m 257
 29 91 74 184 109 232 c 256
 135 268 148 280 171 304 c 257
 180 314 192 331 192 352 c 256
 192 371 182 386 158 386 c 256
 144 386 128 379 124 363 c 256
 118 342 122 342 113 323 c 256
 105 306 87 297 72 297 c 256
 35 297 29 328 29 340 c 256
 29 394 79 433 136 433 c 256
 188 433 220 399 220 358 c 256
 220 352 220 349 219 341 c 257
 278 396 377 432 464 432 c 256
 569 432 649 404 671 398 c 257
 664 397 616 385 603 384 c 257
 563 395 516 402 471 402 c 256
 332 402 252 335 216 304 c 257
 246 312 278 314 305 314 c 256
 425 314 515 250 515 126 c 256
 515 68 482 -1 397 -1 c 256
 351 -1 317 20 296 63 c 257
 279 22 246 -1 204 -1 c 256
 117 -1 120 73 87 73 c 256
 65 73 52 51 49 11 c 257
 21 22 l 257
EndSplineSet
Refer: 85 -1 N 1 0 0 1 450 0 2
EndChar

StartChar: si_JhRI
Encoding: 168 -1 143
GlifName: si_J_hR_I_
Width: 1087
VWidth: 0
GlyphClass: 2
Flags: HW
LayerCount: 2
Back
Fore
SplineSet
506 -44 m 257
 535 -44 l 257
 572 -87 640 -114 745 -114 c 256
 888 -114 999 -31 999 63 c 256
 999 78 997 90 992 102 c 257
 1005 133 l 257
 1023 106 1032 75 1032 38 c 256
 1032 -124 904 -219 760 -219 c 256
 627 -219 543 -153 506 -44 c 257
EndSplineSet
Refer: 141 -1 N 1 0 0 1 0 0 2
EndChar

StartChar: si_JhRIi
Encoding: 169 -1 144
GlifName: si_J_hR_I_i
Width: 1087
VWidth: 0
GlyphClass: 2
Flags: HW
LayerCount: 2
Back
Fore
SplineSet
506 -44 m 257
 535 -44 l 257
 572 -87 640 -114 745 -114 c 256
 888 -114 999 -31 999 63 c 256
 999 78 997 90 992 102 c 257
 1005 133 l 257
 1023 106 1032 75 1032 38 c 256
 1032 -124 904 -219 760 -219 c 256
 627 -219 543 -153 506 -44 c 257
EndSplineSet
Refer: 142 -1 N 1 0 0 1 0 0 2
EndChar

StartChar: si_JhRa
Encoding: 167 -1 145
GlifName: si_J_hR_a
Width: 1087
VWidth: 0
GlyphClass: 2
Flags: HW
LayerCount: 2
Back
Fore
SplineSet
506 -44 m 257
 535 -44 l 257
 572 -87 640 -114 745 -114 c 256
 888 -114 999 -31 999 63 c 256
 999 78 997 90 992 102 c 257
 1005 133 l 257
 1023 106 1032 75 1032 38 c 256
 1032 -124 904 -219 760 -219 c 256
 627 -219 543 -153 506 -44 c 257
EndSplineSet
Refer: 447 3491 N 1 0 0 1 0 0 2
EndChar

StartChar: si_JhU
Encoding: 162 -1 146
GlifName: si_J_hU_
Width: 1087
VWidth: 0
GlyphClass: 2
Flags: HW
LayerCount: 2
Back
Fore
SplineSet
502 -142 m 256
 502 -90 548 -50 603 -50 c 256
 645 -50 682 -74 697 -110 c 257
 664 -122 l 257
 657 -105 636 -82 603 -82 c 256
 566 -82 537 -109 537 -142 c 256
 537 -171 558 -192 628 -192 c 258
 990 -192 l 257
 990 128 l 257
 1025 219 l 257
 1025 -235 l 257
 607 -235 l 258
 527 -235 502 -186 502 -142 c 256
EndSplineSet
Refer: 447 3491 N 1 0 0 1 0 0 2
EndChar

StartChar: si_JhU.reph
Encoding: 165 -1 147
GlifName: si_J_hU_.reph
Width: 1087
VWidth: 0
GlyphClass: 2
Flags: HW
LayerCount: 2
Back
Fore
SplineSet
724 622 m 256
 724 602 742 586 764 586 c 256
 786 586 805 602 805 622 c 256
 805 642 786 658 764 658 c 256
 742 658 724 642 724 622 c 256
622 641 m 256
 622 705 680 742 762 742 c 256
 839 742 902 699 902 628 c 256
 902 604 895 582 878 563 c 257
 842 563 l 257
 855 575 870 600 870 627 c 256
 870 682 821 714 760 714 c 256
 707 714 654 691 654 641 c 256
 654 602 697 584 715 582 c 257
 707 588 696 602 696 623 c 256
 696 658 728 683 764 683 c 256
 805 683 832 656 832 621 c 256
 832 582 798 556 740 556 c 256
 681 556 622 585 622 641 c 256
EndSplineSet
Refer: 146 -1 N 1 0 0 1 0 0 2
EndChar

StartChar: si_JhUu
Encoding: 163 -1 148
GlifName: si_J_hU_u
Width: 1087
VWidth: 0
GlyphClass: 2
Flags: HW
LayerCount: 2
Back
Fore
SplineSet
501 -138 m 256
 501 -80 550 -40 603 -40 c 256
 645 -40 677 -55 700 -91 c 257
 667 -102 l 257
 656 -85 637 -70 608 -70 c 256
 569 -70 544 -95 544 -120 c 256
 544 -152 573 -167 607 -167 c 256
 683 -167 758 -114 866 -114 c 256
 917 -114 963 -134 990 -166 c 257
 990 152 l 257
 1025 212 l 257
 1025 -231 l 257
 1000 -231 l 257
 985 -195 939 -146 876 -146 c 256
 785 -146 710 -237 612 -237 c 256
 557 -237 501 -206 501 -138 c 256
EndSplineSet
Refer: 447 3491 N 1 0 0 1 0 0 2
EndChar

StartChar: si_JhUu.reph
Encoding: 166 -1 149
GlifName: si_J_hU_u.reph
Width: 1087
VWidth: 0
GlyphClass: 2
Flags: HW
LayerCount: 2
Back
Fore
SplineSet
724 622 m 256
 724 602 742 586 764 586 c 256
 786 586 805 602 805 622 c 256
 805 642 786 658 764 658 c 256
 742 658 724 642 724 622 c 256
622 641 m 256
 622 705 680 742 762 742 c 256
 839 742 902 699 902 628 c 256
 902 604 895 582 878 563 c 257
 842 563 l 257
 855 575 870 600 870 627 c 256
 870 682 821 714 760 714 c 256
 707 714 654 691 654 641 c 256
 654 602 697 584 715 582 c 257
 707 588 696 602 696 623 c 256
 696 658 728 683 764 683 c 256
 805 683 832 656 832 621 c 256
 832 582 798 556 740 556 c 256
 681 556 622 585 622 641 c 256
501 -138 m 256
 501 -80 550 -40 603 -40 c 256
 645 -40 677 -55 700 -91 c 257
 667 -102 l 257
 656 -85 637 -70 608 -70 c 256
 569 -70 544 -95 544 -120 c 256
 544 -152 573 -167 607 -167 c 256
 683 -167 758 -114 866 -114 c 256
 917 -114 963 -134 990 -166 c 257
 990 152 l 257
 1025 212 l 257
 1025 -231 l 257
 1000 -231 l 257
 985 -195 939 -146 876 -146 c 256
 785 -146 710 -237 612 -237 c 256
 557 -237 501 -206 501 -138 c 256
EndSplineSet
Refer: 447 3491 N 1 0 0 1 0 0 2
EndChar

StartChar: si_Jha.reph
Encoding: 164 -1 150
GlifName: si_J_ha.reph
Width: 1087
VWidth: 0
GlyphClass: 2
Flags: HW
LayerCount: 2
Back
Fore
SplineSet
724 622 m 256
 724 602 742 586 764 586 c 256
 786 586 805 602 805 622 c 256
 805 642 786 658 764 658 c 256
 742 658 724 642 724 622 c 256
622 641 m 256
 622 705 680 742 762 742 c 256
 839 742 902 699 902 628 c 256
 902 604 895 582 878 563 c 257
 842 563 l 257
 855 575 870 600 870 627 c 256
 870 682 821 714 760 714 c 256
 707 714 654 691 654 641 c 256
 654 602 697 584 715 582 c 257
 707 588 696 602 696 623 c 256
 696 658 728 683 764 683 c 256
 805 683 832 656 832 621 c 256
 832 582 798 556 740 556 c 256
 681 556 622 585 622 641 c 256
EndSplineSet
Refer: 447 3491 N 1 0 0 1 0 0 2
EndChar

StartChar: si_Jny.halant
Encoding: 182 -1 151
GlifName: si_J_ny.halant
Width: 842
VWidth: 0
GlyphClass: 2
Flags: HW
LayerCount: 2
Back
Fore
SplineSet
654 401 m 257
 654 681 l 257
 708 639 806 634 806 542 c 256
 806 498 771 468 728 468 c 256
 713 468 698 471 683 478 c 257
 683 395 l 257
 654 401 l 257
683 504 m 257
 691 499 702 497 715 497 c 256
 747 497 761 521 761 545 c 256
 761 586 729 607 683 637 c 257
 683 504 l 257
EndSplineSet
Refer: 449 3493 N 1 0 0 1 0 0 2
EndChar

StartChar: si_JnyAa
Encoding: 183 -1 152
GlifName: si_J_nyA_a
Width: 842
VWidth: 0
GlyphClass: 2
Flags: HW
LayerCount: 2
Back
Fore
SplineSet
421 169 m 256
 421 274 494 317 613 317 c 258
 730 317 l 257
 720 363 691 390 658 390 c 256
 639 390 625 379 616 361 c 256
 606 339 589 333 569 333 c 256
 544 333 526 350 526 371 c 256
 526 407 567 433 622 433 c 256
 708 433 752 389 769 291 c 257
 708 291 l 258
 620 291 574 257 574 173 c 256
 574 89 626 44 676 44 c 256
 706 44 731 48 771 94 c 257
 803 75 l 257
 783 58 766 41 751 33 c 257
 754 34 752 34 756 34 c 256
 804 34 837 -18 837 -87 c 256
 837 -175 800 -212 732 -212 c 256
 683 -212 665 -187 665 -166 c 257
 700 -166 l 257
 700 -173 706 -176 714 -176 c 256
 738 -176 750 -151 750 -90 c 256
 750 -45 737 -17 718 -17 c 256
 700 -17 694 -29 694 -45 c 257
 662 -45 l 257
 662 -29 669 -8 680 2 c 257
 668 1 651 -1 624 -1 c 256
 493 -1 421 69 421 169 c 256
134 207 m 256
 134 330 209 432 320 432 c 256
 324 432 329 431 333 431 c 257
 333 406 l 257
 330 406 325 406 322 406 c 256
 236 406 188 327 188 258 c 256
 188 202 227 140 308 140 c 256
 367 140 394 160 394 190 c 256
 394 201 389 220 367 220 c 256
 360 220 351 217 346 213 c 257
 345 207 344 197 344 194 c 257
 314 194 l 257
 328 354 406 438 560 438 c 256
 591 438 641 436 674 426 c 257
 553 408 l 257
 547 408 546 409 540 409 c 256
 443 409 371 348 350 241 c 257
 358 245 363 246 370 246 c 256
 418 246 452 202 452 136 c 256
 452 56 395 -2 308 -2 c 256
 197 -2 134 96 134 207 c 256
27 221 m 256
 27 353 100 433 239 433 c 256
 248 433 299 432 326 431 c 257
 305 420 254 414 238 406 c 257
 135 406 59 347 59 218 c 256
 59 137 86 78 135 34 c 257
 135 0 l 257
 69 33 27 120 27 221 c 256
EndSplineSet
EndChar

StartChar: si_JnyI
Encoding: 187 -1 153
GlifName: si_J_nyI_
Width: 842
VWidth: 0
GlyphClass: 2
Flags: HW
LayerCount: 2
Back
Fore
SplineSet
425 518 m 256
 425 619 516 671 613 671 c 256
 710 671 801 617 801 518 c 256
 801 443 737 406 685 405 c 257
 648 428 l 257
 667 427 l 257
 723 427 744 459 744 488 c 256
 744 535 685 554 613 554 c 256
 541 554 480 537 480 488 c 256
 480 466 497 438 554 438 c 257
 500 424 l 257
 485 427 425 451 425 518 c 256
EndSplineSet
Refer: 449 3493 N 1 0 0 1 0 0 2
EndChar

StartChar: si_JnyIi
Encoding: 188 -1 154
GlifName: si_J_nyI_i
Width: 842
VWidth: 0
GlyphClass: 2
Flags: HW
LayerCount: 2
Back
Fore
SplineSet
639 492 m 256
 639 462 668 439 703 439 c 256
 738 439 766 462 766 492 c 256
 766 522 738 546 703 546 c 256
 668 546 639 522 639 492 c 256
425 522 m 256
 425 614 516 671 613 671 c 256
 710 671 802 620 802 511 c 256
 802 440 753 408 702 408 c 256
 642 408 605 449 605 494 c 256
 605 536 637 556 644 560 c 257
 637 561 629 561 614 561 c 256
 555 561 472 546 472 490 c 256
 472 462 501 438 550 438 c 257
 498 423 l 257
 474 429 425 463 425 522 c 256
EndSplineSet
Refer: 449 3493 N 1 0 0 1 0 0 2
EndChar

StartChar: si_JnyRI
Encoding: 192 -1 155
GlifName: si_J_nyR_I_
Width: 842
VWidth: 0
GlyphClass: 2
Flags: HW
LayerCount: 2
Back
Fore
SplineSet
421 169 m 256
 421 274 494 317 613 317 c 258
 730 317 l 257
 720 363 691 390 658 390 c 256
 639 390 625 379 616 361 c 256
 606 339 589 333 569 333 c 256
 544 333 526 350 526 371 c 256
 526 407 567 433 622 433 c 256
 708 433 752 389 769 291 c 257
 707 291 l 258
 619 291 574 257 574 173 c 256
 574 89 626 44 676 44 c 256
 706 44 731 48 771 94 c 257
 797 79 l 257
 756 30 713 -1 624 -1 c 256
 493 -1 421 69 421 169 c 256
425 518 m 256
 425 619 516 671 613 671 c 256
 710 671 801 617 801 518 c 256
 801 443 737 406 685 405 c 257
 646 427 l 257
 667 427 l 257
 723 427 744 459 744 488 c 256
 744 535 685 554 613 554 c 256
 541 554 480 537 480 488 c 256
 480 466 497 438 554 438 c 257
 500 424 l 257
 485 427 425 451 425 518 c 256
424 -43 m 257
 451 -43 l 257
 478 -84 517 -103 594 -103 c 256
 684 -103 770 -38 770 51 c 256
 770 72 769 66 768 74 c 257
 797 79 l 257
 797 59 797 76 797 39 c 256
 797 -109 710 -204 605 -204 c 256
 500 -204 444 -145 424 -43 c 257
27 221 m 256
 27 353 100 433 239 433 c 256
 248 433 299 432 326 431 c 257
 305 420 254 414 238 406 c 257
 135 406 59 347 59 218 c 256
 59 137 86 78 135 34 c 257
 135 0 l 257
 69 33 27 120 27 221 c 256
134 207 m 256
 134 330 209 432 320 432 c 256
 324 432 329 431 333 431 c 257
 333 406 l 257
 330 406 325 406 322 406 c 256
 236 406 188 327 188 258 c 256
 188 202 227 140 308 140 c 256
 367 140 394 160 394 190 c 256
 394 201 389 220 367 220 c 256
 360 220 351 217 346 213 c 257
 345 207 344 197 344 194 c 257
 314 194 l 257
 328 354 406 438 560 438 c 256
 591 438 641 436 674 426 c 257
 553 408 l 257
 547 408 546 409 540 409 c 256
 443 409 371 348 350 241 c 257
 358 245 363 246 370 246 c 256
 418 246 452 202 452 136 c 256
 452 56 395 -2 308 -2 c 256
 197 -2 134 96 134 207 c 256
EndSplineSet
EndChar

StartChar: si_JnyRIi
Encoding: 193 -1 156
GlifName: si_J_nyR_I_i
Width: 842
VWidth: 0
GlyphClass: 2
Flags: HW
LayerCount: 2
Back
Fore
SplineSet
639 492 m 256
 639 462 668 439 703 439 c 256
 738 439 766 462 766 492 c 256
 766 522 738 546 703 546 c 256
 668 546 639 522 639 492 c 256
425 518 m 256
 425 619 516 671 613 671 c 256
 710 671 802 620 802 511 c 256
 802 440 753 408 702 408 c 256
 642 408 605 449 605 494 c 256
 605 536 637 556 644 560 c 257
 637 561 629 561 614 561 c 256
 555 561 478 548 478 492 c 256
 478 464 503 432 565 432 c 257
 546 412 l 257
 480 422 425 451 425 518 c 256
424 -43 m 257
 451 -43 l 257
 478 -84 517 -103 594 -103 c 256
 684 -103 770 -38 770 51 c 256
 770 72 769 66 768 74 c 257
 797 79 l 257
 797 59 797 76 797 39 c 256
 797 -109 710 -204 605 -204 c 256
 500 -204 444 -145 424 -43 c 257
421 169 m 256
 421 274 494 317 613 317 c 258
 730 317 l 257
 720 363 691 390 658 390 c 256
 639 390 625 379 616 361 c 256
 606 339 589 333 569 333 c 256
 544 333 526 350 526 371 c 256
 526 407 567 433 622 433 c 256
 708 433 752 389 769 291 c 257
 707 291 l 258
 619 291 574 257 574 173 c 256
 574 89 626 44 676 44 c 256
 706 44 731 48 771 94 c 257
 797 79 l 257
 756 30 713 -1 624 -1 c 256
 493 -1 421 69 421 169 c 256
134 207 m 256
 134 330 209 432 320 432 c 256
 324 432 329 431 333 431 c 257
 333 406 l 257
 330 406 325 406 322 406 c 256
 236 406 188 327 188 258 c 256
 188 202 227 140 308 140 c 256
 367 140 394 160 394 190 c 256
 394 201 389 220 367 220 c 256
 360 220 351 217 346 213 c 257
 345 207 344 197 344 194 c 257
 314 194 l 257
 328 354 406 438 560 438 c 256
 591 438 641 436 674 426 c 257
 553 408 l 257
 547 408 546 409 540 409 c 256
 443 409 371 348 350 241 c 257
 358 245 363 246 370 246 c 256
 418 246 452 202 452 136 c 256
 452 56 395 -2 308 -2 c 256
 197 -2 134 96 134 207 c 256
27 221 m 256
 27 353 100 433 239 433 c 256
 248 433 299 432 326 431 c 257
 305 420 254 414 238 406 c 257
 135 406 59 347 59 218 c 256
 59 137 86 78 135 34 c 257
 135 0 l 257
 69 33 27 120 27 221 c 256
EndSplineSet
EndChar

StartChar: si_JnyRa
Encoding: 191 -1 157
GlifName: si_J_nyR_a
Width: 842
VWidth: 0
GlyphClass: 2
Flags: HW
LayerCount: 2
Back
Fore
SplineSet
424 -43 m 257
 451 -43 l 257
 478 -84 517 -103 594 -103 c 256
 684 -103 770 -38 770 51 c 256
 770 72 769 66 768 74 c 257
 797 79 l 257
 797 59 797 76 797 39 c 256
 797 -109 710 -204 605 -204 c 256
 500 -204 444 -145 424 -43 c 257
421 169 m 256
 421 274 494 317 613 317 c 258
 730 317 l 257
 720 363 691 390 658 390 c 256
 639 390 625 379 616 361 c 256
 606 339 589 333 569 333 c 256
 544 333 526 350 526 371 c 256
 526 407 567 433 622 433 c 256
 708 433 752 389 769 291 c 257
 707 291 l 258
 619 291 574 257 574 173 c 256
 574 89 626 44 676 44 c 256
 706 44 731 48 771 94 c 257
 797 79 l 257
 756 30 713 -1 624 -1 c 256
 493 -1 421 69 421 169 c 256
27 221 m 256
 27 353 100 433 239 433 c 256
 248 433 299 432 326 431 c 257
 305 420 254 414 238 406 c 257
 135 406 59 347 59 218 c 256
 59 137 86 78 135 34 c 257
 135 0 l 257
 69 33 27 120 27 221 c 256
134 207 m 256
 134 330 209 432 320 432 c 256
 324 432 329 431 333 431 c 257
 333 406 l 257
 330 406 325 406 322 406 c 256
 236 406 188 327 188 258 c 256
 188 202 227 140 308 140 c 256
 367 140 394 160 394 190 c 256
 394 201 389 220 367 220 c 256
 360 220 351 217 346 213 c 257
 345 207 344 197 344 194 c 257
 314 194 l 257
 328 354 406 438 560 438 c 256
 591 438 641 436 674 426 c 257
 553 408 l 257
 547 408 546 409 540 409 c 256
 443 409 371 348 350 241 c 257
 358 245 363 246 370 246 c 256
 418 246 452 202 452 136 c 256
 452 56 395 -2 308 -2 c 256
 197 -2 134 96 134 207 c 256
EndSplineSet
EndChar

StartChar: si_JnyU
Encoding: 189 -1 158
GlifName: si_J_nyU_
Width: 842
VWidth: 0
GlyphClass: 2
Flags: HW
LayerCount: 2
Back
Fore
SplineSet
423 -142 m 256
 423 -90 469 -50 524 -50 c 256
 566 -50 603 -74 618 -110 c 257
 586 -122 l 257
 579 -105 557 -82 524 -82 c 256
 487 -82 458 -109 458 -142 c 256
 458 -171 480 -192 550 -192 c 258
 762 -192 l 257
 762 71 l 257
 797 79 l 257
 797 -235 l 257
 528 -235 l 258
 448 -235 423 -186 423 -142 c 256
421 169 m 256
 421 274 494 317 613 317 c 258
 730 317 l 257
 720 363 691 390 658 390 c 256
 639 390 625 379 616 361 c 256
 606 339 589 333 569 333 c 256
 544 333 526 350 526 371 c 256
 526 407 567 433 622 433 c 256
 708 433 752 389 769 291 c 257
 707 291 l 258
 619 291 574 257 574 173 c 256
 574 89 626 44 676 44 c 256
 706 44 731 48 771 94 c 257
 796 79 l 257
 759 31 713 -1 624 -1 c 256
 493 -1 421 69 421 169 c 256
27 221 m 256
 27 353 100 433 239 433 c 256
 248 433 299 432 326 431 c 257
 305 420 254 414 238 406 c 257
 135 406 59 347 59 218 c 256
 59 137 86 78 135 34 c 257
 135 0 l 257
 69 33 27 120 27 221 c 256
134 207 m 256
 134 330 209 432 320 432 c 256
 324 432 329 431 333 431 c 257
 333 406 l 257
 330 406 325 406 322 406 c 256
 236 406 188 327 188 258 c 256
 188 202 227 140 308 140 c 256
 367 140 394 160 394 190 c 256
 394 201 389 220 367 220 c 256
 360 220 351 217 346 213 c 257
 345 207 344 197 344 194 c 257
 314 194 l 257
 328 354 406 438 560 438 c 256
 591 438 641 436 674 426 c 257
 553 408 l 257
 547 408 546 409 540 409 c 256
 443 409 371 348 350 241 c 257
 358 245 363 246 370 246 c 256
 418 246 452 202 452 136 c 256
 452 56 395 -2 308 -2 c 256
 197 -2 134 96 134 207 c 256
EndSplineSet
EndChar

StartChar: si_JnyUu
Encoding: 190 -1 159
GlifName: si_J_nyU_u
Width: 842
VWidth: 0
GlyphClass: 2
Flags: HW
LayerCount: 2
Back
Fore
SplineSet
423 -138 m 256
 423 -80 472 -40 525 -40 c 256
 567 -40 599 -55 622 -91 c 257
 589 -102 l 257
 578 -85 559 -70 530 -70 c 256
 491 -70 466 -95 466 -120 c 256
 466 -152 495 -167 529 -167 c 256
 596 -167 617 -128 686 -128 c 256
 713 -128 742 -138 762 -157 c 257
 762 69 l 257
 797 79 l 257
 797 -233 l 257
 772 -231 l 257
 757 -195 730 -159 686 -159 c 256
 632 -159 612 -237 525 -237 c 256
 470 -237 423 -206 423 -138 c 256
421 169 m 256
 421 274 494 317 613 317 c 258
 730 317 l 257
 720 363 691 390 658 390 c 256
 639 390 625 379 616 361 c 256
 606 339 589 333 569 333 c 256
 544 333 526 350 526 371 c 256
 526 407 567 433 622 433 c 256
 708 433 752 389 769 291 c 257
 707 291 l 258
 619 291 574 257 574 173 c 256
 574 89 626 44 676 44 c 256
 706 44 731 48 771 94 c 257
 797 79 l 257
 756 30 713 -1 624 -1 c 256
 493 -1 421 69 421 169 c 256
27 221 m 256
 27 353 100 433 239 433 c 256
 248 433 299 432 326 431 c 257
 305 420 254 414 238 406 c 257
 135 406 59 347 59 218 c 256
 59 137 86 78 135 34 c 257
 135 0 l 257
 69 33 27 120 27 221 c 256
134 207 m 256
 134 330 209 432 320 432 c 256
 324 432 329 431 333 431 c 257
 333 406 l 257
 330 406 325 406 322 406 c 256
 236 406 188 327 188 258 c 256
 188 202 227 140 308 140 c 256
 367 140 394 160 394 190 c 256
 394 201 389 220 367 220 c 256
 360 220 351 217 346 213 c 257
 345 207 344 197 344 194 c 257
 314 194 l 257
 328 354 406 438 560 438 c 256
 591 438 641 436 674 426 c 257
 553 408 l 257
 547 408 546 409 540 409 c 256
 443 409 371 348 350 241 c 257
 358 245 363 246 370 246 c 256
 418 246 452 202 452 136 c 256
 452 56 395 -2 308 -2 c 256
 197 -2 134 96 134 207 c 256
EndSplineSet
EndChar

StartChar: si_K.halant
Encoding: 90 -1 160
GlifName: si_K_.halant
Width: 746
VWidth: 0
GlyphClass: 2
Flags: HW
LayerCount: 2
Back
Fore
SplineSet
550 348 m 257
 550 681 l 257
 604 639 701 634 701 542 c 256
 701 498 666 468 623 468 c 256
 608 468 593 471 578 478 c 257
 578 331 l 257
 550 348 l 257
578 504 m 257
 586 499 597 497 610 497 c 256
 642 497 656 521 656 545 c 256
 656 586 624 607 578 637 c 257
 578 504 l 257
EndSplineSet
Refer: 438 3482 N 1 0 0 1 0 0 2
EndChar

StartChar: si_KI
Encoding: 91 -1 161
GlifName: si_K_I_
Width: 746
VWidth: 0
GlyphClass: 2
Flags: HW
LayerCount: 2
Back
Fore
SplineSet
218 421 m 256
 218 590 330 671 473 671 c 256
 603 671 688 610 688 505 c 256
 688 444 658 402 610 383 c 257
 579 404 l 257
 613 408 633 426 633 456 c 256
 633 515 555 550 473 550 c 256
 336 550 246 474 246 396 c 256
 246 387 247 376 250 366 c 257
 225 343 l 257
 221 361 218 390 218 421 c 256
EndSplineSet
Refer: 438 3482 N 1 0 0 1 0 0 2
EndChar

StartChar: si_KIi
Encoding: 92 -1 162
GlifName: si_K_I_i
Width: 746
VWidth: 0
GlyphClass: 2
Flags: HW
LayerCount: 2
Back
Fore
SplineSet
532 476 m 256
 532 445 559 418 591 418 c 256
 623 418 650 445 650 476 c 256
 650 507 623 534 591 534 c 256
 559 534 532 507 532 476 c 256
218 421 m 256
 218 590 330 671 473 671 c 256
 603 671 689 600 689 495 c 256
 689 444 651 388 593 388 c 256
 535 388 500 433 500 477 c 256
 500 509 514 528 531 543 c 257
 518 547 491 550 474 550 c 256
 324 550 246 464 246 398 c 256
 246 383 248 376 250 365 c 257
 225 343 l 257
 221 361 218 390 218 421 c 256
EndSplineSet
Refer: 438 3482 N 1 0 0 1 0 0 2
EndChar

StartChar: si_KRI
Encoding: 98 -1 163
GlifName: si_K_R_I_
Width: 746
VWidth: 0
GlyphClass: 2
Flags: HW
LayerCount: 2
Back
Fore
SplineSet
114 -44 m 257
 144 -44 l 257
 178 -93 248 -113 361 -113 c 256
 513 -113 656 -31 656 63 c 256
 656 78 653 91 646 102 c 257
 659 133 l 257
 677 106 686 75 686 38 c 256
 686 -124 537 -219 385 -219 c 256
 245 -219 151 -153 114 -44 c 257
EndSplineSet
Refer: 161 -1 N 1 0 0 1 0 0 2
EndChar

StartChar: si_KRIi
Encoding: 99 -1 164
GlifName: si_K_R_I_i
Width: 746
VWidth: 0
GlyphClass: 2
Flags: HW
LayerCount: 2
Back
Fore
SplineSet
114 -44 m 257
 144 -44 l 257
 178 -93 248 -113 361 -113 c 256
 513 -113 656 -31 656 63 c 256
 656 78 653 91 646 102 c 257
 659 133 l 257
 677 106 686 75 686 38 c 256
 686 -124 537 -219 385 -219 c 256
 245 -219 151 -153 114 -44 c 257
EndSplineSet
Refer: 162 -1 N 1 0 0 1 0 0 2
EndChar

StartChar: si_KRa
Encoding: 97 -1 165
GlifName: si_K_R_a
Width: 746
VWidth: 0
GlyphClass: 2
Flags: HW
LayerCount: 2
Back
Fore
SplineSet
114 -44 m 257
 144 -44 l 257
 178 -93 248 -113 361 -113 c 256
 513 -113 656 -31 656 63 c 256
 656 78 653 91 646 102 c 257
 659 133 l 257
 677 106 686 75 686 38 c 256
 686 -124 537 -219 385 -219 c 256
 245 -219 151 -153 114 -44 c 257
EndSplineSet
Refer: 438 3482 N 1 0 0 1 0 0 2
EndChar

StartChar: si_KSs.halant
Encoding: 440 -1 166
GlifName: si_K_S_s.halant
Width: 1069
VWidth: 0
GlyphClass: 2
Flags: HW
LayerCount: 2
Back
Fore
SplineSet
869 423 m 257
 869 681 l 257
 923 639 1020 634 1020 542 c 256
 1020 498 985 468 942 468 c 256
 927 468 912 471 897 478 c 257
 897 410 l 257
 869 423 l 257
897 504 m 257
 905 499 917 497 930 497 c 256
 962 497 975 521 975 545 c 256
 975 586 943 607 897 637 c 257
 897 504 l 257
EndSplineSet
Refer: 171 -1 N 1 0 0 1 0 0 2
EndChar

StartChar: si_KSsI
Encoding: 441 -1 167
GlifName: si_K_S_sI_
Width: 1069
VWidth: 0
GlyphClass: 2
Flags: HW
LayerCount: 2
Back
Fore
SplineSet
515 518 m 256
 515 626 628 671 747 671 c 256
 866 671 979 626 979 518 c 256
 979 443 913 408 836 405 c 257
 839 426 l 257
 893 429 914 447 914 479 c 256
 914 521 833 536 747 536 c 256
 658 536 576 522 576 479 c 256
 576 450 602 429 656 426 c 257
 658 405 l 257
 581 408 515 443 515 518 c 256
EndSplineSet
Refer: 171 -1 N 1 0 0 1 0 0 2
EndChar

StartChar: si_KSsIi
Encoding: 442 -1 168
GlifName: si_K_S_sI_i
Width: 1069
VWidth: 0
GlyphClass: 2
Flags: HW
LayerCount: 2
Back
Fore
SplineSet
834 514 m 256
 834 484 864 459 899 459 c 256
 934 459 963 484 963 514 c 256
 963 544 934 569 899 569 c 256
 864 569 834 544 834 514 c 256
496 517 m 256
 496 624 620 671 747 671 c 256
 864 671 1000 627 1000 524 c 256
 1000 469 955 429 899 429 c 256
 841 429 801 470 801 515 c 256
 801 525 804 549 817 562 c 257
 808 563 768 565 735 565 c 256
 641 565 542 543 542 482 c 256
 542 460 555 437 590 428 c 257
 586 406 l 257
 533 411 496 456 496 517 c 256
EndSplineSet
Refer: 171 -1 N 1 0 0 1 0 0 2
EndChar

StartChar: si_KSsU
Encoding: 443 -1 169
GlifName: si_K_S_sU_
Width: 1069
VWidth: 0
GlyphClass: 2
Flags: HW
LayerCount: 2
Back
Fore
SplineSet
492 -142 m 256
 492 -90 539 -50 594 -50 c 256
 636 -50 673 -74 688 -110 c 257
 655 -122 l 257
 648 -105 627 -82 594 -82 c 256
 557 -82 528 -109 528 -142 c 256
 528 -171 550 -192 620 -192 c 258
 980 -192 l 257
 980 128 l 257
 1015 219 l 257
 1015 -235 l 257
 598 -235 l 258
 518 -235 492 -186 492 -142 c 256
EndSplineSet
Refer: 171 -1 N 1 0 0 1 0 0 2
EndChar

StartChar: si_KSsUu
Encoding: 444 -1 170
GlifName: si_K_S_sU_u
Width: 1069
VWidth: 0
GlyphClass: 2
Flags: HW
LayerCount: 2
Back
Fore
SplineSet
491 -138 m 256
 491 -80 540 -40 593 -40 c 256
 635 -40 667 -55 690 -91 c 257
 657 -102 l 257
 646 -85 627 -70 598 -70 c 256
 559 -70 534 -95 534 -120 c 256
 534 -152 568 -167 602 -167 c 256
 717 -167 751 -114 859 -114 c 256
 910 -114 953 -134 980 -166 c 257
 980 152 l 257
 1015 212 l 257
 1015 -231 l 257
 989 -231 l 257
 974 -195 932 -146 869 -146 c 256
 778 -146 729 -237 607 -237 c 256
 552 -237 491 -206 491 -138 c 256
EndSplineSet
Refer: 171 -1 N 1 0 0 1 0 0 2
EndChar

StartChar: si_KSsa
Encoding: 429 -1 171
GlifName: si_K_S_sa
Width: 1069
VWidth: 0
GlyphClass: 2
Flags: HW
LayerCount: 2
Back
Fore
SplineSet
91 143 m 257
 103 153 115 160 129 160 c 256
 161 160 172 140 212 140 c 256
 258 140 280 157 280 214 c 256
 280 216 280 214 280 216 c 257
 308 216 l 257
 308 215 308 216 308 215 c 256
 308 154 332 140 377 140 c 256
 418 140 443 169 443 204 c 256
 443 246 402 287 301 287 c 256
 244 287 205 280 180 268 c 257
 163 253 147 235 131 212 c 256
 104 172 101 163 91 143 c 257
21 22 m 257
 29 91 74 184 109 232 c 256
 135 268 148 280 171 304 c 257
 180 314 192 331 192 352 c 256
 192 371 182 386 158 386 c 256
 144 386 128 379 124 363 c 256
 118 342 122 342 113 323 c 256
 105 306 87 297 72 297 c 256
 35 297 29 328 29 340 c 256
 29 394 79 433 136 433 c 256
 188 433 220 399 220 358 c 256
 220 352 220 349 219 341 c 257
 292 392 405 436 544 436 c 256
 599 436 624 432 624 432 c 257
 617 431 546 404 543 403 c 257
 543 403 540 404 536 404 c 256
 361 404 252 335 216 304 c 257
 246 312 278 314 305 314 c 256
 425 314 515 250 515 126 c 256
 515 68 482 -1 397 -1 c 256
 351 -1 317 20 296 63 c 257
 279 22 246 -1 204 -1 c 256
 117 -1 120 73 87 73 c 256
 65 73 52 51 49 11 c 257
 21 22 l 257
479 184 m 256
 479 275 546 328 654 328 c 256
 667 328 677 327 690 326 c 257
 690 330 690 332 690 336 c 256
 690 375 663 392 638 392 c 256
 606 392 598 375 593 356 c 256
 589 342 574 326 546 326 c 256
 519 326 502 341 502 366 c 256
 502 408 550 434 605 434 c 256
 677 434 722 401 722 334 c 256
 722 323 721 311 718 298 c 257
 700 300 665 302 664 302 c 256
 587 302 541 279 541 228 c 256
 541 162 640 131 754 131 c 256
 861 131 961 160 961 228 c 256
 961 277 919 304 841 304 c 256
 818 304 794 301 771 297 c 257
 769 308 768 318 768 328 c 256
 768 397 813 433 886 433 c 256
 952 433 988 393 988 354 c 256
 988 292 896 270 846 260 c 257
 865 251 879 237 879 220 c 256
 879 175 822 162 743 162 c 256
 687 162 619 173 619 222 c 256
 619 247 639 274 735 274 c 256
 758 274 805 274 836 280 c 256
 886 289 949 306 949 351 c 256
 949 380 922 402 879 402 c 256
 836 402 802 377 802 336 c 256
 802 332 802 330 803 326 c 257
 820 328 834 330 850 330 c 256
 941 330 1021 293 1021 186 c 256
 1021 55 895 0 754 0 c 256
 606 0 479 46 479 184 c 256
651 221 m 256
 651 198 683 188 746 188 c 256
 813 188 847 198 847 220 c 256
 847 244 814 251 745 251 c 256
 681 251 651 243 651 221 c 256
EndSplineSet
EndChar

StartChar: si_KU
Encoding: 93 -1 172
GlifName: si_K_U_
Width: 746
VWidth: 0
GlyphClass: 2
Flags: HW
LayerCount: 2
Back
Fore
SplineSet
444 -80 m 256
 444 -29 471 5 513 23 c 257
 522 -6 l 257
 505 -12 489 -26 489 -48 c 256
 489 -84 534 -105 587 -105 c 256
 646 -105 692 -83 692 -45 c 256
 692 -42 691 -39 691 -36 c 257
 721 -36 l 257
 723 -45 724 -61 724 -70 c 256
 724 -123 681 -192 582 -192 c 256
 513 -192 444 -149 444 -80 c 256
21 22 m 257
 29 91 74 184 109 232 c 256
 135 268 148 280 171 304 c 257
 180 314 192 331 192 352 c 256
 192 371 182 386 158 386 c 256
 144 386 128 379 124 363 c 256
 118 342 122 342 113 323 c 256
 105 306 87 297 72 297 c 256
 35 297 29 328 29 340 c 256
 29 394 79 433 136 433 c 256
 188 433 220 399 220 358 c 256
 220 352 220 349 219 341 c 257
 278 396 366 434 453 434 c 256
 603 434 701 327 701 194 c 256
 701 81 638 -1 555 -1 c 256
 535 -1 527 -4 519 -7 c 257
 510 22 l 257
 516 25 534 29 547 29 c 256
 583 29 597 77 597 123 c 256
 597 288 469 348 358 348 c 256
 294 348 244 330 214 304 c 257
 244 312 278 314 305 314 c 256
 425 314 515 250 515 126 c 256
 515 68 482 -1 397 -1 c 256
 351 -1 317 20 296 63 c 257
 279 22 246 -1 204 -1 c 256
 117 -1 120 73 87 73 c 256
 65 73 52 51 49 11 c 257
 21 22 l 257
91 143 m 257
 103 153 115 160 129 160 c 256
 161 160 172 140 212 140 c 256
 258 140 280 157 280 214 c 256
 280 216 280 214 280 216 c 257
 308 216 l 257
 308 215 308 216 308 215 c 256
 308 154 332 140 377 140 c 256
 418 140 443 169 443 204 c 256
 443 246 402 287 301 287 c 256
 244 287 205 280 180 268 c 257
 163 253 147 235 131 212 c 256
 104 172 101 163 91 143 c 257
EndSplineSet
EndChar

StartChar: si_KUu
Encoding: 94 -1 174
GlifName: si_K_U_u
Width: 746
VWidth: 0
GlyphClass: 2
Flags: HW
LayerCount: 2
Back
Fore
SplineSet
446 -129 m 256
 446 -93 475 -72 510 -67 c 257
 455 -39 l 257
 540 -14 l 257
 504 -0 l 257
 504 22 l 257
 602 -15 l 257
 518 -43 l 257
 578 -76 l 257
 550 -83 496 -83 496 -104 c 256
 496 -120 528 -129 570 -129 c 256
 624 -129 668 -113 668 -82 c 256
 668 -77 667 -67 662 -59 c 257
 697 -59 l 257
 701 -71 701 -83 701 -94 c 256
 701 -161 650 -205 568 -205 c 256
 510 -205 446 -187 446 -129 c 256
EndSplineSet
Refer: 438 3482 N 1 0 0 1 0 0 2
EndChar

StartChar: si_KV.halant
Encoding: 445 -1 175
GlifName: si_K_V_.halant
Width: 1061
VWidth: 0
GlyphClass: 2
Flags: HW
LayerCount: 2
Back
Fore
SplineSet
21 22 m 257
 29 91 74 184 109 232 c 256
 135 268 148 280 171 304 c 257
 180 314 191 331 191 352 c 256
 191 371 182 386 158 386 c 256
 144 386 128 379 124 363 c 256
 118 342 122 342 113 323 c 256
 105 306 87 297 72 297 c 256
 35 297 29 328 29 340 c 256
 29 394 79 433 136 433 c 256
 188 433 220 399 220 358 c 256
 220 352 220 349 219 341 c 257
 255 367 302 392 367 411 c 256
 433 432 508 436 551 436 c 256
 620 436 655 429 673 425 c 257
 668 424 606 405 597 404 c 257
 582 405 561 406 549 406 c 256
 490 406 440 397 412 391 c 256
 325 373 262 335 220 306 c 257
 248 312 278 314 305 314 c 256
 425 314 515 250 515 126 c 256
 515 68 482 -1 397 -1 c 256
 351 -1 317 20 296 63 c 257
 279 22 246 -1 204 -1 c 256
 117 -1 120 73 87 73 c 256
 65 73 52 51 49 11 c 257
 21 22 l 257
91 143 m 257
 103 153 115 160 129 160 c 256
 161 160 172 140 212 140 c 256
 258 140 280 157 280 214 c 256
 280 216 280 214 280 216 c 257
 308 216 l 257
 308 215 308 216 308 215 c 256
 308 154 332 140 377 140 c 256
 418 140 443 169 443 204 c 256
 443 246 402 287 301 287 c 256
 244 287 205 280 180 268 c 257
 163 253 147 235 131 212 c 256
 104 172 101 163 91 143 c 257
497 165 m 256
 497 250 562 304 663 304 c 258
 720 304 l 258
 720 306 720 306 720 308 c 256
 720 358 688 387 655 387 c 256
 621 387 610 371 604 355 c 256
 597 336 586 319 560 319 c 256
 537 319 520 333 520 359 c 256
 520 406 570 432 625 432 c 256
 713 432 756 376 756 290 c 256
 756 287 756 280 756 277 c 258
 675 277 l 258
 601 277 565 250 565 213 c 256
 565 151 660 140 734 140 c 256
 886 140 949 211 948 316 c 256
 947 427 871 492 723 492 c 256
 647 492 584 475 503 451 c 257
 503 484 l 257
 535 492 585 499 585 508 c 256
 585 520 557 520 557 546 c 256
 557 583 623 629 729 629 c 256
 932 629 992 490 1004 356 c 256
 1010 328 1012 305 1012 274 c 256
 1012 114 914 0 731 0 c 256
 610 0 497 46 497 165 c 256
605 538 m 256
 605 526 624 526 624 515 c 256
 624 513 623 510 621 508 c 257
 653 515 680 519 726 519 c 256
 834 519 905 489 960 425 c 257
 927 536 847 574 731 574 c 256
 659 574 605 558 605 538 c 256
EndSplineSet
EndChar

StartChar: si_KVI
Encoding: 446 -1 176
GlifName: si_K_V_I_
Width: 1061
VWidth: 0
GlyphClass: 2
Flags: HW
LayerCount: 2
Back
Fore
SplineSet
21 22 m 257
 29 91 74 184 109 232 c 256
 135 268 148 280 171 304 c 257
 180 314 191 331 191 352 c 256
 191 371 182 386 158 386 c 256
 144 386 128 379 124 363 c 256
 118 342 122 342 113 323 c 256
 105 306 87 297 72 297 c 256
 35 297 29 328 29 340 c 256
 29 394 79 433 136 433 c 256
 188 433 220 399 220 358 c 256
 220 352 220 349 219 341 c 257
 255 367 302 392 367 411 c 256
 433 432 508 436 551 436 c 256
 620 436 655 429 673 425 c 257
 668 424 606 405 597 404 c 257
 582 405 561 406 549 406 c 256
 490 406 440 397 412 391 c 256
 325 373 262 335 220 306 c 257
 248 312 278 314 305 314 c 256
 425 314 515 250 515 126 c 256
 515 68 482 -1 397 -1 c 256
 351 -1 317 20 296 63 c 257
 279 22 246 -1 204 -1 c 256
 117 -1 120 73 87 73 c 256
 65 73 52 51 49 11 c 257
 21 22 l 257
91 143 m 257
 103 153 115 160 129 160 c 256
 161 160 172 140 212 140 c 256
 258 140 280 157 280 214 c 256
 280 216 280 214 280 216 c 257
 308 216 l 257
 308 215 308 216 308 215 c 256
 308 154 332 140 377 140 c 256
 418 140 443 169 443 204 c 256
 443 246 402 287 301 287 c 256
 244 287 205 280 180 268 c 257
 163 253 147 235 131 212 c 256
 104 172 101 163 91 143 c 257
EndSplineSet
Refer: 396 -1 N 1 0 0 1 465 0 2
EndChar

StartChar: si_KVIi
Encoding: 447 -1 177
GlifName: si_K_V_I_i
Width: 1061
VWidth: 0
GlyphClass: 2
Flags: HW
LayerCount: 2
Back
Fore
SplineSet
21 22 m 257
 29 91 74 184 109 232 c 256
 135 268 148 280 171 304 c 257
 180 314 191 331 191 352 c 256
 191 371 182 386 158 386 c 256
 144 386 128 379 124 363 c 256
 118 342 122 342 113 323 c 256
 105 306 87 297 72 297 c 256
 35 297 29 328 29 340 c 256
 29 394 79 433 136 433 c 256
 188 433 220 399 220 358 c 256
 220 352 220 349 219 341 c 257
 255 367 302 392 367 411 c 256
 433 432 508 436 551 436 c 256
 620 436 655 429 673 425 c 257
 668 424 606 405 597 404 c 257
 582 405 561 406 549 406 c 256
 490 406 440 397 412 391 c 256
 325 373 262 335 220 306 c 257
 248 312 278 314 305 314 c 256
 425 314 515 250 515 126 c 256
 515 68 482 -1 397 -1 c 256
 351 -1 317 20 296 63 c 257
 279 22 246 -1 204 -1 c 256
 117 -1 120 73 87 73 c 256
 65 73 52 51 49 11 c 257
 21 22 l 257
91 143 m 257
 103 153 115 160 129 160 c 256
 161 160 172 140 212 140 c 256
 258 140 280 157 280 214 c 256
 280 216 280 214 280 216 c 257
 308 216 l 257
 308 215 308 216 308 215 c 256
 308 154 332 140 377 140 c 256
 418 140 443 169 443 204 c 256
 443 246 402 287 301 287 c 256
 244 287 205 280 180 268 c 257
 163 253 147 235 131 212 c 256
 104 172 101 163 91 143 c 257
EndSplineSet
Refer: 397 -1 N 1 0 0 1 465 0 2
EndChar

StartChar: si_KVU
Encoding: 448 -1 178
GlifName: si_K_V_U_
Width: 1061
VWidth: 0
GlyphClass: 2
Flags: HW
LayerCount: 2
Back
Fore
SplineSet
509 -142 m 256
 509 -90 555 -50 610 -50 c 256
 652 -50 689 -74 704 -110 c 257
 672 -122 l 257
 665 -105 643 -82 610 -82 c 256
 573 -82 544 -109 544 -142 c 256
 544 -171 566 -192 636 -192 c 258
 968 -192 l 257
 968 128 l 257
 1003 219 l 257
 1003 -235 l 257
 614 -235 l 258
 534 -235 509 -186 509 -142 c 256
EndSplineSet
Refer: 180 -1 N 1 0 0 1 0 0 2
EndChar

StartChar: si_KVUu
Encoding: 449 -1 179
GlifName: si_K_V_U_u
Width: 1061
VWidth: 0
GlyphClass: 2
Flags: HW
LayerCount: 2
Back
Fore
SplineSet
511 -138 m 256
 511 -80 560 -40 613 -40 c 256
 655 -40 687 -55 710 -91 c 257
 677 -102 l 257
 666 -85 647 -70 618 -70 c 256
 579 -70 554 -95 554 -120 c 256
 554 -152 583 -167 617 -167 c 256
 693 -167 749 -114 849 -114 c 256
 896 -114 941 -134 968 -166 c 257
 968 152 l 257
 1003 212 l 257
 1003 -231 l 257
 977 -231 l 257
 962 -195 922 -146 859 -146 c 256
 768 -146 720 -237 622 -237 c 256
 567 -237 511 -206 511 -138 c 256
EndSplineSet
Refer: 180 -1 N 1 0 0 1 0 0 2
EndChar

StartChar: si_KVa
Encoding: 430 -1 180
GlifName: si_K_V_a
Width: 1061
VWidth: 0
GlyphClass: 2
Flags: HW
LayerCount: 2
Back
Fore
SplineSet
21 22 m 257
 29 91 74 184 109 232 c 256
 135 268 148 280 171 304 c 257
 180 314 191 331 191 352 c 256
 191 371 182 386 158 386 c 256
 144 386 128 379 124 363 c 256
 118 342 122 342 113 323 c 256
 105 306 87 297 72 297 c 256
 35 297 29 328 29 340 c 256
 29 394 79 433 136 433 c 256
 188 433 220 399 220 358 c 256
 220 352 220 349 219 341 c 257
 255 367 302 392 367 411 c 256
 433 432 508 436 551 436 c 256
 620 436 655 429 673 425 c 257
 668 424 606 405 597 404 c 257
 582 405 561 406 549 406 c 256
 490 406 440 397 412 391 c 256
 325 373 262 335 220 306 c 257
 248 312 278 314 305 314 c 256
 425 314 515 250 515 126 c 256
 515 68 482 -1 397 -1 c 256
 351 -1 317 20 296 63 c 257
 279 22 246 -1 204 -1 c 256
 117 -1 120 73 87 73 c 256
 65 73 52 51 49 11 c 257
 21 22 l 257
498 165 m 256
 498 250 563 304 664 304 c 258
 721 304 l 257
 721 306 721 306 721 308 c 256
 721 358 689 387 656 387 c 256
 622 387 611 371 605 355 c 256
 598 336 587 319 561 319 c 256
 538 319 521 333 521 359 c 256
 521 406 571 432 626 432 c 256
 714 432 757 376 757 290 c 256
 757 287 757 280 757 277 c 257
 676 277 l 258
 602 277 566 250 566 213 c 256
 566 151 661 140 735 140 c 256
 888 140 956 211 956 317 c 256
 956 436 875 551 741 551 c 256
 662 551 601 522 557 470 c 257
 522 470 l 257
 571 540 643 577 741 577 c 256
 901 577 1013 443 1013 274 c 256
 1013 114 915 0 732 0 c 256
 611 0 498 46 498 165 c 256
91 143 m 257
 103 153 115 160 129 160 c 256
 161 160 172 140 212 140 c 256
 258 140 280 157 280 214 c 256
 280 216 280 214 280 216 c 257
 308 216 l 257
 308 215 308 216 308 215 c 256
 308 154 332 140 377 140 c 256
 418 140 443 169 443 204 c 256
 443 246 402 287 301 287 c 256
 244 287 205 280 180 268 c 257
 163 253 147 235 131 212 c 256
 104 172 101 163 91 143 c 257
EndSplineSet
EndChar

StartChar: si_Kh.halant
Encoding: 100 -1 182
GlifName: si_K_h.halant
Width: 630
VWidth: 0
GlyphClass: 2
Flags: HW
LayerCount: 2
Back
Fore
SplineSet
144 538 m 256
 144 526 163 526 163 515 c 256
 163 513 162 510 160 508 c 257
 193 514 233 519 279 519 c 256
 387 519 469 489 524 425 c 257
 491 536 400 574 284 574 c 256
 212 574 144 558 144 538 c 256
42 440 m 257
 42 473 l 257
 74 485 124 499 124 508 c 256
 124 520 96 520 96 546 c 256
 96 583 163 629 278 629 c 256
 486 629 557 490 569 356 c 257
 577 333 582 292 582 266 c 257
 530 293 l 257
 530 402 453 492 276 492 c 256
 200 492 123 478 42 440 c 257
93 73 m 256
 93 49 113 29 137 29 c 256
 161 29 181 49 181 73 c 256
 181 97 161 117 137 117 c 256
 113 117 93 97 93 73 c 256
32 183 m 256
 32 322 124 396 240 396 c 256
 333 396 413 343 413 258 c 256
 413 201 388 172 381 161 c 257
 384 162 387 162 390 162 c 256
 419 162 410 136 444 136 c 256
 504 136 530 231 530 295 c 257
 582 268 l 257
 582 155 524 0 416 0 c 256
 352 0 348 54 321 54 c 256
 308 54 284 34 242 -21 c 257
 202 -18 l 257
 215 -5 244 34 286 84 c 256
 338 146 347 180 347 200 c 256
 347 235 328 275 236 275 c 256
 149 275 70 225 70 140 c 256
 70 128 70 118 73 106 c 257
 82 132 107 148 137 148 c 256
 179 148 212 120 212 74 c 256
 212 37 182 -1 141 -1 c 256
 56 -1 32 108 32 183 c 256
EndSplineSet
EndChar

StartChar: si_KhI
Encoding: 101 -1 183
GlifName: si_K_hI_
Width: 630
VWidth: 0
GlyphClass: 2
Flags: HW
LayerCount: 2
Back
Fore
SplineSet
75 562 m 256
 75 652 206 670 306 670 c 256
 442 670 552 639 552 554 c 256
 552 502 498 480 464 474 c 257
 414 490 l 257
 450 491 477 505 477 527 c 256
 477 564 414 581 306 581 c 256
 230 581 134 573 134 538 c 256
 134 511 182 508 284 504 c 256
 349 501 443 499 498 459 c 256
 547 423 584 356 584 274 c 257
 532 303 l 257
 532 330 526 382 496 416 c 256
 450 468 386 470 285 476 c 256
 196 481 75 476 75 562 c 256
93 73 m 256
 93 49 113 29 137 29 c 256
 161 29 181 49 181 73 c 256
 181 97 161 117 137 117 c 256
 113 117 93 97 93 73 c 256
32 183 m 256
 32 322 124 396 240 396 c 256
 333 396 413 343 413 258 c 256
 413 201 388 172 381 161 c 257
 384 162 387 162 390 162 c 256
 419 162 410 136 444 136 c 256
 504 136 532 219 532 306 c 257
 553 300 567 288 584 278 c 257
 584 152 524 0 416 0 c 256
 352 0 348 54 321 54 c 256
 308 54 284 34 242 -21 c 257
 202 -18 l 257
 215 -5 244 34 286 84 c 256
 338 146 347 180 347 200 c 256
 347 235 328 275 236 275 c 256
 149 275 70 225 70 140 c 256
 70 128 70 118 73 106 c 257
 82 132 107 148 137 148 c 256
 179 148 212 120 212 74 c 256
 212 37 182 -1 141 -1 c 256
 56 -1 32 108 32 183 c 256
EndSplineSet
EndChar

StartChar: si_KhIi
Encoding: 102 -1 184
GlifName: si_K_hI_i
Width: 630
VWidth: 0
GlyphClass: 2
Flags: HW
LayerCount: 2
Back
Fore
SplineSet
401 539 m 256
 401 509 428 485 460 485 c 256
 492 485 519 509 519 539 c 256
 519 569 492 592 460 592 c 256
 428 592 401 569 401 539 c 256
75 562 m 256
 75 652 206 670 306 670 c 256
 442 670 552 640 552 542 c 256
 552 489 504 458 460 458 c 256
 416 458 368 489 368 542 c 256
 368 566 378 579 382 584 c 257
 374 586 340 588 304 588 c 256
 228 588 130 580 130 540 c 256
 130 511 182 508 284 504 c 256
 349 501 443 499 498 459 c 256
 547 423 584 356 584 274 c 257
 532 303 l 257
 532 330 526 382 496 416 c 256
 450 468 386 470 285 476 c 256
 196 481 75 476 75 562 c 256
93 73 m 256
 93 49 113 29 137 29 c 256
 161 29 181 49 181 73 c 256
 181 97 161 117 137 117 c 256
 113 117 93 97 93 73 c 256
32 183 m 256
 32 322 124 396 240 396 c 256
 333 396 413 343 413 258 c 256
 413 201 388 172 381 161 c 257
 384 162 387 162 390 162 c 256
 419 162 410 136 444 136 c 256
 504 136 532 219 532 306 c 257
 553 300 567 288 584 278 c 257
 584 152 524 0 416 0 c 256
 352 0 348 54 321 54 c 256
 308 54 284 34 242 -21 c 257
 202 -18 l 257
 215 -5 244 34 286 84 c 256
 338 146 347 180 347 200 c 256
 347 235 328 275 236 275 c 256
 149 275 70 225 70 140 c 256
 70 128 70 118 73 106 c 257
 82 132 107 148 137 148 c 256
 179 148 212 120 212 74 c 256
 212 37 182 -1 141 -1 c 256
 56 -1 32 108 32 183 c 256
EndSplineSet
EndChar

StartChar: si_KhR.halant
Encoding: 106 -1 185
GlifName: si_K_hR_.halant
Width: 630
VWidth: 0
GlyphClass: 2
Flags: HW
LayerCount: 2
Back
Fore
SplineSet
144 538 m 256
 144 526 163 526 163 515 c 256
 163 513 162 510 160 508 c 257
 193 514 233 519 279 519 c 256
 387 519 469 489 524 425 c 257
 491 536 400 574 284 574 c 256
 212 574 144 558 144 538 c 256
42 440 m 257
 42 473 l 257
 74 485 124 499 124 508 c 256
 124 520 96 520 96 546 c 256
 96 583 163 629 278 629 c 256
 486 629 557 490 569 356 c 257
 577 333 582 292 582 266 c 257
 530 293 l 257
 530 301 530 297 530 301 c 256
 530 408 445 492 276 492 c 256
 200 492 123 478 42 440 c 257
93 73 m 256
 93 49 113 29 137 29 c 256
 161 29 181 49 181 73 c 256
 181 97 161 117 137 117 c 256
 113 117 93 97 93 73 c 256
32 183 m 256
 32 322 124 396 240 396 c 256
 333 396 413 343 413 258 c 256
 413 201 388 172 381 161 c 257
 384 162 387 162 390 162 c 256
 419 162 410 136 444 136 c 256
 504 136 530 231 530 295 c 257
 546 282 564 287 582 268 c 257
 582 155 524 0 416 0 c 256
 352 0 348 54 321 54 c 256
 308 54 284 34 242 -21 c 257
 202 -18 l 257
 215 -5 244 34 286 84 c 256
 338 146 347 180 347 200 c 256
 347 235 328 275 236 275 c 256
 149 275 70 225 70 140 c 256
 70 128 70 118 73 106 c 257
 82 132 107 148 137 148 c 256
 179 148 212 120 212 74 c 256
 212 37 182 -1 141 -1 c 256
 56 -1 32 108 32 183 c 256
56 -44 m 257
 85 -44 l 257
 122 -87 181 -114 286 -114 c 256
 429 -114 549 -31 549 63 c 256
 549 78 547 90 542 102 c 257
 555 133 l 257
 573 106 582 75 582 38 c 256
 582 -124 454 -219 310 -219 c 256
 177 -219 93 -153 56 -44 c 257
EndSplineSet
EndChar

StartChar: si_KhRI
Encoding: 107 -1 186
GlifName: si_K_hR_I_
Width: 630
VWidth: 0
GlyphClass: 2
Flags: HW
LayerCount: 2
Back
Fore
SplineSet
56 -44 m 257
 85 -44 l 257
 122 -87 181 -114 286 -114 c 256
 429 -114 549 -31 549 63 c 256
 549 78 547 90 542 102 c 257
 555 133 l 257
 573 106 582 75 582 38 c 256
 582 -124 454 -219 310 -219 c 256
 177 -219 93 -153 56 -44 c 257
75 562 m 256
 75 652 206 670 306 670 c 256
 442 670 552 639 552 554 c 256
 552 502 498 480 464 474 c 257
 414 490 l 257
 450 491 477 505 477 527 c 256
 477 564 414 581 306 581 c 256
 230 581 134 573 134 538 c 256
 134 511 182 508 284 504 c 256
 349 501 443 499 498 459 c 256
 547 423 584 356 584 274 c 257
 532 303 l 257
 532 330 526 382 496 416 c 256
 450 468 386 470 285 476 c 256
 196 481 75 476 75 562 c 256
93 73 m 256
 93 49 113 29 137 29 c 256
 161 29 181 49 181 73 c 256
 181 97 161 117 137 117 c 256
 113 117 93 97 93 73 c 256
32 183 m 256
 32 322 124 396 240 396 c 256
 333 396 413 343 413 258 c 256
 413 201 388 172 381 161 c 257
 384 162 387 162 390 162 c 256
 419 162 410 136 444 136 c 256
 504 136 532 219 532 306 c 257
 553 300 567 288 584 278 c 257
 584 152 524 0 416 0 c 256
 352 0 348 54 321 54 c 256
 308 54 284 34 242 -21 c 257
 202 -18 l 257
 215 -5 244 34 286 84 c 256
 338 146 347 180 347 200 c 256
 347 235 328 275 236 275 c 256
 149 275 70 225 70 140 c 256
 70 128 70 118 73 106 c 257
 82 132 107 148 137 148 c 256
 179 148 212 120 212 74 c 256
 212 37 182 -1 141 -1 c 256
 56 -1 32 108 32 183 c 256
EndSplineSet
EndChar

StartChar: si_KhRIi
Encoding: 108 -1 187
GlifName: si_K_hR_I_i
Width: 630
VWidth: 0
GlyphClass: 2
Flags: HW
LayerCount: 2
Back
Fore
SplineSet
401 539 m 256
 401 509 428 485 460 485 c 256
 492 485 519 509 519 539 c 256
 519 569 492 592 460 592 c 256
 428 592 401 569 401 539 c 256
75 562 m 256
 75 652 206 670 306 670 c 256
 442 670 552 640 552 542 c 256
 552 489 504 458 460 458 c 256
 416 458 368 489 368 542 c 256
 368 566 378 579 382 584 c 257
 374 586 340 588 304 588 c 256
 228 588 130 580 130 540 c 256
 130 511 182 508 284 504 c 256
 349 501 443 499 498 459 c 256
 547 423 584 356 584 274 c 257
 532 303 l 257
 532 330 526 382 496 416 c 256
 450 468 386 470 285 476 c 256
 196 481 75 476 75 562 c 256
93 73 m 256
 93 49 113 29 137 29 c 256
 161 29 181 49 181 73 c 256
 181 97 161 117 137 117 c 256
 113 117 93 97 93 73 c 256
32 183 m 256
 32 322 124 396 240 396 c 256
 333 396 413 343 413 258 c 256
 413 201 388 172 381 161 c 257
 384 162 387 162 390 162 c 256
 419 162 410 136 444 136 c 256
 504 136 532 219 532 306 c 257
 553 300 567 288 584 278 c 257
 584 152 524 0 416 0 c 256
 352 0 348 54 321 54 c 256
 308 54 284 34 242 -21 c 257
 202 -18 l 257
 215 -5 244 34 286 84 c 256
 338 146 347 180 347 200 c 256
 347 235 328 275 236 275 c 256
 149 275 70 225 70 140 c 256
 70 128 70 118 73 106 c 257
 82 132 107 148 137 148 c 256
 179 148 212 120 212 74 c 256
 212 37 182 -1 141 -1 c 256
 56 -1 32 108 32 183 c 256
56 -44 m 257
 85 -44 l 257
 122 -87 181 -114 286 -114 c 256
 429 -114 549 -31 549 63 c 256
 549 78 547 90 542 102 c 257
 555 133 l 257
 573 106 582 75 582 38 c 256
 582 -124 454 -219 310 -219 c 256
 177 -219 93 -153 56 -44 c 257
EndSplineSet
EndChar

StartChar: si_KhRa
Encoding: 105 -1 188
GlifName: si_K_hR_a
Width: 630
VWidth: 0
GlyphClass: 2
Flags: HW
LayerCount: 2
Back
Fore
SplineSet
56 -44 m 257
 85 -44 l 257
 122 -87 181 -114 286 -114 c 256
 429 -114 549 -31 549 63 c 256
 549 78 547 90 542 102 c 257
 555 133 l 257
 573 106 582 75 582 38 c 256
 582 -124 454 -219 310 -219 c 256
 177 -219 93 -153 56 -44 c 257
EndSplineSet
Refer: 439 3483 N 1 0 0 1 0 0 2
EndChar

StartChar: si_KhU
Encoding: 103 -1 189
GlifName: si_K_hU_
Width: 630
VWidth: 0
GlyphClass: 2
Flags: HW
LayerCount: 2
Back
Fore
SplineSet
52 -142 m 256
 52 -90 98 -50 153 -50 c 256
 195 -50 232 -74 247 -110 c 257
 214 -122 l 257
 207 -105 186 -82 153 -82 c 256
 116 -82 87 -109 87 -142 c 256
 87 -171 108 -192 178 -192 c 258
 540 -192 l 257
 540 128 l 257
 575 219 l 257
 575 -235 l 257
 157 -235 l 258
 77 -235 52 -186 52 -142 c 256
EndSplineSet
Refer: 439 3483 N 1 0 0 1 0 0 2
EndChar

StartChar: si_KhUu
Encoding: 104 -1 190
GlifName: si_K_hU_u
Width: 630
VWidth: 0
GlyphClass: 2
Flags: HW
LayerCount: 2
Back
Fore
SplineSet
51 -138 m 256
 51 -80 100 -40 153 -40 c 256
 195 -40 227 -55 250 -91 c 257
 217 -102 l 257
 206 -85 187 -70 158 -70 c 256
 119 -70 94 -95 94 -120 c 256
 94 -152 123 -167 157 -167 c 256
 233 -167 308 -114 416 -114 c 256
 467 -114 513 -134 540 -166 c 257
 540 152 l 257
 575 212 l 257
 575 -231 l 257
 550 -231 l 257
 535 -195 489 -146 426 -146 c 256
 335 -146 260 -237 162 -237 c 256
 107 -237 51 -206 51 -138 c 256
EndSplineSet
Refer: 439 3483 N 1 0 0 1 0 0 2
EndChar

StartChar: si_L.halant
Encoding: 366 -1 191
GlifName: si_L_.halant
Width: 670
VWidth: 0
GlyphClass: 2
Flags: HW
LayerCount: 2
Back
Fore
SplineSet
470 401 m 257
 470 681 l 257
 524 639 622 634 622 542 c 256
 622 498 587 468 544 468 c 256
 529 468 514 471 499 478 c 257
 499 384 l 257
 470 401 l 257
499 504 m 257
 507 499 518 497 531 497 c 256
 563 497 577 521 577 545 c 256
 577 586 545 607 499 637 c 257
 499 504 l 257
EndSplineSet
Refer: 471 3517 N 1 0 0 1 0 0 2
EndChar

StartChar: si_LI
Encoding: 367 -1 192
GlifName: si_L_I_
Width: 670
VWidth: 0
GlyphClass: 2
Flags: HW
LayerCount: 2
Back
Fore
SplineSet
121 518 m 256
 121 626 234 671 353 671 c 256
 472 671 585 626 585 518 c 256
 585 443 519 408 442 405 c 257
 430 428 l 257
 484 431 518 447 518 479 c 256
 518 521 439 536 353 536 c 256
 264 536 184 522 184 479 c 256
 184 450 223 428 296 426 c 257
 326 424 l 257
 264 405 l 257
 187 408 121 443 121 518 c 256
EndSplineSet
Refer: 471 3517 N 1 0 0 1 0 0 2
EndChar

StartChar: si_LIi
Encoding: 368 -1 193
GlifName: si_L_I_i
Width: 670
VWidth: 0
GlyphClass: 2
Flags: HW
LayerCount: 2
Back
Fore
SplineSet
428 514 m 256
 428 484 456 460 491 460 c 256
 526 460 554 484 554 514 c 256
 554 544 526 568 491 568 c 256
 456 568 428 544 428 514 c 256
99 517 m 256
 99 626 215 671 342 671 c 256
 459 671 592 627 592 524 c 256
 592 469 547 429 491 429 c 256
 433 429 393 470 393 515 c 256
 393 544 408 568 424 576 c 257
 404 578 386 578 366 578 c 256
 258 578 174 542 174 488 c 256
 174 451 209 425 274 425 c 256
 283 425 311 427 320 428 c 257
 235 404 l 257
 170 404 99 446 99 517 c 256
EndSplineSet
Refer: 471 3517 N 1 0 0 1 0 0 2
EndChar

StartChar: si_LU
Encoding: 369 -1 194
GlifName: si_L_U_
Width: 670
VWidth: 0
GlyphClass: 2
Flags: HW
LayerCount: 2
Back
Fore
SplineSet
31 186 m 256
 31 342 169 432 364 432 c 256
 487 432 611 393 611 280 c 256
 611 210 553 163 485 163 c 256
 417 163 366 210 366 280 c 257
 265 280 l 257
 265 308 l 257
 518 308 l 257
 518 280 l 257
 396 280 l 257
 396 279 396 277 396 276 c 256
 396 240 438 216 486 216 c 256
 541 216 573 245 573 294 c 256
 573 375 476 400 394 400 c 256
 244 400 176 295 176 187 c 256
 176 63 267 -6 401 -6 c 256
 523 -6 572 85 572 124 c 257
 603 142 l 257
 603 26 494 -58 345 -58 c 256
 182 -58 31 36 31 186 c 256
36 -142 m 256
 36 -90 82 -50 137 -50 c 256
 179 -50 216 -74 231 -110 c 257
 198 -122 l 257
 191 -105 170 -82 137 -82 c 256
 100 -82 71 -109 71 -142 c 256
 71 -171 92 -192 162 -192 c 258
 568 -192 l 257
 568 95 l 257
 603 138 l 257
 603 -235 l 257
 141 -235 l 258
 61 -235 36 -186 36 -142 c 256
EndSplineSet
EndChar

StartChar: si_LUu
Encoding: 370 -1 195
GlifName: si_L_U_u
Width: 670
VWidth: 0
GlyphClass: 2
Flags: HW
LayerCount: 2
Back
Fore
SplineSet
42 -138 m 256
 42 -80 91 -40 144 -40 c 256
 186 -40 217 -55 240 -91 c 257
 208 -102 l 257
 197 -85 177 -70 148 -70 c 256
 109 -70 84 -95 84 -120 c 256
 84 -152 114 -167 148 -167 c 256
 224 -167 336 -114 444 -114 c 256
 495 -114 541 -134 568 -166 c 257
 568 84 l 257
 603 139 l 257
 603 -231 l 257
 578 -231 l 257
 563 -195 517 -146 454 -146 c 256
 363 -146 250 -237 152 -237 c 256
 97 -237 42 -206 42 -138 c 256
31 186 m 256
 31 342 169 432 364 432 c 256
 487 432 611 393 611 280 c 256
 611 210 553 163 485 163 c 256
 417 163 366 210 366 280 c 257
 265 280 l 257
 265 308 l 257
 518 308 l 257
 518 280 l 257
 396 280 l 257
 396 279 396 277 396 276 c 256
 396 240 438 216 486 216 c 256
 541 216 573 245 573 294 c 256
 573 375 476 400 394 400 c 256
 244 400 176 295 176 187 c 256
 176 63 267 -6 401 -6 c 256
 523 -6 572 85 572 124 c 257
 603 142 l 257
 603 26 494 -58 345 -58 c 256
 182 -58 31 36 31 186 c 256
EndSplineSet
EndChar

StartChar: si_Ll.halant
Encoding: 415 -1 196
GlifName: si_L_l.halant
Width: 636
VWidth: 0
GlyphClass: 2
Flags: HW
LayerCount: 2
Back
Fore
SplineSet
436 413 m 257
 436 681 l 257
 490 639 587 634 587 542 c 256
 587 498 552 468 509 468 c 256
 494 468 479 471 464 478 c 257
 464 407 l 257
 436 413 l 257
464 504 m 257
 472 499 484 497 497 497 c 256
 529 497 542 521 542 545 c 256
 542 586 510 607 464 637 c 257
 464 504 l 257
EndSplineSet
Refer: 477 3525 N 1 0 0 1 0 0 2
EndChar

StartChar: si_LlI
Encoding: 416 -1 197
GlifName: si_L_lI_
Width: 636
VWidth: 0
GlyphClass: 2
Flags: HW
LayerCount: 2
Back
Fore
SplineSet
102 518 m 256
 102 626 215 671 334 671 c 256
 453 671 566 626 566 518 c 256
 566 443 501 408 424 405 c 257
 424 428 l 257
 478 431 499 447 499 479 c 256
 499 521 420 536 334 536 c 256
 245 536 166 522 166 479 c 256
 166 450 192 431 246 428 c 257
 266 426 l 257
 246 405 l 257
 169 408 102 443 102 518 c 256
EndSplineSet
Refer: 477 3525 N 1 0 0 1 0 0 2
EndChar

StartChar: si_LlIi
Encoding: 417 -1 198
GlifName: si_L_lI_i
Width: 636
VWidth: 0
GlyphClass: 2
Flags: HW
LayerCount: 2
Back
Fore
SplineSet
414 514 m 256
 414 484 444 459 479 459 c 256
 514 459 544 484 544 514 c 256
 544 544 514 569 479 569 c 256
 444 569 414 544 414 514 c 256
87 517 m 256
 87 624 204 671 331 671 c 256
 448 671 580 627 580 524 c 256
 580 469 535 429 479 429 c 256
 421 429 381 470 381 515 c 256
 381 525 384 549 397 562 c 257
 388 563 352 565 319 565 c 256
 225 565 147 538 147 484 c 256
 147 445 203 430 237 428 c 257
 267 424 l 257
 189 409 l 257
 142 418 87 456 87 517 c 256
EndSplineSet
Refer: 477 3525 N 1 0 0 1 0 0 2
EndChar

StartChar: si_LlU
Encoding: 418 -1 199
GlifName: si_L_lU_
Width: 662
VWidth: 0
GlyphClass: 2
Flags: HW
LayerCount: 2
Back
Fore
SplineSet
114 165 m 256
 114 269 203 309 312 309 c 258
 328 309 l 257
 328 311 329 313 329 315 c 256
 329 355 299 389 264 389 c 256
 236 389 222 368 217 355 c 256
 209 335 196 321 170 321 c 256
 154 321 134 332 134 359 c 256
 134 406 185 432 240 432 c 256
 327 432 363 363 363 295 c 256
 363 292 362 285 362 282 c 257
 302 282 l 258
 228 282 182 259 182 210 c 256
 182 156 274 141 350 141 c 256
 492 141 566 202 566 297 c 256
 566 342 557 383 542 412 c 257
 527 379 497 359 454 359 c 256
 391 359 354 414 354 480 c 256
 354 530 369 566 396 597 c 257
 457 564 528 492 564 430 c 256
 603 363 616 315 616 245 c 256
 616 117 529 0 346 0 c 256
 224 0 114 46 114 165 c 256
388 486 m 256
 388 442 419 406 460 406 c 256
 483 406 510 415 520 441 c 257
 491 485 441 530 404 557 c 257
 394 540 388 518 388 486 c 256
27 248 m 256
 27 380 126 432 230 432 c 256
 238 432 258 431 277 426 c 257
 261 406 l 257
 233 404 206 406 173 397 c 256
 104 378 59 337 59 246 c 256
 59 167 106 96 178 77 c 257
 178 44 l 257
 86 68 27 147 27 248 c 256
EndSplineSet
EndChar

StartChar: si_LlUu
Encoding: 419 -1 200
GlifName: si_L_lU_u
Width: 929
VWidth: 0
GlyphClass: 2
Flags: HW
LayerCount: 2
Back
Fore
SplineSet
583 312 m 257
 583 339 l 257
 844 339 l 257
 844 317 l 257
 717 223 l 257
 867 223 l 257
 867 200 l 257
 821 165 783 118 783 36 c 256
 783 -29 821 -100 901 -100 c 257
 901 -127 l 257
 868 -141 832 -148 802 -148 c 256
 711 -148 651 -91 651 -16 c 256
 651 93 754 155 822 196 c 257
 667 196 l 257
 667 221 l 257
 793 312 l 257
 583 312 l 257
EndSplineSet
Refer: 199 -1 N 1 0 0 1 0 0 2
EndChar

StartChar: si_M.halant
Encoding: 332 -1 201
GlifName: si_M_.halant
Width: 635
VWidth: 0
GlyphClass: 2
Flags: HW
LayerCount: 2
Back
Fore
SplineSet
147 538 m 256
 147 526 166 526 166 515 c 256
 166 513 165 510 163 508 c 257
 196 514 236 519 282 519 c 256
 390 519 473 489 528 425 c 257
 495 536 403 574 287 574 c 256
 215 574 147 558 147 538 c 256
45 440 m 257
 45 473 l 257
 77 485 126 499 126 508 c 256
 126 520 98 520 98 546 c 256
 98 583 166 629 281 629 c 256
 489 629 560 490 572 356 c 257
 580 331 585 302 585 276 c 257
 516 314 l 257
 516 322 515 318 515 322 c 256
 515 408 448 492 279 492 c 256
 203 492 126 478 45 440 c 257
265 352 m 256
 265 326 287 304 313 304 c 256
 339 304 361 326 361 352 c 256
 361 378 339 400 313 400 c 256
 287 400 265 378 265 352 c 256
33 250 m 256
 33 339 79 432 156 432 c 256
 205 432 210 401 210 378 c 256
 210 351 204 343 204 310 c 256
 204 261 245 230 300 230 c 256
 360 230 401 260 401 320 c 256
 401 348 392 359 387 366 c 257
 389 356 389 351 389 343 c 256
 389 306 361 271 313 271 c 256
 262 271 233 315 233 351 c 256
 233 397 270 432 318 432 c 256
 387 432 433 387 433 315 c 256
 433 239 375 198 302 198 c 256
 242 198 170 231 170 304 c 256
 170 337 178 358 178 376 c 256
 178 388 176 402 154 402 c 256
 112 402 93 350 93 310 c 256
 93 205 181 134 302 134 c 256
 419 134 516 207 516 318 c 257
 534 299 562 300 585 280 c 257
 585 110 475 0 310 0 c 256
 143 0 33 94 33 250 c 256
EndSplineSet
EndChar

StartChar: si_MI
Encoding: 333 -1 202
GlifName: si_M_I_
Width: 635
VWidth: 0
GlyphClass: 2
Flags: HW
LayerCount: 2
Back
Fore
SplineSet
68 562 m 256
 68 652 202 670 302 670 c 256
 438 670 554 639 554 554 c 256
 554 502 500 480 466 474 c 257
 416 490 l 257
 452 491 478 505 478 527 c 256
 478 564 410 581 302 581 c 256
 226 581 127 573 127 538 c 256
 127 511 178 508 280 504 c 256
 345 501 445 499 500 459 c 256
 549 423 585 358 585 269 c 257
 516 321 l 257
 516 357 504 402 472 430 c 256
 424 471 382 470 281 476 c 256
 192 481 68 476 68 562 c 256
265 352 m 256
 265 326 287 304 313 304 c 256
 339 304 361 326 361 352 c 256
 361 378 339 400 313 400 c 256
 287 400 265 378 265 352 c 256
33 250 m 256
 33 339 79 432 156 432 c 256
 205 432 210 401 210 378 c 256
 210 351 204 343 204 310 c 256
 204 261 245 230 300 230 c 256
 360 230 401 260 401 320 c 256
 401 348 392 359 387 366 c 257
 389 356 389 351 389 343 c 256
 389 306 361 271 313 271 c 256
 262 271 233 315 233 351 c 256
 233 397 270 432 318 432 c 256
 387 432 433 387 433 315 c 256
 433 239 375 198 302 198 c 256
 242 198 170 231 170 304 c 256
 170 337 178 358 178 376 c 256
 178 388 176 402 154 402 c 256
 112 402 93 350 93 310 c 256
 93 205 181 134 302 134 c 256
 419 134 516 205 516 324 c 257
 534 305 562 294 585 274 c 257
 585 115 475 0 310 0 c 256
 143 0 33 94 33 250 c 256
EndSplineSet
EndChar

StartChar: si_MIi
Encoding: 334 -1 203
GlifName: si_M_I_i
Width: 635
VWidth: 0
GlyphClass: 2
Flags: HW
LayerCount: 2
Back
Fore
SplineSet
402 539 m 256
 402 509 430 485 462 485 c 256
 494 485 521 509 521 539 c 256
 521 569 494 592 462 592 c 256
 430 592 402 569 402 539 c 256
67 562 m 256
 67 652 202 670 308 670 c 256
 444 670 554 640 554 542 c 256
 554 489 506 458 462 458 c 256
 418 458 370 489 370 542 c 256
 370 566 380 579 384 584 c 257
 376 586 342 588 306 588 c 256
 230 588 122 580 122 540 c 256
 122 511 184 508 286 504 c 256
 351 501 445 499 500 459 c 256
 549 423 585 363 585 270 c 257
 516 325 l 257
 516 349 514 383 491 414 c 256
 451 468 387 470 286 476 c 256
 197 481 67 476 67 562 c 256
265 352 m 256
 265 326 287 304 313 304 c 256
 339 304 361 326 361 352 c 256
 361 378 339 400 313 400 c 256
 287 400 265 378 265 352 c 256
33 250 m 256
 33 339 79 432 156 432 c 256
 205 432 210 401 210 378 c 256
 210 351 204 343 204 310 c 256
 204 261 245 230 300 230 c 256
 360 230 401 260 401 320 c 256
 401 348 392 359 387 366 c 257
 389 356 389 351 389 343 c 256
 389 306 361 271 313 271 c 256
 262 271 233 315 233 351 c 256
 233 397 270 432 318 432 c 256
 387 432 433 387 433 315 c 256
 433 239 375 198 302 198 c 256
 242 198 170 231 170 304 c 256
 170 337 178 358 178 376 c 256
 178 388 176 402 154 402 c 256
 112 402 93 350 93 310 c 256
 93 205 181 134 302 134 c 256
 419 134 516 205 516 329 c 257
 534 310 562 294 585 274 c 257
 585 115 475 0 310 0 c 256
 143 0 33 94 33 250 c 256
EndSplineSet
EndChar

StartChar: si_MRI
Encoding: 339 -1 204
GlifName: si_M_R_I_
Width: 635
VWidth: 0
GlyphClass: 2
Flags: HW
LayerCount: 2
Back
Fore
SplineSet
68 562 m 256
 68 652 202 670 302 670 c 256
 438 670 554 639 554 554 c 256
 554 502 500 480 466 474 c 257
 416 490 l 257
 452 491 478 505 478 527 c 256
 478 564 410 581 302 581 c 256
 226 581 127 573 127 538 c 256
 127 511 178 508 280 504 c 256
 345 501 445 499 500 459 c 256
 549 423 585 358 585 269 c 257
 516 321 l 257
 516 357 504 402 472 430 c 256
 424 471 382 470 281 476 c 256
 192 481 68 476 68 562 c 256
265 352 m 256
 265 326 287 304 313 304 c 256
 339 304 361 326 361 352 c 256
 361 378 339 400 313 400 c 256
 287 400 265 378 265 352 c 256
33 250 m 256
 33 339 79 432 156 432 c 256
 205 432 210 401 210 378 c 256
 210 351 204 343 204 310 c 256
 204 261 245 230 300 230 c 256
 360 230 401 260 401 320 c 256
 401 348 392 359 387 366 c 257
 389 356 389 351 389 343 c 256
 389 306 361 271 313 271 c 256
 262 271 233 315 233 351 c 256
 233 397 270 432 318 432 c 256
 387 432 433 387 433 315 c 256
 433 239 375 198 302 198 c 256
 242 198 170 231 170 304 c 256
 170 337 178 358 178 376 c 256
 178 388 176 402 154 402 c 256
 112 402 93 350 93 310 c 256
 93 205 181 134 302 134 c 256
 419 134 516 205 516 324 c 257
 534 305 562 294 585 274 c 257
 585 115 475 0 310 0 c 256
 143 0 33 94 33 250 c 256
56 -44 m 257
 85 -44 l 257
 122 -87 181 -114 286 -114 c 256
 429 -114 548 -31 548 63 c 256
 548 78 544 97 534 112 c 257
 550 140 l 257
 572 113 582 75 582 38 c 256
 582 -124 454 -219 310 -219 c 256
 177 -219 93 -153 56 -44 c 257
EndSplineSet
EndChar

StartChar: si_MRIi
Encoding: 340 -1 205
GlifName: si_M_R_I_i
Width: 635
VWidth: 0
GlyphClass: 2
Flags: HW
LayerCount: 2
Back
Fore
SplineSet
402 539 m 256
 402 509 430 485 462 485 c 256
 494 485 521 509 521 539 c 256
 521 569 494 592 462 592 c 256
 430 592 402 569 402 539 c 256
67 562 m 256
 67 652 202 670 308 670 c 256
 444 670 554 640 554 542 c 256
 554 489 506 458 462 458 c 256
 418 458 370 489 370 542 c 256
 370 566 380 579 384 584 c 257
 376 586 342 588 306 588 c 256
 230 588 122 580 122 540 c 256
 122 511 184 508 286 504 c 256
 351 501 445 499 500 459 c 256
 549 423 585 363 585 270 c 257
 516 325 l 257
 516 349 514 383 491 414 c 256
 451 468 387 470 286 476 c 256
 197 481 67 476 67 562 c 256
265 352 m 256
 265 326 287 304 313 304 c 256
 339 304 361 326 361 352 c 256
 361 378 339 400 313 400 c 256
 287 400 265 378 265 352 c 256
33 250 m 256
 33 339 79 432 156 432 c 256
 205 432 210 401 210 378 c 256
 210 351 204 343 204 310 c 256
 204 261 245 230 300 230 c 256
 360 230 401 260 401 320 c 256
 401 348 392 359 387 366 c 257
 389 356 389 351 389 343 c 256
 389 306 361 271 313 271 c 256
 262 271 233 315 233 351 c 256
 233 397 270 432 318 432 c 256
 387 432 433 387 433 315 c 256
 433 239 375 198 302 198 c 256
 242 198 170 231 170 304 c 256
 170 337 178 358 178 376 c 256
 178 388 176 402 154 402 c 256
 112 402 93 350 93 310 c 256
 93 205 181 134 302 134 c 256
 419 134 516 205 516 329 c 257
 534 310 562 294 585 274 c 257
 585 115 475 0 310 0 c 256
 143 0 33 94 33 250 c 256
56 -44 m 257
 85 -44 l 257
 122 -87 181 -114 286 -114 c 256
 429 -114 548 -31 548 63 c 256
 548 78 544 97 534 112 c 257
 550 140 l 257
 572 113 582 75 582 38 c 256
 582 -124 454 -219 310 -219 c 256
 177 -219 93 -153 56 -44 c 257
EndSplineSet
EndChar

StartChar: si_MRa
Encoding: 338 -1 206
GlifName: si_M_R_a
Width: 635
VWidth: 0
GlyphClass: 2
Flags: HW
LayerCount: 2
Back
Fore
SplineSet
56 -44 m 257
 85 -44 l 257
 122 -87 181 -114 286 -114 c 256
 429 -114 548 -31 548 63 c 256
 548 78 544 97 534 112 c 257
 550 140 l 257
 572 113 582 75 582 38 c 256
 582 -124 454 -219 310 -219 c 256
 177 -219 93 -153 56 -44 c 257
EndSplineSet
Refer: 467 3512 N 1 0 0 1 0 0 2
EndChar

StartChar: si_MU
Encoding: 335 -1 207
GlifName: si_M_U_
Width: 635
VWidth: 0
GlyphClass: 2
Flags: HW
LayerCount: 2
Back
Fore
SplineSet
52 -142 m 256
 52 -90 98 -50 153 -50 c 256
 195 -50 232 -74 247 -110 c 257
 214 -122 l 257
 207 -105 186 -82 153 -82 c 256
 116 -82 87 -109 87 -142 c 256
 87 -171 108 -192 178 -192 c 258
 540 -192 l 257
 540 128 l 257
 575 219 l 257
 575 -235 l 257
 157 -235 l 258
 77 -235 52 -186 52 -142 c 256
EndSplineSet
Refer: 467 3512 N 1 0 0 1 0 0 2
EndChar

StartChar: si_MUu
Encoding: 336 -1 208
GlifName: si_M_U_u
Width: 635
VWidth: 0
GlyphClass: 2
Flags: HW
LayerCount: 2
Back
Fore
SplineSet
51 -138 m 256
 51 -80 100 -40 153 -40 c 256
 195 -40 227 -55 250 -91 c 257
 217 -102 l 257
 206 -85 187 -70 158 -70 c 256
 119 -70 94 -95 94 -120 c 256
 94 -152 123 -167 157 -167 c 256
 233 -167 308 -114 416 -114 c 256
 467 -114 513 -134 540 -166 c 257
 540 152 l 257
 575 212 l 257
 575 -231 l 257
 550 -231 l 257
 535 -195 489 -146 426 -146 c 256
 335 -146 260 -237 162 -237 c 256
 107 -237 51 -206 51 -138 c 256
EndSplineSet
Refer: 467 3512 N 1 0 0 1 0 0 2
EndChar

StartChar: si_Ma.reph
Encoding: 337 -1 209
GlifName: si_M_a.reph
Width: 635
VWidth: 0
GlyphClass: 2
Flags: HW
LayerCount: 2
Back
Fore
SplineSet
274 628 m 256
 274 608 292 592 314 592 c 256
 336 592 355 608 355 628 c 256
 355 648 336 664 314 664 c 256
 292 664 274 648 274 628 c 256
172 647 m 256
 172 711 230 748 312 748 c 256
 389 748 452 705 452 634 c 256
 452 610 445 588 428 569 c 257
 392 569 l 257
 405 581 420 606 420 633 c 256
 420 688 371 720 310 720 c 256
 257 720 204 697 204 647 c 256
 204 608 247 590 265 588 c 257
 257 594 246 608 246 629 c 256
 246 664 278 689 314 689 c 256
 355 689 382 662 382 627 c 256
 382 588 348 562 290 562 c 256
 231 562 172 591 172 647 c 256
EndSplineSet
Refer: 467 3512 N 1 0 0 1 0 0 2
EndChar

StartChar: si_MatraU.alt
Encoding: 86 -1 211
GlifName: si_M_atraU_.alt
Width: 2
VWidth: 0
GlyphClass: 2
Flags: HW
LayerCount: 2
Back
Fore
SplineSet
-314 -80 m 256
 -314 -30 -285 5 -245 21 c 257
 -236 2 l 257
 -259 -11 -269 -26 -269 -48 c 256
 -269 -84 -225 -105 -174 -105 c 256
 -113 -105 -66 -83 -66 -45 c 256
 -66 -42 -67 -39 -67 -36 c 257
 -37 -36 l 257
 -35 -45 -35 -61 -35 -70 c 256
 -35 -123 -78 -192 -179 -192 c 256
 -247 -192 -314 -149 -314 -80 c 256
EndSplineSet
EndChar

StartChar: si_MatraUu.alt
Encoding: 87 -1 212
GlifName: si_M_atraU_u.alt
Width: 746
VWidth: 0
GlyphClass: 2
Flags: HW
LayerCount: 2
Back
Fore
SplineSet
-294 -129 m 256
 -294 -93 -267 -72 -230 -67 c 257
 -285 -39 l 257
 -200 -14 l 257
 -234 -1 l 257
 -234 21 l 257
 -138 -15 l 257
 -222 -43 l 257
 -162 -76 l 257
 -190 -83 -244 -83 -244 -104 c 256
 -244 -120 -212 -129 -170 -129 c 256
 -116 -129 -72 -113 -72 -82 c 256
 -72 -77 -73 -67 -78 -59 c 257
 -43 -59 l 257
 -39 -71 -39 -83 -39 -94 c 256
 -39 -161 -90 -205 -172 -205 c 256
 -230 -205 -294 -187 -294 -129 c 256
EndSplineSet
EndChar

StartChar: si_Mb.halant
Encoding: 341 -1 213
GlifName: si_M_b.halant
Width: 636
VWidth: 0
GlyphClass: 2
Flags: HWO
LayerCount: 2
Back
Fore
SplineSet
30 227 m 256
 30 342 74 432 148 432 c 256
 167 432 173 429 180 424 c 256
 191 416 201 406 201 376 c 256
 201 362 202 351 202 348 c 256
 202 295 240 267 295 267 c 256
 352 267 372 296 375 313 c 256
 375 314 376 315 375 317 c 257
 365 302 351 289 318 289 c 256
 271 289 245 324 245 360 c 256
 245 402 277 434 322 434 c 256
 381 434 408 383 408 339 c 256
 408 284 369 238 292 238 c 256
 224 238 171 278 171 350 c 256
 171 355 170 363 170 372 c 256
 170 384 169 392 163 398 c 256
 159 402 153 404 144 404 c 256
 107 404 74 349 74 276 c 256
 74 171 126 125 179 125 c 256
 201 125 215 132 219 135 c 257
 219 135 220 151 222 158 c 256
 236 205 277 219 310 219 c 256
 343 219 389 204 399 151 c 256
 400 144 400 136 400 136 c 257
 404 133 416 125 438 125 c 256
 502 125 529 225 529 296 c 256
 529 325 525 346 516 370 c 256
 481 463 368 492 281 492 c 256
 205 492 123 478 42 440 c 257
 42 473 l 257
 74 485 124 499 124 508 c 256
 124 520 95 523 95 545 c 256
 95 582 163 629 278 629 c 256
 536 629 566 418 572 356 c 257
 583 330 590 294 590 249 c 256
 590 128 522 0 423 0 c 256
 399 0 380 5 359 12 c 257
 359 12 355 16 355 47 c 0
 355 77.9389342871 370 92.7844336374 370 125 c 256
 370 158 350 187 311 187 c 256
 276 187 250 166 250 127 c 256
 250 85.9336012351 265 79.4043074805 265 36 c 0
 265 27 261 12 261 12 c 257
 240 6 219 0 195 0 c 256
 87 0 30 117 30 227 c 256
144 537 m 256
 144 525 163 526 163 515 c 256
 163 513 162 510 160 508 c 257
 193 514 233 519 279 519 c 256
 387 519 470 492 528 424 c 257
 495 539 396 574 291 574 c 256
 224 574 144 561 144 537 c 256
275 363 m 256
 275 337 295 317 321 317 c 256
 347 317 367 337 367 363 c 256
 367 389 347 409 321 409 c 256
 295 409 275 389 275 363 c 256
EndSplineSet
EndChar

StartChar: si_MbI
Encoding: 342 -1 214
GlifName: si_M_bI_
Width: 636
VWidth: 0
GlyphClass: 2
Flags: HW
LayerCount: 2
Back
Fore
SplineSet
72 562 m 256
 72 652 207 670 307 670 c 256
 443 670 558 639 558 554 c 256
 558 502 504 480 470 474 c 257
 420 490 l 257
 456 491 483 505 483 527 c 256
 483 564 415 581 307 581 c 256
 231 581 132 573 132 538 c 256
 132 511 183 508 285 504 c 256
 350 501 449 499 504 459 c 256
 553 423 590 356 590 251 c 257
 529 292 l 257
 529 319 526 381 495 417 c 256
 450 469 387 470 286 476 c 256
 197 481 72 476 72 562 c 256
275 363 m 256
 275 338 296 317 321 317 c 256
 346 317 367 338 367 363 c 256
 367 388 346 409 321 409 c 256
 296 409 275 388 275 363 c 256
30 230 m 256
 30 338 74 432 148 432 c 256
 167 432 175 428 182 423 c 256
 193 415 201 401 201 371 c 256
 201 357 201 358 201 355 c 256
 201 302 232 267 297 267 c 256
 350 267 375 299 375 315 c 256
 375 316 375 315 375 317 c 257
 371 312 359 289 318 289 c 256
 271 289 245 324 245 360 c 256
 245 402 277 434 322 434 c 256
 381 434 408 383 408 337 c 256
 408 280 363 238 292 238 c 256
 218 238 170 282 170 357 c 256
 170 362 171 363 171 372 c 256
 171 392 164 404 145 404 c 256
 98 404 74 329 74 279 c 256
 74 198 109 125 180 125 c 256
 197 125 211 129 219 136 c 257
 219 143 220 151 223 160 c 256
 234 199 268 219 310 219 c 256
 352 219 386 199 397 160 c 256
 400 151 401 143 401 136 c 257
 410 129 422 125 440 125 c 256
 497 125 529 213 529 296 c 257
 590 254 l 257
 590 127 523 0 424 0 c 256
 400 0 390 4 359 12 c 257
 356 16 355 40 355 47 c 256
 355 79 370 93 370 121 c 256
 370 158 354 187 310 187 c 256
 266 187 250 158 250 121 c 256
 250 93 265 78 265 47 c 256
 265 40 264 16 261 12 c 257
 230 4 220 0 196 0 c 256
 86 0 30 120 30 230 c 256
EndSplineSet
EndChar

StartChar: si_MbIi
Encoding: 343 -1 215
GlifName: si_M_bI_i
Width: 636
VWidth: 0
GlyphClass: 2
Flags: HW
LayerCount: 2
Back
Fore
SplineSet
30 230 m 256
 30 338 74 432 148 432 c 256
 167 432 175 428 182 423 c 256
 193 415 201 401 201 371 c 256
 201 357 201 358 201 355 c 256
 201 302 232 267 297 267 c 256
 350 267 375 299 375 315 c 256
 375 316 375 315 375 317 c 257
 371 312 359 289 318 289 c 256
 271 289 245 324 245 360 c 256
 245 402 277 434 322 434 c 256
 381 434 408 383 408 337 c 256
 408 280 363 238 292 238 c 256
 218 238 170 282 170 357 c 256
 170 362 171 363 171 372 c 256
 171 392 164 404 145 404 c 256
 98 404 74 329 74 279 c 256
 74 198 109 125 180 125 c 256
 197 125 211 129 219 136 c 257
 219 143 220 151 223 160 c 256
 234 199 268 219 310 219 c 256
 352 219 386 199 397 160 c 256
 400 151 401 143 401 136 c 257
 410 129 422 125 440 125 c 256
 497 125 529 213 529 296 c 257
 590 262 l 257
 590 126 523 0 424 0 c 256
 400 0 390 4 359 12 c 257
 356 16 355 40 355 47 c 256
 355 79 370 93 370 121 c 256
 370 158 354 187 310 187 c 256
 266 187 250 158 250 121 c 256
 250 93 265 78 265 47 c 256
 265 40 264 16 261 12 c 257
 230 4 220 0 196 0 c 256
 86 0 30 120 30 230 c 256
409 539 m 256
 409 509 436 485 468 485 c 256
 500 485 527 509 527 539 c 256
 527 569 500 592 468 592 c 256
 436 592 409 569 409 539 c 256
275 363 m 256
 275 338 296 317 321 317 c 256
 346 317 367 338 367 363 c 256
 367 388 346 409 321 409 c 256
 296 409 275 388 275 363 c 256
73 562 m 256
 73 652 214 670 314 670 c 256
 450 670 560 640 560 542 c 256
 560 489 512 458 468 458 c 256
 424 458 376 489 376 542 c 256
 376 566 386 579 390 584 c 257
 382 586 348 588 312 588 c 256
 236 588 128 580 128 540 c 256
 128 511 190 508 292 504 c 256
 357 501 451 499 506 459 c 256
 555 423 590 361 590 258 c 257
 529 292 l 257
 529 334 522 384 492 418 c 256
 447 470 394 470 293 476 c 256
 204 481 73 476 73 562 c 256
EndSplineSet
EndChar

StartChar: si_MbU
Encoding: 344 -1 216
GlifName: si_M_bU_
Width: 636
VWidth: 0
GlyphClass: 2
Flags: HW
LayerCount: 2
Back
Fore
SplineSet
52 -142 m 256
 52 -90 98 -50 153 -50 c 256
 195 -50 232 -74 247 -110 c 257
 214 -122 l 257
 207 -105 186 -82 153 -82 c 256
 116 -82 87 -109 87 -142 c 256
 87 -171 108 -192 178 -192 c 258
 540 -192 l 257
 540 128 l 257
 575 219 l 257
 575 -235 l 257
 157 -235 l 258
 77 -235 52 -186 52 -142 c 256
EndSplineSet
Refer: 468 3513 N 1 0 0 1 0 0 2
EndChar

StartChar: si_MbUu
Encoding: 345 -1 217
GlifName: si_M_bU_u
Width: 636
VWidth: 0
GlyphClass: 2
Flags: HW
LayerCount: 2
Back
Fore
SplineSet
51 -138 m 256
 51 -80 100 -40 153 -40 c 256
 195 -40 227 -55 250 -91 c 257
 217 -102 l 257
 206 -85 187 -70 158 -70 c 256
 119 -70 94 -95 94 -120 c 256
 94 -152 123 -167 157 -167 c 256
 233 -167 308 -114 416 -114 c 256
 467 -114 513 -134 540 -166 c 257
 540 152 l 257
 575 212 l 257
 575 -231 l 257
 550 -231 l 257
 535 -195 489 -146 426 -146 c 256
 335 -146 260 -237 162 -237 c 256
 107 -237 51 -206 51 -138 c 256
EndSplineSet
Refer: 468 3513 N 1 0 0 1 0 0 2
EndChar

StartChar: si_N.halant
Encoding: 283 -1 218
GlifName: si_N_.halant
Width: 806
VWidth: 0
GlyphClass: 2
Flags: HW
LayerCount: 2
Back
Fore
SplineSet
606 348 m 257
 606 681 l 257
 660 639 757 634 757 542 c 256
 757 498 722 468 679 468 c 256
 664 468 649 471 634 478 c 257
 634 331 l 257
 606 348 l 257
634 504 m 257
 642 499 653 497 666 497 c 256
 698 497 712 521 712 545 c 256
 712 586 680 607 634 637 c 257
 634 504 l 257
EndSplineSet
Refer: 461 3505 N 1 0 0 1 0 0 2
EndChar

StartChar: si_ND.halant
Encoding: 455 -1 219
GlifName: si_N_D_.halant
Width: 894
VWidth: 0
GlyphClass: 2
Flags: HW
LayerCount: 2
Back
Fore
SplineSet
702 423 m 257
 702 681 l 257
 756 639 853 634 853 542 c 256
 853 498 818 468 775 468 c 256
 760 468 745 471 730 478 c 257
 730 410 l 257
 702 423 l 257
730 504 m 257
 738 499 749 497 762 497 c 256
 794 497 808 521 808 545 c 256
 808 586 776 607 730 637 c 257
 730 504 l 257
EndSplineSet
Refer: 230 -1 N 1 0 0 1 0 0 2
EndChar

StartChar: si_NDAa
Encoding: 456 -1 220
GlifName: si_N_D_A_a
Width: 937
VWidth: 0
GlyphClass: 2
Flags: HW
LayerCount: 2
Back
Fore
SplineSet
24 176 m 257
 32 167 50 160 67 160 c 256
 130 160 131 206 208 279 c 257
 221 292 223 309 223 322 c 256
 223 356 204 380 180 380 c 256
 160 380 146 370 144 345 c 256
 142 323 131 294 99 294 c 256
 82 294 55 304 55 339 c 256
 55 384 89 431 154 431 c 256
 219 431 253 386 253 334 c 256
 253 326 252 319 251 315 c 257
 308 369 401 436 591 436 c 256
 616 436 675 436 710 429 c 257
 691 425 618 406 606 406 c 257
 597 406 595 407 585 407 c 256
 428 407 342 359 272 298 c 257
 298 307 317 308 345 308 c 256
 429 308 498 249 498 169 c 256
 498 53 398 -1 276 -1 c 256
 136 -1 24 65 24 176 c 257
125 147 m 257
 154 138 190 133 248 133 c 256
 360 133 418 177 418 225 c 256
 418 259 390 281 334 281 c 256
 190 281 189 190 125 147 c 257
EndSplineSet
Refer: 40 -1 N 1 0 0 1 438 0 2
EndChar

StartChar: si_NDAe
Encoding: 457 -1 221
GlifName: si_N_D_A_e
Width: 893
VWidth: 0
GlyphClass: 2
Flags: HW
LayerCount: 2
Back
Fore
SplineSet
24 176 m 257
 32 167 50 160 67 160 c 256
 130 160 131 206 208 279 c 257
 221 292 223 309 223 322 c 256
 223 356 204 380 180 380 c 256
 160 380 146 370 144 345 c 256
 142 323 131 294 99 294 c 256
 82 294 55 304 55 339 c 256
 55 384 89 431 154 431 c 256
 219 431 253 386 253 334 c 256
 253 326 252 319 251 315 c 257
 308 369 401 436 591 436 c 256
 616 436 675 436 710 429 c 257
 691 425 618 406 606 406 c 257
 597 406 595 407 585 407 c 256
 428 407 342 359 272 298 c 257
 298 307 317 308 345 308 c 256
 429 308 498 249 498 169 c 256
 498 53 398 -1 276 -1 c 256
 136 -1 24 65 24 176 c 257
125 147 m 257
 154 138 190 133 248 133 c 256
 360 133 418 177 418 225 c 256
 418 259 390 281 334 281 c 256
 190 281 189 190 125 147 c 257
EndSplineSet
Refer: 43 -1 N 1 0 0 1 439 0 2
EndChar

StartChar: si_NDAee
Encoding: 458 -1 222
GlifName: si_N_D_A_ee
Width: 903
VWidth: 0
GlyphClass: 2
Flags: HW
LayerCount: 2
Back
Fore
SplineSet
24 176 m 257
 32 167 50 160 67 160 c 256
 130 160 131 206 208 279 c 257
 221 292 223 309 223 322 c 256
 223 356 204 380 180 380 c 256
 160 380 146 370 144 345 c 256
 142 323 131 294 99 294 c 256
 82 294 55 304 55 339 c 256
 55 384 89 431 154 431 c 256
 219 431 253 386 253 334 c 256
 253 326 252 319 251 315 c 257
 308 369 401 436 591 436 c 256
 616 436 675 436 710 429 c 257
 691 425 618 406 606 406 c 257
 597 406 595 407 585 407 c 256
 428 407 342 359 272 298 c 257
 298 307 317 308 345 308 c 256
 429 308 498 249 498 169 c 256
 498 53 398 -1 276 -1 c 256
 136 -1 24 65 24 176 c 257
125 147 m 257
 154 138 190 133 248 133 c 256
 360 133 418 177 418 225 c 256
 418 259 390 281 334 281 c 256
 190 281 189 190 125 147 c 257
EndSplineSet
Refer: 42 -1 N 1 0 0 1 439 0 2
EndChar

StartChar: si_NDI
Encoding: 459 -1 223
GlifName: si_N_D_I_
Width: 894
VWidth: 0
GlyphClass: 2
Flags: HW
LayerCount: 2
Back
Fore
SplineSet
474 520 m 256
 474 621 565 671 662 671 c 256
 759 671 849 617 849 518 c 256
 849 443 786 406 734 405 c 257
 718 427 l 257
 772 427 796 460 796 486 c 256
 796 536 737 552 665 552 c 256
 593 552 522 536 522 490 c 256
 522 468 540 440 587 436 c 257
 530 432 l 257
 521 432 474 458 474 520 c 256
EndSplineSet
Refer: 230 -1 N 1 0 0 1 0 0 2
EndChar

StartChar: si_NDIi
Encoding: 460 -1 224
GlifName: si_N_D_I_i
Width: 894
VWidth: 0
GlyphClass: 2
Flags: HW
LayerCount: 2
Back
Fore
SplineSet
688 514 m 256
 688 484 716 460 751 460 c 256
 786 460 815 484 815 514 c 256
 815 544 786 568 751 568 c 256
 716 568 688 544 688 514 c 256
474 518 m 256
 474 619 565 671 662 671 c 256
 759 671 849 615 849 523 c 256
 849 464 802 429 751 429 c 256
 691 429 653 470 653 515 c 256
 653 533 660 560 684 576 c 257
 677 577 665 578 651 578 c 256
 579 578 516 551 516 498 c 256
 516 467 543 436 596 436 c 257
 529 432 l 257
 521 434 474 455 474 518 c 256
EndSplineSet
Refer: 230 -1 N 1 0 0 1 0 0 2
EndChar

StartChar: si_NDRI
Encoding: 464 -1 225
GlifName: si_N_D_R_I_
Width: 894
VWidth: 0
GlyphClass: 2
Flags: HW
LayerCount: 2
Back
Fore
SplineSet
474 520 m 260
 474 621 565 671 662 671 c 260
 759 671 849 617 849 518 c 260
 849 443 786 406 734 405 c 261
 718 427 l 261
 772 427 796 460 796 486 c 260
 796 536 737 552 665 552 c 260
 593 552 522 536 522 490 c 260
 522 468 540 440 587 436 c 261
 530 432 l 261
 521 432 474 458 474 520 c 260
472 -43 m 257
 499 -43 l 257
 526 -84 565 -103 642 -103 c 256
 732 -103 818 -38 818 51 c 256
 818 72 818 66 817 74 c 257
 846 79 l 257
 846 59 846 76 846 39 c 256
 846 -109 759 -204 654 -204 c 256
 549 -204 492 -145 472 -43 c 257
470 169 m 256
 470 274 543 317 662 317 c 258
 779 317 l 257
 769 363 739 390 706 390 c 256
 687 390 673 379 664 361 c 256
 654 339 637 333 617 333 c 256
 592 333 574 350 574 371 c 256
 574 407 615 433 670 433 c 256
 756 433 801 389 818 291 c 257
 756 291 l 258
 668 291 623 257 623 173 c 256
 623 89 674 44 724 44 c 256
 754 44 779 48 819 94 c 257
 846 79 l 257
 805 30 761 -1 672 -1 c 256
 541 -1 470 69 470 169 c 256
24 176 m 257
 32 167 50 160 67 160 c 256
 130 160 131 206 208 279 c 257
 221 292 223 309 223 322 c 256
 223 356 204 380 180 380 c 256
 160 380 146 370 144 345 c 256
 142 323 131 294 99 294 c 256
 82 294 55 304 55 339 c 256
 55 384 89 431 154 431 c 256
 219 431 253 386 253 334 c 256
 253 326 252 319 251 315 c 257
 308 369 401 436 591 436 c 256
 616 436 675 436 710 429 c 257
 691 425 618 406 606 406 c 257
 597 406 595 407 585 407 c 256
 428 407 342 359 272 298 c 257
 298 307 317 308 345 308 c 256
 429 308 498 249 498 169 c 256
 498 53 398 -1 276 -1 c 256
 136 -1 24 65 24 176 c 257
125 147 m 257
 154 138 190 133 248 133 c 256
 360 133 418 177 418 225 c 256
 418 259 390 281 334 281 c 256
 190 281 189 190 125 147 c 257
EndSplineSet
EndChar

StartChar: si_NDRIi
Encoding: 465 -1 226
GlifName: si_N_D_R_I_i
Width: 894
VWidth: 0
GlyphClass: 2
Flags: HW
LayerCount: 2
Back
Fore
SplineSet
688 514 m 256
 688 484 716 460 751 460 c 256
 786 460 815 484 815 514 c 256
 815 544 786 568 751 568 c 256
 716 568 688 544 688 514 c 256
474 518 m 256
 474 619 565 671 662 671 c 256
 759 671 849 615 849 523 c 256
 849 464 802 429 751 429 c 256
 691 429 653 470 653 515 c 256
 653 533 660 560 684 576 c 257
 677 577 665 578 651 578 c 256
 579 578 516 551 516 498 c 256
 516 467 543 436 596 436 c 257
 529 432 l 257
 521 434 474 455 474 518 c 256
472 -43 m 257
 499 -43 l 257
 526 -84 565 -103 642 -103 c 256
 732 -103 818 -38 818 51 c 256
 818 72 818 66 817 74 c 257
 846 79 l 257
 846 59 846 76 846 39 c 256
 846 -109 759 -204 654 -204 c 256
 549 -204 492 -145 472 -43 c 257
470 169 m 256
 470 274 543 317 662 317 c 258
 779 317 l 257
 769 363 739 390 706 390 c 256
 687 390 673 379 664 361 c 256
 654 339 637 333 617 333 c 256
 592 333 574 350 574 371 c 256
 574 407 615 433 670 433 c 256
 756 433 801 389 818 291 c 257
 756 291 l 258
 668 291 623 257 623 173 c 256
 623 89 674 44 724 44 c 256
 754 44 779 48 819 94 c 257
 846 79 l 257
 805 30 761 -1 672 -1 c 256
 541 -1 470 69 470 169 c 256
24 176 m 257
 32 167 50 160 67 160 c 256
 130 160 131 206 208 279 c 257
 221 292 223 309 223 322 c 256
 223 356 204 380 180 380 c 256
 160 380 146 370 144 345 c 256
 142 323 131 294 99 294 c 256
 82 294 55 304 55 339 c 256
 55 384 89 431 154 431 c 256
 219 431 253 386 253 334 c 256
 253 326 252 319 251 315 c 257
 308 369 401 436 591 436 c 256
 616 436 675 436 710 429 c 257
 691 425 618 406 606 406 c 257
 597 406 595 407 585 407 c 256
 428 407 342 359 272 298 c 257
 298 307 317 308 345 308 c 256
 429 308 498 249 498 169 c 256
 498 53 398 -1 276 -1 c 256
 136 -1 24 65 24 176 c 257
125 147 m 257
 154 138 190 133 248 133 c 256
 360 133 418 177 418 225 c 256
 418 259 390 281 334 281 c 256
 190 281 189 190 125 147 c 257
EndSplineSet
EndChar

StartChar: si_NDRa
Encoding: 463 -1 227
GlifName: si_N_D_R_a
Width: 894
VWidth: 0
GlyphClass: 2
Flags: HW
LayerCount: 2
Back
Fore
SplineSet
472 -43 m 257
 499 -43 l 257
 526 -84 565 -103 642 -103 c 256
 732 -103 818 -38 818 51 c 256
 818 72 818 66 817 74 c 257
 846 79 l 257
 846 59 846 76 846 39 c 256
 846 -109 759 -204 654 -204 c 256
 549 -204 492 -145 472 -43 c 257
470 169 m 256
 470 274 543 317 662 317 c 258
 779 317 l 257
 769 363 739 390 706 390 c 256
 687 390 673 379 664 361 c 256
 654 339 637 333 617 333 c 256
 592 333 574 350 574 371 c 256
 574 407 615 433 670 433 c 256
 756 433 801 389 818 291 c 257
 756 291 l 258
 668 291 623 257 623 173 c 256
 623 89 674 44 724 44 c 256
 754 44 779 48 819 94 c 257
 846 79 l 257
 805 30 761 -1 672 -1 c 256
 541 -1 470 69 470 169 c 256
24 176 m 257
 32 167 50 160 67 160 c 256
 130 160 131 206 208 279 c 257
 221 292 223 309 223 322 c 256
 223 356 204 380 180 380 c 256
 160 380 146 370 144 345 c 256
 142 323 131 294 99 294 c 256
 82 294 55 304 55 339 c 256
 55 384 89 431 154 431 c 256
 219 431 253 386 253 334 c 256
 253 326 252 319 251 315 c 257
 308 369 401 436 591 436 c 256
 616 436 675 436 710 429 c 257
 691 425 618 406 606 406 c 257
 597 406 595 407 585 407 c 256
 428 407 342 359 272 298 c 257
 298 307 317 308 345 308 c 256
 429 308 498 249 498 169 c 256
 498 53 398 -1 276 -1 c 256
 136 -1 24 65 24 176 c 257
125 147 m 257
 154 138 190 133 248 133 c 256
 360 133 418 177 418 225 c 256
 418 259 390 281 334 281 c 256
 190 281 189 190 125 147 c 257
EndSplineSet
EndChar

StartChar: si_NDU
Encoding: 461 -1 228
GlifName: si_N_D_U_
Width: 894
VWidth: 0
GlyphClass: 2
Flags: HW
LayerCount: 2
Back
Fore
SplineSet
471 -142 m 256
 471 -90 518 -50 573 -50 c 256
 615 -50 652 -74 667 -110 c 257
 634 -122 l 257
 627 -105 606 -82 573 -82 c 256
 536 -82 507 -109 507 -142 c 256
 507 -171 528 -192 598 -192 c 258
 810 -192 l 257
 810 71 l 257
 845 79 l 257
 845 -235 l 257
 577 -235 l 258
 497 -235 471 -186 471 -142 c 256
470 169 m 256
 470 274 543 317 662 317 c 258
 779 317 l 257
 769 363 739 390 706 390 c 256
 687 390 673 379 664 361 c 256
 654 339 637 333 617 333 c 256
 592 333 574 350 574 371 c 256
 574 407 615 433 670 433 c 256
 756 433 801 389 818 291 c 257
 756 291 l 258
 668 291 623 257 623 173 c 256
 623 89 674 44 724 44 c 256
 754 44 779 48 819 94 c 257
 845 79 l 257
 808 31 761 -1 672 -1 c 256
 541 -1 470 69 470 169 c 256
24 176 m 257
 32 167 50 160 67 160 c 256
 130 160 131 206 208 279 c 257
 221 292 223 309 223 322 c 256
 223 356 204 380 180 380 c 256
 160 380 146 370 144 345 c 256
 142 323 131 294 99 294 c 256
 82 294 55 304 55 339 c 256
 55 384 89 431 154 431 c 256
 219 431 253 386 253 334 c 256
 253 326 252 319 251 315 c 257
 308 369 401 436 591 436 c 256
 616 436 675 436 710 429 c 257
 691 425 618 406 606 406 c 257
 597 406 595 407 585 407 c 256
 428 407 342 359 272 298 c 257
 298 307 317 308 345 308 c 256
 429 308 498 249 498 169 c 256
 498 53 398 -1 276 -1 c 256
 136 -1 24 65 24 176 c 257
125 147 m 257
 154 138 190 133 248 133 c 256
 360 133 418 177 418 225 c 256
 418 259 390 281 334 281 c 256
 190 281 189 190 125 147 c 257
EndSplineSet
EndChar

